<?xml version="1.0" standalone="no"?>
<!DOCTYPE svg PUBLIC "-//W3C//DTD SVG 1.1//EN" "http://www.w3.org/Graphics/SVG/1.1/DTD/svg11.dtd" >
<svg>
<metadata>
Created by FontForge 20090914 at Tue Jul 12 09:20:08 2016
 By www-data
&#194;&#169; 1990-2008 Apple Inc. &#194;&#169; 1990-97 Type Solutions Inc. &#194;&#169; 1990-97 The Font Bureau Inc.  TrueType outline design of Monaco typeface created by Kris Holmes and Charles Bigelow.
</metadata>
<defs>
<font id="Monaco" horiz-adv-x="1229" >
  <font-face 
    font-family="Monaco"
    font-weight="400"
    font-stretch="normal"
    units-per-em="2048"
    panose-1="2 0 5 3 0 0 0 0 0 0"
    ascent="1638"
    descent="-410"
    x-height="1117"
    cap-height="1552"
    bbox="-1249 -862 1647 2504"
    underline-thickness="155"
    underline-position="0"
    unicode-range="U+0008-U+FB02"
  />
<missing-glyph 
d="M877 0h-730v1552h730v-1552zM727 1402h-430v-1252h430v1252z" />
    <glyph glyph-name="fi" unicode="fi" 
d="M273 0l-0.000976562 869.001h-248v155h248v52c0 147.333 16.667 256.333 50 327s84.833 128.667 154.5 174s161.834 68 276.501 68c86.667 0 174.667 -9 264 -27v-177c-96.667 32 -182.334 48 -257.001 48c-59.333 0 -111.666 -11 -156.999 -33
s-80.833 -57.833 -106.5 -107.5s-38.5 -133.834 -38.5 -252.501v-72h652v-1024h-186v869h-466v-869h-186z" />
    <glyph glyph-name="fl" unicode="fl" 
d="M219 0l-0.000976562 869.001h-217v155h217v52c0 147.333 16.667 256.333 50 327s84.833 128.667 154.5 174s161.167 68 274.5 68c44.667 0 89.167 -2.5 133.5 -7.5s88.5 -12.833 132.5 -23.5h186v-1614h-186v1441c-48 16 -93.5 28 -136.5 36s-83.167 12 -120.5 12
c-59.333 0 -111.666 -11 -156.999 -33s-80.833 -57.833 -106.5 -107.5s-38.5 -133.834 -38.5 -252.501v-72h412v-155h-412v-869h-186z" />
    <glyph glyph-name=".notdef" 
d="M877 0h-730v1552h730v-1552zM727 1402h-430v-1252h430v1252z" />
    <glyph glyph-name=".null" horiz-adv-x="0" 
 />
    <glyph glyph-name=".null" horiz-adv-x="0" 
 />
    <glyph glyph-name=".null" horiz-adv-x="0" 
 />
    <glyph glyph-name="nonmarkingreturn" unicode="&#x9;" 
 />
    <glyph glyph-name="nonmarkingreturn" unicode="&#xd;" 
 />
    <glyph glyph-name="nonmarkingreturn" unicode="&#xa;" 
 />
    <glyph glyph-name="space" unicode=" " 
 />
    <glyph glyph-name="exclam" unicode="!" 
d="M529 442l-46 1110h248l-47 -1110h-155zM615 -47c-39.333 0 -73.166 14.168 -101.499 42.501s-42.5 62.166 -42.5 101.499s14.167 73 42.5 101s62.166 42 101.499 42c38.667 0 72.167 -13.833 100.5 -41.5s42.5 -61.5 42.5 -101.5s-14.333 -74 -43 -102s-62 -42 -100 -42z
" />
    <glyph glyph-name="quotedbl" unicode="&#x22;" 
d="M465 1055h-128l-64 559h249zM896 1055h-127l-57 559h244z" />
    <glyph glyph-name="numbersign" unicode="#" 
d="M71 419v140h196l110 411h-306v139h341l117 443h146l-117 -443h283l122 443h146l-120 -443h168v-139h-207l-109 -411h316v-140h-355l-114 -419h-148l116 419h-279l-110 -419h-148l111 419h-159zM414 559h280l113 411h-286z" />
    <glyph glyph-name="dollar" unicode="$" 
d="M580 -155l0.000976562 156.999c-44.667 0 -91 2.33301 -139 7s-93 11.834 -135 21.501s-90.333 26.834 -145 51.501v192c44 -22.667 87.167 -42 129.5 -58s87 -28.667 134 -38s98.833 -16 155.5 -20v557l-107 58c-202.667 108.667 -304 240 -304 394
c0 82 33.667 161.833 101 239.5s170.666 122.5 309.999 134.5v166h140v-166c78.667 0 171.667 -13.667 279 -41v-173l-35 10c-100.667 28 -182 45 -244 51v-544l112 -64c105.333 -60.667 177.5 -120.334 216.5 -179.001s58.5 -121 58.5 -187
c0 -59.333 -14.833 -116.833 -44.5 -172.5s-72.167 -103.5 -127.5 -143.5s-127 -67.667 -215 -83v-170h-140zM580.001 927.999l-0.000976562 461.998c-67.333 -15.333 -119.166 -40.666 -155.499 -75.999s-54.5 -76.666 -54.5 -123.999c0 -44.667 15.5 -87.5 46.5 -128.5
s85.5 -85.5 163.5 -133.5zM720 631.997l-0.00195312 -460c72.667 26 121.834 57.833 147.501 95.5s38.5 79.834 38.5 126.501c0 45.333 -12.667 84.166 -38 116.499s-74.666 72.833 -147.999 121.5z" />
    <glyph glyph-name="percent" unicode="%" 
d="M314 1552c96.667 0 172.5 -36 227.5 -108s82.5 -165.333 82.5 -280c0 -115.333 -27.5 -208.833 -82.5 -280.5s-130.833 -107.5 -227.5 -107.5s-172.667 35.833 -228 107.5s-83 165.167 -83 280.5c0 114.667 27.667 208 83 280s131.333 108 228 108zM314 1427
c-54 0 -93.333 -25.833 -118 -77.5s-37 -113.5 -37 -185.5c0 -72.667 12.333 -134.834 37 -186.501s64 -77.5 118 -77.5c53.333 0 92.5 25.833 117.5 77.5s37.5 113.834 37.5 186.501c0 72 -12.5 133.833 -37.5 185.5s-64.167 77.5 -117.5 77.5zM166 -47h-164l1061 1645h165
zM912 776c92.667 0 167.998 -34.668 225.998 -104.001s87 -158.666 87 -267.999c0 -126 -30.667 -224.833 -92 -296.5s-135.666 -107.5 -222.999 -107.5c-85.333 0 -157.666 34.167 -216.999 102.5s-89 163.5 -89 285.5c0 116 28 209.667 84 281s130.667 107 224 107z
M914.998 651.999c-52.667 0 -91.667 -25.333 -117 -76s-38 -115.334 -38 -194.001c0 -87.333 15.333 -152.166 46 -194.499s66.667 -63.5 108 -63.5c44 0 81 23 111 69s45 112.333 45 199c0 68 -12.5 128.333 -37.5 181s-64.167 79 -117.5 79z" />
    <glyph glyph-name="ampersand" unicode="&#x26;" 
d="M881 130c-66 -69.333 -131.164 -116.168 -195.497 -140.501s-133.833 -36.5 -208.5 -36.5c-142.667 0 -257.5 40.333 -344.5 121s-130.5 183.667 -130.5 309c0 175.333 91.333 339 274 491c-54.667 68.667 -95.834 132.834 -123.501 192.501s-41.5 115.167 -41.5 166.5
c0 62 16.333 122.333 49 181s77.667 104 135 136s120.666 48 189.999 48c92 0 169 -24.667 231 -74s93 -120 93 -212c0 -67.333 -18.833 -134.666 -56.5 -201.999s-115.834 -146 -234.501 -236l354 -436c10 33.333 16.5 60.666 19.5 81.999s5.5 60.333 7.5 117
s3 91.667 3 105v49h186v-47c0 -44 -4.66699 -107.167 -14 -189.5s-37.333 -169.833 -84 -262.5l238 -292h-238zM421.003 991.998c67.333 47.333 120.668 99.168 160.001 155.501s59 107.166 59 152.499c0 43.333 -13.833 80.5 -41.5 111.5s-70.834 46.5 -129.501 46.5
c-50.667 0 -92 -18.667 -124 -56s-48 -83 -48 -137c0 -30 4 -60.5 12 -91.5s38 -81.5 90 -151.5zM778.005 254l-405.001 498c-126.667 -109.333 -190 -227.333 -190 -354c0 -86.667 29 -156.667 87 -210s128.333 -80 211 -80c44 0 88.333 7.66699 133 23
s99.334 56.333 164.001 123z" />
    <glyph glyph-name="quotesingle" unicode="'" 
d="M683 993h-134l-105 621h341z" />
    <glyph glyph-name="parenleft" unicode="(" 
d="M1072 -372c-184.667 11.333 -340.334 63.498 -467.001 156.498s-227.834 218.5 -303.501 376.5s-113.5 316.333 -113.5 475s37.833 317 113.5 475s176.834 283.5 303.501 376.5s282.334 145.5 467.001 157.5v-156c-139.333 -12.667 -259.166 -59.5 -359.499 -140.5
s-179.166 -184.167 -236.499 -309.5s-86 -259.666 -86 -402.999s28.667 -277.666 86 -402.999s136.166 -228.333 236.499 -309s220.166 -127.667 359.499 -141v-155z" />
    <glyph glyph-name="parenright" unicode=")" 
d="M157 1645c184.667 -12 340.334 -64.498 467.001 -157.498s227.834 -218.5 303.501 -376.5s113.5 -316.333 113.5 -475s-37.833 -317 -113.5 -475s-176.834 -283.5 -303.501 -376.5s-282.334 -145.167 -467.001 -156.5v155c139.333 13.333 259.166 60.333 359.499 141
s179.333 183.667 237 309s86.5 259.666 86.5 402.999s-28.833 277.666 -86.5 402.999s-136.667 228.5 -237 309.5s-220.166 127.833 -359.499 140.5v156z" />
    <glyph glyph-name="asterisk" unicode="*" 
d="M519 659l21 347l-283 -190l-93 162l307 150l-307 152l93 159l283 -189l-21 348h188l-26 -348l289 189l94 -159l-308 -152l308 -150l-94 -162l-289 190l26 -347h-188z" />
    <glyph glyph-name="plus" unicode="+" 
d="M1157 621v-156h-465v-465h-156v465h-465v156h465v465h156v-465h465z" />
    <glyph glyph-name="comma" unicode="," 
d="M424 -434v124c48 12.667 84.5 30.834 109.5 54.501s45 53.667 60 90s22.5 80.166 22.5 131.499c-62 0 -107.667 17.5 -137 52.5s-44 72.5 -44 112.5c0 46 16.333 84.833 49 116.5s70.667 47.5 114 47.5c56 0 104.333 -24.167 145 -72.5s61 -114.5 61 -198.5
c0 -73.333 -16 -142.5 -48 -207.5s-75.5 -120.5 -130.5 -166.5s-122.167 -74 -201.5 -84z" />
    <glyph glyph-name="hyphen" unicode="-" 
d="M227 551v155h776v-155h-776z" />
    <glyph glyph-name="period" unicode="." 
d="M614 -47c-44.667 0 -83 16 -115 48s-48 70.333 -48 115c0 45.333 16.167 83.833 48.5 115.5s70.5 47.5 114.5 47.5s82.167 -15.833 114.5 -47.5s48.5 -70.167 48.5 -115.5c0 -44.667 -16 -83 -48 -115s-70.333 -48 -115 -48z" />
    <glyph glyph-name="slash" unicode="/" 
d="M216 -47h-183l987 1645h177z" />
    <glyph glyph-name="zero" unicode="0" 
d="M614 1598c176.667 0 311.334 -74.167 404.001 -222.5s139 -348.166 139 -599.499c0 -252 -46.333 -452.167 -139 -600.5s-227.334 -222.5 -404.001 -222.5c-176 0 -310.5 74.167 -403.5 222.5s-139.5 348.5 -139.5 600.5c0 251.333 46.5 451.166 139.5 599.499
s227.5 222.5 403.5 222.5zM311 444l537.001 841c-34 62 -70.833 103.833 -110.5 125.5s-80.834 32.5 -123.501 32.5c-111.333 0 -196 -61.833 -254 -185.5s-87 -280.5 -87 -470.5c0 -43.333 1.33301 -90 4 -140s14 -117.667 34 -203zM915.001 1100l-533 -846.002
c28.667 -48.667 61.667 -85.167 99 -109.5s79 -36.5 125 -36.5c126.667 0 216.667 70.833 270 212.5s80 298.834 80 471.501c0 106.667 -13.667 209.334 -41 308.001z" />
    <glyph glyph-name="one" unicode="1" 
d="M568 155v1198c-56 -44.667 -110.333 -82.667 -163 -114s-125 -63.333 -217 -96v168c146 62 272.667 142.333 380 241h186v-1397h373v-155h-939v155h380z" />
    <glyph glyph-name="two" unicode="2" 
d="M1088 0l-939.004 -0.00292969v171c0 44 9 91.167 27 141.5s52.333 106.833 103 169.5s104.334 123 161.001 181l106 108c21.333 22 68 73 140 153s119.5 141.333 142.5 184s34.5 84.667 34.5 126c0 66.667 -26.667 118.167 -80 154.5s-113.333 54.5 -180 54.5
c-38 0 -80.5 -4.33301 -127.5 -13s-88.167 -18.834 -123.5 -30.501s-92.666 -35.5 -171.999 -71.5v165c84 40 168.167 67.5 252.5 82.5s153.833 22.5 208.5 22.5c80.667 0 154.834 -13.167 222.501 -39.5s118 -67.166 151 -122.499s49.5 -114.333 49.5 -177
c0 -70 -21.167 -141.667 -63.5 -215s-122.166 -167.666 -239.499 -282.999l-114 -113l-96 -94c-60.667 -61.333 -109.667 -120.666 -147 -177.999s-58 -125.666 -62 -204.999h746v-171z" />
    <glyph glyph-name="three" unicode="3" 
d="M145 28v196.003c152.667 -77.333 285 -116 397 -116c102.667 0 187.5 31.167 254.5 93.5s100.5 142.5 100.5 240.5c0 98.667 -36.833 179 -110.5 241s-198.834 93 -375.501 93h-103v155h143c130 0 224 29.167 282 87.5s87 123.166 87 194.499
c0 64.667 -23.667 119.167 -71 163.5s-120 66.5 -218 66.5c-110 0 -228.333 -31 -355 -93v177c126.667 47.333 242.667 71 348 71c188.667 0 318.834 -37.167 390.501 -111.5s107.5 -159.166 107.5 -254.499c0 -70.667 -19 -137 -57 -199s-108 -117.333 -210 -166
c90 -26.667 158 -59.334 204 -98.001s80.833 -84.334 104.5 -137.001s35.5 -111.667 35.5 -177c0 -145.333 -53.833 -265.333 -161.5 -360s-246.834 -142 -417.501 -142c-49.333 0 -103.166 3.66699 -161.499 11s-129.5 28.666 -213.5 63.999z" />
    <glyph glyph-name="four" unicode="4" 
d="M707 0v434h-659v156l659 962h187v-962h287v-156h-287v-434h-187zM707 590v680l-461 -680h461z" />
    <glyph glyph-name="five" unicode="5" 
d="M188 807l0.00195312 745.001h869v-179h-683v-380h32c223.333 0 395.333 -46.667 516 -140s181 -219 181 -377c0 -100 -24.333 -189.667 -73 -269s-117.334 -141.5 -206.001 -186.5s-183 -67.5 -283 -67.5s-228 24.333 -384 73v203
c56.667 -30.667 120 -55.834 190 -75.501s134.667 -29.5 194 -29.5s117.333 14.333 174 43s100.667 70.5 132 125.5s47 111.167 47 168.5c0 96.667 -42.833 178.5 -128.5 245.5s-237.834 100.5 -456.501 100.5h-121z" />
    <glyph glyph-name="six" unicode="6" 
d="M292 728c48 71.333 107.499 129.497 178.499 174.497s149.167 67.5 234.5 67.5c80.667 0 157.167 -19.667 229.5 -59s127.5 -94.166 165.5 -164.499s57 -152.166 57 -245.499c0 -147.333 -47.167 -275.5 -141.5 -384.5s-218.5 -163.5 -372.5 -163.5
c-181.333 0 -316.833 75.833 -406.5 227.5s-134.5 344.5 -134.5 578.5c0 258.667 57 463.167 171 613.5s268.333 225.5 463 225.5c104.667 0 206.334 -15.333 305.001 -46v-188c-110.667 52.667 -215 79 -313 79c-138.667 0 -246 -63.667 -322 -191
s-114 -288.666 -114 -483.999v-40zM656.999 107.997c50 0 100.333 14.8291 151 44.4961s90.5 75.334 119.5 137.001s43.5 128.834 43.5 201.501c0 94.667 -24.5 172.334 -73.5 233.001s-118.833 91 -209.5 91c-94 0 -171.167 -35.167 -231.5 -105.5
s-90.5 -155.833 -90.5 -256.5c0 -101.333 29.5 -184.166 88.5 -248.499s126.5 -96.5 202.5 -96.5z" />
    <glyph glyph-name="seven" unicode="7" 
d="M319 0v139.001c0 108.667 12.333 200 37 274s68 156.333 130 247s111.667 160.667 149 210l162 214l58 75c44 59.333 82 128 114 206h-805v187h985v-124c0 -49.333 -9.83301 -95 -29.5 -137s-79.167 -131.667 -178.5 -269l-71 -98l-104 -146
c-66.667 -94 -116 -169 -148 -225s-56.167 -114.333 -72.5 -175s-24.5 -140.334 -24.5 -239.001v-139h-202z" />
    <glyph glyph-name="eight" unicode="8" 
d="M459 837l-34.001 24.999c-47.333 33.333 -93.666 82.5 -138.999 147.5s-68 136.5 -68 214.5c0 103.333 40.667 191.5 122 264.5s184.666 109.5 309.999 109.5c76.667 0 145.667 -13.833 207 -41.5s108.666 -68.5 141.999 -122.5s50 -113 50 -177
c0 -44 -7.66699 -86.5 -23 -127.5s-38.166 -81.667 -68.499 -122s-90.5 -97.166 -180.5 -170.499l84 -67c98 -80 164 -149 198 -207s51 -123 51 -195c0 -112 -40.667 -209.167 -122 -291.5s-203.333 -123.5 -366 -123.5c-163.333 0 -285.666 38.5 -366.999 115.5
s-122 172.5 -122 286.5c0 170 108.667 330.667 326 482zM649.999 931.999c94 71.333 152.833 130.999 176.5 178.999s35.5 92.667 35.5 134c0 50 -22 95.5 -66 136.5s-100.667 61.5 -170 61.5c-74.667 0 -131.5 -22.333 -170.5 -67s-58.5 -91 -58.5 -139
c0 -46.667 16.333 -90.667 49 -132s85 -87.666 157 -138.999zM598.999 737.998c-176 -135.333 -264 -261.998 -264 -379.998c0 -70 29 -129 87 -177s126.667 -72 206 -72c72.667 0 137.667 23 195 69s86 103.333 86 172c0 67.333 -34.833 135.666 -104.5 204.999
s-118.167 114.666 -145.5 135.999z" />
    <glyph glyph-name="nine" unicode="9" 
d="M936 824c-48 -71.333 -107.499 -129.499 -178.499 -174.499s-149.167 -67.5 -234.5 -67.5c-80.667 0 -157.167 19.5 -229.5 58.5s-127.5 93.833 -165.5 164.5s-57 152.667 -57 246c0 146.667 47.167 274.5 141.5 383.5s218.5 163.5 372.5 163.5
c181.333 0 316.833 -75.833 406.5 -227.5s134.5 -344.5 134.5 -578.5c0 -258.667 -57 -463.167 -171 -613.5s-268.333 -225.5 -463 -225.5c-104.667 0 -206.334 15.667 -305.001 47v187c110.667 -52 215 -78 313 -78c138.667 0 246 63.667 322 191s114 288.666 114 483.999
v40zM571.001 1443c-50 0 -100.333 -14.833 -151 -44.5s-90.5 -75.167 -119.5 -136.5s-43.5 -128.666 -43.5 -201.999c0 -94 24.5 -171.333 73.5 -232s118.833 -91 209.5 -91c94 0 171.167 35.167 231.5 105.5s90.5 155.5 90.5 255.5c0 101.333 -29.5 184.166 -88.5 248.499
s-126.5 96.5 -202.5 96.5z" />
    <glyph glyph-name="colon" unicode=":" 
d="M614 -47c-44.667 0 -83 16 -115 48s-48 70.333 -48 115c0 45.333 16.167 83.833 48.5 115.5s70.5 47.5 114.5 47.5s82.167 -15.833 114.5 -47.5s48.5 -70.167 48.5 -115.5c0 -44.667 -16 -83 -48 -115s-70.333 -48 -115 -48zM614 822c-44.667 0 -83 16 -115 48
s-48 70.333 -48 115c0 45.333 16.167 83.833 48.5 115.5s70.5 47.5 114.5 47.5s82.167 -15.833 114.5 -47.5s48.5 -70.167 48.5 -115.5c0 -44.667 -16 -83 -48 -115s-70.333 -48 -115 -48z" />
    <glyph glyph-name="semicolon" unicode=";" 
d="M424 -434v124c48 12.667 84.5 30.834 109.5 54.501s45 53.667 60 90s22.5 80.166 22.5 131.499c-62 0 -107.667 17.5 -137 52.5s-44 72.5 -44 112.5c0 46 16.333 84.833 49 116.5s70.667 47.5 114 47.5c56 0 104.333 -24.167 145 -72.5s61 -114.5 61 -198.5
c0 -73.333 -16 -142.5 -48 -207.5s-75.5 -120.5 -130.5 -166.5s-122.167 -74 -201.5 -84zM598 822c-44.667 0 -83 16 -115 48s-48 70.333 -48 115c0 45.333 16.167 83.833 48.5 115.5s70.5 47.5 114.5 47.5s82.167 -15.833 114.5 -47.5s48.5 -70.167 48.5 -115.5
c0 -44.667 -16 -83 -48 -115s-70.333 -48 -115 -48z" />
    <glyph glyph-name="less" unicode="&#x3c;" 
d="M71 543l1086 543v-173l-742 -369l742 -373v-171z" />
    <glyph glyph-name="equal" unicode="=" 
d="M1157 791v-155h-1086v155h1086zM1157 442v-155h-1086v155h1086z" />
    <glyph glyph-name="greater" unicode="&#x3e;" 
d="M1157 543l-1086 -543v173l743 369l-743 373v171z" />
    <glyph glyph-name="question" unicode="?" 
d="M401 442l0.00195312 34.999c0 55.333 4.66699 101.5 14 138.5s27.166 75.333 53.499 115s65.833 87.5 118.5 143.5l62 66c12 12.667 29.333 33.334 52 62.001l66 83c56 69.333 84 129.333 84 180c0 46.667 -20 88 -60 124s-105 54 -195 54
c-58 0 -117.167 -7.83301 -177.5 -23.5s-130.833 -46.167 -211.5 -91.5v180c123.333 60 252.333 90 387 90c149.333 0 263.166 -30.5 341.499 -91.5s117.5 -140.167 117.5 -237.5c0 -96 -50.667 -195.667 -152 -299l-66 -68l-78 -81l-71 -73c-26 -29.333 -49 -63 -69 -101
s-30 -91 -30 -159v-46h-186zM503.002 -47.001c-38.667 0 -72.165 14.168 -100.498 42.501s-42.5 62.166 -42.5 101.499s14.167 73 42.5 101s61.833 42 100.5 42c39.333 0 73.166 -13.833 101.499 -41.5s42.5 -61.5 42.5 -101.5s-14.333 -74 -43 -102
s-62.334 -42 -101.001 -42z" />
    <glyph glyph-name="at" unicode="@" 
d="M921 200l0.000976562 -157.001c-56 -36.667 -105.667 -60.834 -149 -72.501s-90 -17.5 -140 -17.5c-138.667 0 -252.167 33.833 -340.5 101.5s-158.666 162 -210.999 283s-78.5 268.833 -78.5 443.5c0 242.667 55.667 439.5 167 590.5s261.666 226.5 450.999 226.5
c187.333 0 335.5 -66.667 444.5 -200s163.5 -308.666 163.5 -525.999c0 -96 -14 -174.833 -42 -236.5s-65 -110.667 -111 -147s-101.667 -54.5 -167 -54.5c-50.667 0 -92 11.167 -124 33.5s-56 73.833 -72 154.5c-18.667 -43.333 -47.334 -85.5 -86.001 -126.5
s-91 -61.5 -157 -61.5c-68.667 0 -125.5 31.167 -170.5 93.5s-67.5 138.833 -67.5 229.5c0 111.333 32.167 214.666 96.5 309.999s180.5 143 348.5 143h191v-438c0 -58 2.16699 -99.167 6.5 -123.5s13.333 -42.833 27 -55.5s28.5 -19 44.5 -19c26 0 52.167 12.5 78.5 37.5
s46.333 60.333 60 106s20.5 95.167 20.5 148.5c0 111.333 -20.333 219.5 -61 324.5s-101 179.833 -181 224.5s-163.667 67 -251 67c-92.667 0 -174.167 -27.833 -244.5 -83.5s-128 -139.167 -173 -250.5s-67.5 -234.333 -67.5 -369c0 -135.333 22.333 -260.666 67 -375.999
s105 -199.666 181 -252.999s160.667 -80 254 -80c106 0 203.667 43.333 293 130zM712.001 808.999l0.000976562 269h-36c-78.667 0 -135.334 -12.333 -170.001 -37s-62 -63.334 -82 -116.001s-30 -110.667 -30 -174c0 -51.333 8 -91 24 -119s38 -42 66 -42
c39.333 0 79.5 22.833 120.5 68.5s76.833 95.834 107.5 150.501z" />
    <glyph glyph-name="A" unicode="A" 
d="M227 0h-194l478 1552h205l481 -1552h-213l-106 341h-546zM380 496h453l-187 589l-44 156l-39 -156z" />
    <glyph glyph-name="B" unicode="B" 
d="M172 0l-0.000976562 1552h303c182 0 303.833 -13.833 365.5 -41.5s107.834 -68.5 138.501 -122.5s46 -115.667 46 -185c0 -54.667 -9 -106.5 -27 -155.5s-44.667 -93.667 -80 -134s-86.666 -78.5 -153.999 -114.5c123.333 -49.333 206.833 -110 250.5 -182
s65.5 -144 65.5 -216c0 -68.667 -18.5 -135.334 -55.5 -200.001s-88.833 -114.334 -155.5 -149.001s-173.334 -52 -320.001 -52h-377zM373.999 853.002l211.998 -0.000976562c68.667 28.667 118.834 58.834 150.501 90.501s55.334 67 71.001 106s23.5 81.833 23.5 128.5
c0 73.333 -21.5 128 -64.5 164s-126.833 54 -251.5 54h-141v-543zM373.997 155.001l191 -0.000976562c106.667 0 185.5 25.167 236.5 75.5s76.5 110.833 76.5 181.5c0 52 -14 99.833 -42 143.5s-71.333 78.334 -130 104.001s-150.667 38.5 -276 38.5h-56v-543z" />
    <glyph glyph-name="C" unicode="C" 
d="M1088 18c-116 -43.333 -219.999 -64.999 -311.999 -64.999c-121.333 0 -233 32.5 -335 97.5s-181.333 161.667 -238 290s-85 273.5 -85 435.5c0 160.667 28 305 84 433s135 225 237 291s214.333 99 337 99c92 0 196 -21.667 312 -65v-184c-107.333 62 -214 93 -320 93
c-80 0 -153.167 -27.333 -219.5 -82s-119.833 -134.834 -160.5 -240.501s-61 -220.5 -61 -344.5c0 -126 21 -242.333 63 -349s95.667 -186.5 161 -239.5s137.666 -79.5 216.999 -79.5c105.333 0 212 31 320 93v-183z" />
    <glyph glyph-name="D" unicode="D" 
d="M155 0l0.00195312 1552h368c169.333 0 295.166 -29.5 377.499 -88.5s144.166 -148.167 185.499 -267.5s62 -260.666 62 -423.999c0 -154.667 -21.833 -290.5 -65.5 -407.5s-105.5 -207 -185.5 -270s-204.667 -94.5 -374 -94.5h-368zM357.002 170.999h135.001
c136.667 0 234.167 24.333 292.5 73s100 116.167 125 202.5s37.5 205.5 37.5 357.5c0 148.667 -14.667 263 -44 343s-71.333 141.5 -126 184.5s-144.334 64.5 -269.001 64.5h-151v-1225z" />
    <glyph glyph-name="E" unicode="E" 
d="M1041 171v-171h-838v1552h822v-156h-620v-527h558v-155h-558v-543h636z" />
    <glyph glyph-name="F" unicode="F" 
d="M227 0v1552h853v-156h-651v-527h589v-155h-589v-714h-202z" />
    <glyph glyph-name="G" unicode="G" 
d="M1088 1c-109.333 -32 -209.668 -47.999 -301.001 -47.999c-129.333 0 -244.5 32 -345.5 96s-180.167 160.5 -237.5 289.5s-86 274.833 -86 437.5c0 160.667 28 305 84 433s135 225 237 291s214 99 336 99c92 0 196 -21.667 312 -65v-184c-107.333 62 -214 93 -320 93
c-80 0 -153.167 -27.333 -219.5 -82s-119.666 -134.834 -159.999 -240.501s-60.5 -221.167 -60.5 -346.5c0 -168 38.333 -321 115 -459s197.667 -207 363 -207c21.333 0 48.333 1.66699 81 5v500h-155v155h357v-767z" />
    <glyph glyph-name="H" unicode="H" 
d="M126 0v1552h202v-668h574v668h201v-1552h-201v729h-574v-729h-202z" />
    <glyph glyph-name="I" unicode="I" 
d="M172 0v155h341v1241h-341v156h884v-156h-341v-1241h341v-155h-884z" />
    <glyph glyph-name="J" unicode="J" 
d="M110 34l0.000976562 190c145.333 -76.667 267 -115 365 -115c51.333 0 98.166 10 140.499 30s76 53.5 101 100.5s37.5 147.5 37.5 301.5v855h-349v156h551v-1016c0 -165.333 -18.833 -284.333 -56.5 -357s-90.5 -128.5 -158.5 -167.5s-155 -58.5 -261 -58.5
c-118.667 0 -242 27 -370 81z" />
    <glyph glyph-name="K" unicode="K" 
d="M157 0v1552h202v-761l577 761h214l-557 -737l635 -815h-253l-616 791v-791h-202z" />
    <glyph glyph-name="L" unicode="L" 
d="M1057 171v-171h-838v1552h202v-1381h636z" />
    <glyph glyph-name="M" unicode="M" 
d="M219 0h-163v1552h203l358 -1022l358 1022h198v-1552h-186v989l5 136h-5l-44 -136l-240 -679h-202l-243 679l-39 136h-5l5 -136v-989z" />
    <glyph glyph-name="N" unicode="N" 
d="M312 0h-186v1552h182l549 -1033l60 -154h5l-5 154v1033h186v-1552h-186l-534 1016l-75 163l4 -161v-1018z" />
    <glyph glyph-name="O" unicode="O" 
d="M614 -47c-176 0 -310.5 74.167 -403.5 222.5s-139.5 348.5 -139.5 600.5c0 251.333 46.5 451.166 139.5 599.499s227.5 222.5 403.5 222.5c176.667 0 311.334 -74.167 404.001 -222.5s139 -348.166 139 -599.499c0 -252 -46.333 -452.167 -139 -600.5
s-227.334 -222.5 -404.001 -222.5zM614 109c97.333 0 178.5 55.167 243.5 165.5s97.5 277.5 97.5 501.5s-32.5 391.167 -97.5 501.5s-146.167 165.5 -243.5 165.5s-178.5 -55.167 -243.5 -165.5s-97.5 -277.5 -97.5 -501.5s32.5 -391.167 97.5 -501.5
s146.167 -165.5 243.5 -165.5z" />
    <glyph glyph-name="P" unicode="P" 
d="M378 566l-0.00195312 -565.998h-202v1552h386c158.667 0 274.334 -17.833 347.001 -53.5s128.334 -87.834 167.001 -156.501s58 -145.334 58 -230.001c0 -99.333 -26 -192 -78 -278s-124.5 -152.167 -217.5 -198.5s-219.167 -69.5 -378.5 -69.5h-82zM377.998 721.002
l86.998 -0.000976562c124.667 0 217.334 16.167 278.001 48.5s107.334 78.833 140.001 139.5s49 126.334 49 197.001c0 89.333 -29.167 160 -87.5 212s-173.5 78 -345.5 78h-121v-675z" />
    <glyph glyph-name="Q" unicode="Q" 
d="M746 -29c46.667 -77.333 88.333 -130.998 125 -160.998s84.334 -52.333 143.001 -67s123.667 -22 195 -22h18v-155h-47c-128.667 0 -222.334 13.333 -281.001 40s-114 67.667 -166 123s-99.333 130.666 -142 225.999c-122 13.333 -218.5 52 -289.5 116
s-127.167 163 -168.5 297s-62 278 -62 432c0 225.333 45 414.666 135 567.999s226 230 408 230c176 0 310.5 -74 403.5 -222s139.5 -348.333 139.5 -601c0 -120 -12.167 -234.833 -36.5 -344.5s-66.333 -206 -126 -289s-142.5 -139.833 -248.5 -170.5zM613.999 1443
c-97.333 0 -178.5 -55.167 -243.5 -165.5s-97.5 -277.5 -97.5 -501.5s32.5 -391.167 97.5 -501.5s146.167 -165.5 243.5 -165.5s178.5 55.167 243.5 165.5s97.5 277.5 97.5 501.5s-32.5 391.167 -97.5 501.5s-146.167 165.5 -243.5 165.5z" />
    <glyph glyph-name="R" unicode="R" 
d="M351 659v-658.998h-202v1552h415c135.333 0 235 -13.833 299 -41.5s113.5 -69.5 148.5 -125.5s52.5 -116.333 52.5 -181c0 -60 -11.667 -120.333 -35 -181s-55.5 -114.834 -96.5 -162.501s-100.167 -92.834 -177.5 -135.501l449 -725h-240l-411 659h-202zM351 815.002
l283 -0.000976562c63.333 34.667 110.5 70 141.5 106s54.5 74.333 70.5 115s24 81.334 24 122.001c0 72.667 -26.5 130.5 -79.5 173.5s-149.167 64.5 -288.5 64.5h-151v-581z" />
    <glyph glyph-name="S" unicode="S" 
d="M157 33v190c160 -76 305.333 -114 436 -114c54.667 0 107 10.5 157 31.5s87.833 51.167 113.5 90.5s38.5 82 38.5 128c0 54 -17.667 104.5 -53 151.5s-101.666 98.833 -198.999 155.5l-102 59l-103 59c-181.333 107.333 -272 240.666 -272 399.999
c0 116.667 40.5 214.834 121.5 294.501s207.5 119.5 379.5 119.5c110.667 0 217.667 -16 321 -48v-173c-114 44 -225 66 -333 66c-86 0 -155.5 -22.667 -208.5 -68s-79.5 -100 -79.5 -164c0 -63.333 20.333 -116 61 -158s92.667 -80.667 156 -116l78 -47l97 -59l82 -48
c170 -104 255 -234.667 255 -392c0 -120 -43.667 -223 -131 -309s-227.333 -129 -420 -129c-61.333 0 -119.833 5.16699 -175.5 15.5s-128.834 31.833 -219.501 64.5z" />
    <glyph glyph-name="T" unicode="T" 
d="M513 0v1381h-465v171h1133v-171h-466v-1381h-202z" />
    <glyph glyph-name="U" unicode="U" 
d="M126 1552l202 0.000976562v-1019c0 -134 11.167 -225.5 33.5 -274.5s56.666 -86.333 102.999 -112s97.833 -38.5 154.5 -38.5c60 0 113.5 13.833 160.5 41.5s81.667 71 104 130s33.5 169.833 33.5 332.5v940h186v-1013c0 -144.667 -21.5 -257.834 -64.5 -339.501
s-99.167 -143.167 -168.5 -184.5s-156.666 -62 -261.999 -62c-97.333 0 -183 18 -257 54s-130 90 -168 162s-57 202 -57 390v993z" />
    <glyph glyph-name="V" unicode="V" 
d="M1003 1552h194l-478 -1552h-205l-481 1552h213l337 -1084l44 -158l39 157z" />
    <glyph glyph-name="W" unicode="W" 
d="M208 0l-180 1552h184l106 -945l14 -157h5l20 157l163 945h184l186 -983l19 -150h5l12 151l117 982h158l-188 -1552h-191l-200 1052l-21 158h-5l-19 -158l-180 -1052h-189z" />
    <glyph glyph-name="X" unicode="X" 
d="M258 0h-210l454 811l-410 741h229l297 -535l304 535h211l-410 -726l458 -826h-233l-341 619z" />
    <glyph glyph-name="Y" unicode="Y" 
d="M514 0v718l-462 834h229l345 -616l344 616h207l-461 -834v-718h-202z" />
    <glyph glyph-name="Z" unicode="Z" 
d="M122 0v171l737 1225h-714v156h947v-156l-736 -1225h751v-171h-985z" />
    <glyph glyph-name="bracketleft" unicode="[" 
d="M355 -372v2017h807v-156h-621v-1706h621v-155h-807z" />
    <glyph glyph-name="backslash" unicode="\" 
d="M1014 -47l-981 1645h177l987 -1645h-183z" />
    <glyph glyph-name="bracketright" unicode="]" 
d="M874 1645v-2017h-807v155h621v1706h-621v156h807z" />
    <glyph glyph-name="asciicircum" unicode="^" 
d="M614 1552l543 -1087h-171l-372 747l-372 -747h-171z" />
    <glyph glyph-name="underscore" unicode="_" 
d="M71 -155v155h1086v-155h-1086z" />
    <glyph glyph-name="grave" unicode="`" 
d="M832 1288h-170l-342 326h216z" />
    <glyph glyph-name="a" unicode="a" 
d="M889 251c-56.667 -93.333 -124.831 -163.667 -204.498 -211s-152.834 -71 -219.501 -71c-93.333 0 -177.166 40.333 -251.499 121s-111.5 203 -111.5 367c0 129.333 24.667 244.833 74 346.5s115.333 182 198 241s185 88.5 307 88.5
c35.333 0 88.666 -3.66699 159.999 -11c10.667 -1.33301 26.667 -3 48 -5h187v-789c0 -134.667 14 -244 42 -328h-194c-14.667 61.333 -26.334 145 -35.001 251zM889.003 471.999v479.001c-66 17.333 -127.333 26 -184 26c-114.667 0 -210.167 -44.333 -286.5 -133
s-114.5 -209.334 -114.5 -362.001c0 -110.667 20.833 -194.167 62.5 -250.5s89.167 -84.5 142.5 -84.5c58 0 122 29.333 192 88s132.667 137.667 188 237z" />
    <glyph glyph-name="b" unicode="b" 
d="M327 866c57.333 93.333 125.668 163.667 205.001 211s152.333 71 219 71c93.333 0 177.333 -40.333 252 -121s112 -203 112 -367c0 -129.333 -24.833 -244.833 -74.5 -346.5s-115.834 -182 -198.501 -241s-185 -88.5 -307 -88.5c-34.667 0 -88 3.66699 -160 11
c-10.667 1.33301 -26.667 3 -48 5h-186v1614h186v-748zM327.002 645.001v-478.999c67.333 -17.333 129.333 -26 186 -26c112.667 0 207.5 44.167 284.5 132.5s115.5 209.166 115.5 362.499c0 111.333 -21 195 -63 251s-89.667 84 -143 84c-58 0 -121.833 -29.333 -191.5 -88
s-132.5 -137.667 -188.5 -237z" />
    <glyph glyph-name="c" unicode="c" 
d="M1095 32c-124.667 -42 -243.333 -63.001 -356 -63.001c-112 0 -211.5 25.833 -298.5 77.5s-154.833 121.667 -203.5 210s-73 188.833 -73 301.5c0 169.333 55.167 310 165.5 422s243.5 168 399.5 168c115.333 0 237.333 -21.667 366 -65v-179
c-130 59.333 -246.333 89 -349 89c-68 0 -132 -16.833 -192 -50.5s-106.333 -86.167 -139 -157.5s-49 -144.666 -49 -219.999c0 -100.667 31.5 -196.667 94.5 -288s161.833 -137 296.5 -137c40.667 0 80.667 2.83301 120 8.5s112 26.5 218 62.5v-179z" />
    <glyph glyph-name="d" unicode="d" 
d="M901 251c-56.667 -93.333 -124.832 -163.667 -204.499 -211s-152.834 -71 -219.501 -71c-93.333 0 -177.166 40.333 -251.499 121s-111.5 203 -111.5 367c0 129.333 24.667 244.833 74 346.5s115.333 182 198 241s185 88.5 307 88.5
c35.333 0 88.666 -3.66699 159.999 -11c10.667 -1.33301 26.667 -3 48 -5v497h187v-1614h-187v251zM901.002 471.999v479.001c-66 17.333 -127.333 26 -184 26c-114.667 0 -210.167 -44.333 -286.5 -133s-114.5 -209.334 -114.5 -362.001
c0 -110.667 20.833 -194.167 62.5 -250.5s89.167 -84.5 142.5 -84.5c58 0 122 29.333 192 88s132.667 137.667 188 237z" />
    <glyph glyph-name="e" unicode="e" 
d="M1084 74c-148.667 -70.667 -289.332 -106 -421.999 -106c-100.667 0 -190.667 25 -270 75s-142.833 121.5 -190.5 214.5s-71.5 192.5 -71.5 298.5c0 102 22.667 200 68 294s108.666 167.167 189.999 219.5s172 78.5 272 78.5c132.667 0 239.167 -47.333 319.5 -142
s120.5 -240.667 120.5 -438v-40h-770c0 -77.333 16.167 -148 48.5 -212s74.833 -112 127.5 -144s112.667 -48 180 -48c120 0 252.667 40 398 120v-170zM341.002 667h557.001v27c0 91.333 -22.333 164 -67 218s-104.334 81 -179.001 81c-75.333 0 -140.5 -27.5 -195.5 -82.5
s-93.5 -136.167 -115.5 -243.5z" />
    <glyph glyph-name="f" unicode="f" 
d="M415 0l-0.000976562 869.001h-248v155h248v52c0 147.333 16.667 256.333 50 327s84.833 128.667 154.5 174s161.834 68 276.501 68c86.667 0 174.667 -9 264 -27v-177c-96.667 32 -182.334 48 -257.001 48c-59.333 0 -111.666 -11 -156.999 -33
s-80.833 -57.833 -106.5 -107.5s-38.5 -133.834 -38.5 -252.501v-72h443v-155h-443v-869h-186z" />
    <glyph glyph-name="g" unicode="g" 
d="M901 251c-56.667 -93.333 -124.832 -163.667 -204.499 -211s-152.834 -71 -219.501 -71c-93.333 0 -177.166 40.333 -251.499 121s-111.5 203 -111.5 367c0 129.333 24.667 244.833 74 346.5s115.333 182 198 241s185 88.5 307 88.5
c35.333 0 88.666 -3.66699 159.999 -11c10.667 -1.33301 26.667 -3 48 -5h187v-790c0 -188 -2.5 -302.833 -7.5 -344.5s-13.167 -83.834 -24.5 -126.501c-26.667 -99.333 -87.5 -177.666 -182.5 -234.999s-209.833 -86 -344.5 -86c-135.333 0 -272.333 34.667 -411 104v188
c52.667 -36 117.5 -67.833 194.5 -95.5s151.5 -41.5 223.5 -41.5c56.667 0 110.334 9 161.001 27s91.667 44 123 78s52.666 73.5 63.999 118.5s17 104.833 17 179.5v158zM901.002 471.999v479.001c-66 17.333 -127.333 26 -184 26c-114.667 0 -210.167 -44.333 -286.5 -133
s-114.5 -209.334 -114.5 -362.001c0 -110.667 20.833 -194.167 62.5 -250.5s89.167 -84.5 142.5 -84.5c58 0 122 29.333 192 88s132.667 137.667 188 237z" />
    <glyph glyph-name="h" unicode="h" 
d="M155 0l0.00390625 1614h186v-741c53.333 86 117.666 153.333 192.999 202s150.666 73 225.999 73c63.333 0 121.166 -16.167 173.499 -48.5s88.833 -71.5 109.5 -117.5c16.667 -35.333 28 -72.833 34 -112.5s9 -121.5 9 -245.5v-624h-186v647
c0 107.333 -5.16699 178.166 -15.5 212.499s-29.333 62.5 -57 84.5s-57.834 33 -90.501 33c-65.333 0 -135.5 -31 -210.5 -93s-136.833 -139.667 -185.5 -233v-651h-186z" />
    <glyph glyph-name="i" unicode="i" 
d="M468 0v962h-310v155h496v-962h311v-155h-497zM437 1520c0 42 14.333 73.333 43 94s55.667 31 81 31c26 0 53.333 -10.333 82 -31s43 -52 43 -94c0 -41.333 -14.333 -72.333 -43 -93s-56 -31 -82 -31c-25.333 0 -52.333 10.333 -81 31s-43 51.667 -43 93z" />
    <glyph glyph-name="j" unicode="j" 
d="M172 -438v174.001c104 -30.667 191.667 -46 263 -46c62 0 114.667 10.833 158 32.5s77.166 58.167 101.499 109.5s36.5 140.666 36.5 267.999v862h-474v155h660v-982c0 -189.333 -22.333 -320.833 -67 -394.5s-98.667 -126.5 -162 -158.5s-150 -48 -260 -48
c-79.333 0 -164.666 9.33301 -255.999 28zM700 1520c0 42 14.167 73.333 42.5 94s55.5 31 81.5 31s53.167 -10.333 81.5 -31s42.5 -52 42.5 -94c0 -41.333 -14.167 -72.333 -42.5 -93s-55.5 -31 -81.5 -31s-53.167 10.333 -81.5 31s-42.5 51.667 -42.5 93z" />
    <glyph glyph-name="k" unicode="k" 
d="M205 0v1614h186v-1014l537 517h248l-536 -517l550 -600h-256l-543 600v-600h-186z" />
    <glyph glyph-name="l" unicode="l" 
d="M455 0v1458h-334v156h520v-1459h349v-155h-535z" />
    <glyph glyph-name="m" unicode="m" 
d="M71 0l0.00292969 1117h163v-256c51.333 108.667 99.166 183.667 143.499 225s89.166 62 134.499 62c54 0 97.5 -21.167 130.5 -63.5s49.5 -102.5 49.5 -180.5v-60c22 68 48.5 123.167 79.5 165.5s63.167 76 96.5 101s71.666 37.5 114.999 37.5c48 0 89 -20.333 123 -61
s51 -121.667 51 -243v-844h-163v763c0 62.667 -2 105.5 -6 128.5s-12 40.5 -24 52.5s-25 18 -39 18c-34.667 0 -71.834 -26.5 -111.501 -79.5s-80.167 -140.833 -121.5 -263.5v-619h-156v762c0 98.667 -9.66699 156.667 -29 174s-36.666 26 -51.999 26
c-34 0 -70.5 -29.667 -109.5 -89s-76.167 -135.333 -111.5 -228v-645h-163z" />
    <glyph glyph-name="n" unicode="n" 
d="M155 0l0.00292969 1117h186v-244c53.333 86 117.666 153.333 192.999 202s150.666 73 225.999 73c66 0 126 -17.5 180 -52.5s91.833 -80.833 113.5 -137.5s32.5 -168 32.5 -334v-624h-186v647c0 107.333 -5.16699 178.166 -15.5 212.499s-29.333 62.5 -57 84.5
s-57.834 33 -90.501 33c-65.333 0 -135.5 -31 -210.5 -93s-136.833 -139.667 -185.5 -233v-651h-186z" />
    <glyph glyph-name="o" unicode="o" 
d="M615 -31c-160 0 -288 55.833 -384 167.5s-144 252.5 -144 422.5s48 310.667 144 422s224 167 384 167c159.333 0 287 -55.667 383 -167s144 -252 144 -422s-48 -310.833 -144 -422.5s-223.667 -167.5 -383 -167.5zM615 124c99.333 0 178.333 38.667 237 116
s88 183.666 88 318.999c0 134.667 -29.333 240.667 -88 318s-137.667 116 -237 116c-100 0 -179.333 -38.667 -238 -116s-88 -183.333 -88 -318c0 -135.333 29.333 -241.666 88 -318.999s138 -116 238 -116z" />
    <glyph glyph-name="p" unicode="p" 
d="M327 866c57.333 93.333 125.668 163.667 205.001 211s152.333 71 219 71c93.333 0 177.333 -40.333 252 -121s112 -203 112 -367c0 -129.333 -24.833 -244.833 -74.5 -346.5s-115.834 -182 -198.501 -241s-185 -88.5 -307 -88.5c-34.667 0 -88 3.66699 -160 11
c-10.667 1.33301 -26.667 3 -48 5v-434h-186v1551h186v-251zM327.002 645.001v-478.999c67.333 -17.333 129.333 -26 186 -26c112.667 0 207.5 44.167 284.5 132.5s115.5 209.166 115.5 362.499c0 111.333 -21 195 -63 251s-89.667 84 -143 84
c-58 0 -121.833 -29.333 -191.5 -88s-132.5 -137.667 -188.5 -237z" />
    <glyph glyph-name="q" unicode="q" 
d="M901 251c-56.667 -93.333 -124.832 -163.667 -204.499 -211s-152.834 -71 -219.501 -71c-93.333 0 -177.166 40.333 -251.499 121s-111.5 203 -111.5 367c0 129.333 24.667 244.833 74 346.5s115.333 182 198 241s185 88.5 307 88.5
c35.333 0 88.666 -3.66699 159.999 -11c10.667 -1.33301 26.667 -3 48 -5h187v-1551h-187v685zM901.002 471.999v479.001c-66 17.333 -127.333 26 -184 26c-114.667 0 -210.167 -44.333 -286.5 -133s-114.5 -209.334 -114.5 -362.001
c0 -110.667 20.833 -194.167 62.5 -250.5s89.167 -84.5 142.5 -84.5c58 0 122 29.333 192 88s132.667 137.667 188 237z" />
    <glyph glyph-name="r" unicode="r" 
d="M250 0l0.000976562 1117h186v-244c58 92 124.5 160.833 199.5 206.5s158.5 68.5 250.5 68.5c67.333 0 134.666 -10.333 201.999 -31v-403h-179v255c-31.333 5.33301 -56 8 -74 8c-69.333 0 -137.333 -27.333 -204 -82s-131.667 -136.667 -195 -246v-649h-186z" />
    <glyph glyph-name="s" unicode="s" 
d="M168 59v197.004c74.667 -48.667 153.667 -82.834 237 -102.501s154 -29.5 212 -29.5c94 0 161.667 15.167 203 45.5s62 68.166 62 113.499c0 30 -9.66699 55.667 -29 77s-67.333 47.666 -144 78.999l-64 26l-129 51c-138.667 54 -226 104 -262 150
c-36.667 45.333 -55 100.666 -55 165.999c0 92 35.5 167.667 106.5 227s186.167 89 345.5 89c119.333 0 232.333 -17.333 339 -52v-169c-122.667 44 -238 66 -346 66c-78.667 0 -140.167 -13.833 -184.5 -41.5s-66.5 -62.167 -66.5 -103.5c0 -40 19.333 -72 58 -96
c38 -24 100 -51.667 186 -83l126 -46c115.333 -42 196.333 -87.667 243 -137s70 -111 70 -185c0 -96.667 -37.167 -176.167 -111.5 -238.5s-193.166 -93.5 -356.499 -93.5c-142.667 0 -289.334 30 -440.001 90z" />
    <glyph glyph-name="t" unicode="t" 
d="M1089 45c-87.333 -36.667 -150.668 -58.501 -190.001 -65.501s-77.333 -10.5 -114 -10.5c-78 0 -149.333 15 -214 45s-113.5 74.333 -146.5 133s-49.5 149.334 -49.5 272.001v450h-279v155h279v450h186v-450h497v-155h-497v-447c0 -90 10.667 -153.5 32 -190.5
s49.833 -64.167 85.5 -81.5s77.834 -26 126.501 -26c90 0 184.667 28.333 284 85v-164z" />
    <glyph glyph-name="u" unicode="u" 
d="M1074 1117l-0.00292969 -1117h-186v245c-60 -92 -126.667 -161 -200 -207s-146.666 -69 -219.999 -69c-65.333 0 -125.166 17.5 -179.499 52.5s-92.166 81 -113.499 138s-32 168.167 -32 333.5v624h186v-647c0 -107.333 5.16699 -178.166 15.5 -212.499
s29.333 -62.5 57 -84.5s57.5 -33 89.5 -33c65.333 0 135.5 30.833 210.5 92.5s137.167 139.5 186.5 233.5v651h186z" />
    <glyph glyph-name="v" unicode="v" 
d="M518 0l-485 1117h204l383 -884l391 884h186l-489 -1117h-190z" />
    <glyph glyph-name="w" unicode="w" 
d="M202 0l-182 1117h173l106 -680l28 -158l27 158l178 680h167l201 -680l35 -158l23 158l107 680h143l-181 -1117h-174l-214 719l-34 158h-5l-31 -157l-186 -720h-181z" />
    <glyph glyph-name="x" unicode="x" 
d="M271 0h-215l439 585l-410 532h238l291 -375l283 375h211l-388 -514l461 -603h-239l-340 445z" />
    <glyph glyph-name="y" unicode="y" 
d="M566 45l-516.001 1072h205l411 -838l344 838h187l-433 -1038c-91.333 -219.333 -178.166 -365 -260.499 -437s-188.833 -108 -319.5 -108c-56.667 0 -107.334 5 -152.001 15v164c51.333 -16 100.333 -24 147 -24c60 0 113.333 11.667 160 35
s89.334 64.666 128.001 123.999s66 110.666 82 153.999z" />
    <glyph glyph-name="z" unicode="z" 
d="M133 0v171l685 791h-669v155h915v-155l-690 -791h713v-171h-954z" />
    <glyph glyph-name="braceleft" unicode="{" 
d="M547 636c62 -32.667 107.499 -64.667 136.499 -96s50.667 -63.5 65 -96.5s21.5 -70.833 21.5 -113.5c0 -38 -6.66699 -87.667 -20 -149l-25 -114c-13.333 -62 -20 -108 -20 -138c0 -40.667 15.833 -75.167 47.5 -103.5s96.834 -42.5 195.501 -42.5h155v-155h-157
c-182.667 0 -300.334 29.333 -353.001 88s-79 125 -79 199c0 39.333 5 81.666 15 126.999l18 80l17 87l12 53c4.66699 24.667 7 48.667 7 72c0 62 -20.833 115 -62.5 159s-115.167 66 -220.5 66h-89v155h89c104 0 177.167 21.667 219.5 65s63.5 97.333 63.5 162
c0 24 -2.33301 47.333 -7 70l-12 52l-17 87l-18 80c-10 46 -15 88.667 -15 128c0 73.333 26.333 139.5 79 198.5s170.334 88.5 353.001 88.5h157v-156h-155c-98 0 -163 -14.167 -195 -42.5s-48 -63.166 -48 -104.499c0 -29.333 6.66699 -75 20 -137l25 -114
c13.333 -61.333 20 -111 20 -149c0 -42.667 -7.16699 -80.5 -21.5 -113.5s-36 -65.167 -65 -96.5s-74.5 -63.333 -136.5 -96z" />
    <glyph glyph-name="bar" unicode="|" 
d="M533 -47v1645h163v-1645h-163z" />
    <glyph glyph-name="braceright" unicode="}" 
d="M682 636c-62 32.667 -107.5 64.668 -136.5 96.001s-50.5 63.5 -64.5 96.5s-21 70.833 -21 113.5c0 38 6.33301 87.667 19 149l25 114c13.333 62 20 108 20 138c0 40.667 -15.833 75.167 -47.5 103.5s-96.834 42.5 -195.501 42.5h-155v156h157
c182.667 0 300.5 -29.5 353.5 -88.5s79.5 -125.167 79.5 -198.5c0 -40 -5.33301 -82.667 -16 -128l-18 -80l-17 -87l-12 -52c-4.66699 -25.333 -7 -49.666 -7 -72.999c0 -61.333 20.833 -114 62.5 -158s115.167 -66 220.5 -66h89v-155h-89
c-104 0 -177.167 -21.833 -219.5 -65.5s-63.5 -97.834 -63.5 -162.501c0 -23.333 2.33301 -46.333 7 -69l12 -53l17 -87l18 -80c10.667 -46 16 -88.667 16 -128c0 -74 -26.5 -140.167 -79.5 -198.5s-170.833 -87.5 -353.5 -87.5h-157v155h155
c98.667 0 163.834 14.167 195.501 42.5s47.5 63.166 47.5 104.499c0 29.333 -6.66699 75 -20 137l-25 114c-12.667 61.333 -19 111 -19 149c0 42.667 7 80.5 21 113.5s35.5 65.167 64.5 96.5s74.5 63.333 136.5 96z" />
    <glyph glyph-name="asciitilde" unicode="~" 
d="M56 403l-0.000976562 18c0 87.333 25.833 163.166 77.5 227.499s121.167 96.5 208.5 96.5c22 0 43.5 -2.16699 64.5 -6.5s44.833 -11.666 71.5 -21.999s66.667 -30.5 120 -60.5l121 -67c74 -40.667 134.333 -61 181 -61c49.333 0 85.833 17.833 109.5 53.5
s35.5 74.5 35.5 116.5v16h128v-16c0 -111.333 -31.5 -193.5 -94.5 -246.5s-129.833 -79.5 -200.5 -79.5c-66 0 -153.333 31 -262 93l-102 59c-77.333 44 -139.666 66 -186.999 66c-26.667 0 -51.5 -7 -74.5 -21s-41.5 -36.333 -55.5 -67s-21 -57.667 -21 -81v-18h-120z" />
    <glyph glyph-name="nonbreakingspace" unicode="&#xa0;" 
 />
    <glyph glyph-name="exclamdown" unicode="&#xa1;" 
d="M700 659l46 -1109h-248l47 1109h155zM615 1148c37.333 0 70.5 -14.333 99.5 -43s43.5 -62 43.5 -100c0 -38.667 -14.5 -72.334 -43.5 -101.001s-62.167 -43 -99.5 -43c-38 0 -71.5 14.333 -100.5 43s-43.5 62.334 -43.5 101.001c0 38 14.5 71.333 43.5 100
s62.5 43 100.5 43z" />
    <glyph glyph-name="cent" unicode="&#xa2;" 
d="M607 -155l-0.000976562 346.001c-99.333 12 -184.5 44 -255.5 96s-127.667 118.833 -170 200.5s-63.5 174.5 -63.5 278.5s19.667 196.333 59 277s93.833 147.667 163.5 201s158.5 89.666 266.5 108.999v354h155v-354c110.667 -12.667 206.334 -31.334 287.001 -56.001
v-179c-24 14 -50.667 26.333 -80 37s-60.333 20.334 -93 29.001s-70.667 15 -114 19v-866c53.333 6 94.333 13 123 21s72 25.333 130 52c8 4 19.333 9.33301 34 16v-180c-99.333 -32.667 -195 -51 -287 -55v-346h-155zM606.999 345.001v849.999
c-102.667 -32 -176.167 -87 -220.5 -165s-66.5 -166.333 -66.5 -265c0 -84 20 -167.167 60 -249.5s115.667 -139.166 227 -170.499z" />
    <glyph glyph-name="sterling" unicode="&#xa3;" 
d="M141 0l0.000976562 170.999c62 14 107.5 34.833 136.5 62.5s51 68 66 121s22.5 120.5 22.5 202.5v211h-225v155h225v69c0 177.333 17 304 51 380s82.333 132.667 145 170s137.667 56 225 56c82.667 0 170 -19.333 262 -58v-180c-105.333 55.333 -200 83 -284 83
c-38 0 -74.5 -12.5 -109.5 -37.5s-61 -63.167 -78 -114.5s-25.5 -147.666 -25.5 -288.999v-79h326v-155h-326v-117c0 -124.667 -7.33301 -219.5 -22 -284.5s-57.334 -130.167 -128.001 -195.5h709v-171h-970z" />
    <glyph glyph-name="currency" unicode="&#xa4;" 
d="M1042 1381l115 -101l-184 -212c48.667 -68 78.334 -122.833 89.001 -164.5s16 -84.834 16 -129.501c0 -45.333 -5.33301 -89.166 -16 -131.499s-40.334 -97.5 -89.001 -165.5l184 -211l-115 -95l-185 206c-60.667 -32 -108.167 -51.167 -142.5 -57.5
s-67.833 -9.5 -100.5 -9.5s-66.167 3.16699 -100.5 9.5s-81.833 25.5 -142.5 57.5l-185 -206l-115 95l184 211c-48.667 68 -78.334 123.167 -89.001 165.5s-16 86.166 -16 131.499c0 44.667 5.33301 87.834 16 129.501s40.334 96.5 89.001 164.5l-184 212l115 101l185 -211
c58.667 36 106.5 56.833 143.5 62.5s70.167 8.5 99.5 8.5s62.5 -2.83301 99.5 -8.5s84.833 -26.5 143.5 -62.5zM614 465c79.333 0 150.5 28.833 213.5 86.5s94.5 130.5 94.5 218.5c0 57.333 -13.833 110.833 -41.5 160.5s-66.5 88 -116.5 115s-100 40.5 -150 40.5
s-100 -13.5 -150 -40.5s-88.833 -65.333 -116.5 -115s-41.5 -103.167 -41.5 -160.5c0 -88 31.5 -160.833 94.5 -218.5s134.167 -86.5 213.5 -86.5z" />
    <glyph glyph-name="yen" unicode="&#xa5;" 
d="M522 0v248h-326v140h326v194h-326v139h317l-461 831h205l367 -642l368 642h185l-469 -831h318v-139h-318v-194h318v-140h-318v-248h-186z" />
    <glyph glyph-name="brokenbar" unicode="&#xa6;" 
d="M533 -47v730h163v-730h-163zM533 869v729h163v-729h-163z" />
    <glyph glyph-name="section" unicode="&#xa7;" 
d="M149 -301l0.00390625 201.001c68 -36.667 140.833 -65.334 218.5 -86.001s147.834 -31 210.501 -31c99.333 0 175.5 20.333 228.5 61s79.5 84.334 79.5 131.001c0 38.667 -13 72.667 -39 102c-26.667 28.667 -83.667 67.667 -171 117l-147 83
c-130.667 73.333 -222.834 143 -276.501 209s-80.5 135.333 -80.5 208c0 108.667 48.333 207.334 145 296.001c-42.667 32 -74.834 68.5 -96.501 109.5s-32.5 86.5 -32.5 136.5c0 64.667 18.5 124.667 55.5 180s89.167 99.5 156.5 132.5s153.333 49.5 258 49.5
c98.667 0 211 -19 337 -57v-178c-40.667 21.333 -95.5 40 -164.5 56s-129.5 24 -181.5 24c-90.667 0 -156.667 -18 -198 -54s-62 -76 -62 -120c0 -23.333 5.83301 -45.333 17.5 -66s29.167 -40.334 52.5 -59.001c46 -36.667 88 -66.334 126 -89.001l63 -35l149 -88
c128.667 -76 212 -142.667 250 -200c37.333 -58 56 -121.667 56 -191c0 -109.333 -48 -208.333 -144 -297c61.333 -50.667 98.166 -96 110.499 -136s18.5 -75.333 18.5 -106c0 -62.667 -22.167 -125.167 -66.5 -187.5s-103.833 -109 -178.5 -140
s-165.334 -46.5 -272.001 -46.5c-146.667 0 -287.334 23.667 -422.001 71zM833.004 319.001c66.667 53.333 100.001 115.333 100.001 186c0 48 -21.5 94.833 -64.5 140.5s-92.5 84.5 -148.5 116.5l-94 53l-184 105c-38.667 -44 -62.334 -79.5 -71.001 -106.5
s-13 -52.833 -13 -77.5c0 -54 18.333 -101.833 55 -143.5s121 -100.5 253 -176.5z" />
    <glyph glyph-name="dieresis" unicode="&#xa8;" 
d="M397 1288c-34 0 -63.167 12 -87.5 36s-36.5 53.333 -36.5 88s12.333 64 37 88s53.667 36 87 36s62.333 -12 87 -36s37 -53.333 37 -88s-12.167 -64 -36.5 -88s-53.5 -36 -87.5 -36zM832 1288c-34 0 -63.333 12 -88 36s-37 53.333 -37 88s12.5 64 37.5 88
s54.167 36 87.5 36s62.333 -12 87 -36s37 -53.333 37 -88s-12.333 -64 -37 -88s-53.667 -36 -87 -36z" />
    <glyph glyph-name="copyright" unicode="&#xa9;" 
d="M615 -47c-129.333 0 -236.999 33.667 -322.999 101s-155.833 164.333 -209.5 291s-80.5 270.334 -80.5 431.001c0 154.667 24.833 294 74.5 418s118.334 222.333 206.001 295s198.5 109 332.5 109c129.333 0 237.166 -34 323.499 -102s156.166 -165 209.499 -291
s80 -269 80 -429c0 -160.667 -26.833 -304.334 -80.5 -431.001s-123.5 -223.667 -209.5 -291s-193.667 -101 -323 -101zM615.001 78c85.333 0 165.334 26.8311 240.001 80.498s134.834 137.834 180.501 252.501s68.5 236.334 68.5 365.001c0 128 -23 249.667 -69 365
s-106.333 199.666 -181 252.999s-154.334 80 -239.001 80c-86.667 0 -167.834 -27.833 -243.501 -83.5s-135.5 -140.667 -179.5 -255s-66 -234.166 -66 -359.499c0 -130 23.333 -253 70 -369s107 -199.833 181 -251.5s153.333 -77.5 238 -77.5zM894.002 432.998
l0.00195312 -152c-60 -22 -131.333 -33 -214 -33c-87.333 0 -164.833 23.5 -232.5 70.5s-121.334 110.333 -161.001 190s-59.5 168.5 -59.5 266.5c0 97.333 19.167 187 57.5 269s88.666 145.667 150.999 191s138.833 68 229.5 68c68 0 144.333 -10.667 229 -32v-159
c-25.333 8 -53 14.667 -83 20s-56.5 9.5 -79.5 12.5s-42.167 4.5 -57.5 4.5c-84.667 0 -151.834 -34.333 -201.501 -103s-74.5 -159.667 -74.5 -273c0 -124.667 29.167 -220 87.5 -286s129.833 -99 214.5 -99c54.667 0 119.334 15 194.001 45z" />
    <glyph glyph-name="ordfeminine" unicode="&#xaa;" 
d="M840 1060c-38.667 -50.667 -90.334 -91.334 -155.001 -122.001s-126 -46 -184 -46c-74.667 0 -141.667 24.5 -201 73.5s-89 123.833 -89 224.5c0 78.667 19.5 148.5 58.5 209.5s91.333 109.333 157 145s148.167 53.5 247.5 53.5c30 0 73 -1.66699 129 -5l36 -3h140v-476
c0 -32.667 1.83301 -64.167 5.5 -94.5s17.5 -67.5 41.5 -111.5h-155c-13.333 38.667 -23.666 89.334 -30.999 152.001zM839 1208l-0.999023 254.999c-52 7.33301 -101 11 -147 11c-90.667 0 -167.5 -24 -230.5 -72s-94.5 -115 -94.5 -201
c0 -59.333 16.667 -103.666 50 -132.999s72.666 -44 117.999 -44c48 0 101 17.333 159 52s106.667 78.667 146 132z" />
    <glyph glyph-name="guillemotleft" unicode="&#xab;" 
d="M626 481v155l384 419l113 -109l-312 -387l312 -399l-113 -98zM153 481v155l384 419l112 -109l-311 -387l311 -399l-112 -98z" />
    <glyph glyph-name="logicalnot" unicode="&#xac;" 
d="M1157 621v-466h-155v310h-931v156h1086z" />
    <glyph glyph-name="softhyphen" unicode="&#xad;" 
d="M227 551v155h776v-155h-776z" />
    <glyph glyph-name="registered" unicode="&#xae;" 
d="M615 -47c-129.333 0 -236.999 33.667 -322.999 101s-155.833 164.333 -209.5 291s-80.5 270.334 -80.5 431.001c0 154.667 24.833 294 74.5 418s118.334 222.333 206.001 295s198.5 109 332.5 109c129.333 0 237.166 -34 323.499 -102s156.166 -165 209.499 -291
s80 -269 80 -429c0 -160.667 -26.833 -304.334 -80.5 -431.001s-123.5 -223.667 -209.5 -291s-193.667 -101 -323 -101zM615.001 78c85.333 0 165.334 26.8311 240.001 80.498s134.834 137.834 180.501 252.501s68.5 236.334 68.5 365.001c0 128 -23 249.667 -69 365
s-106.333 199.666 -181 252.999s-154.334 80 -239.001 80c-86.667 0 -167.834 -27.833 -243.501 -83.5s-135.5 -140.667 -179.5 -255s-66 -234.166 -66 -359.499c0 -130 23.333 -253 70 -369s107 -199.833 181 -251.5s153.333 -77.5 238 -77.5zM494.002 717.998v-379h-139
v914h220c117.333 0 196.833 -21.5 238.5 -64.5s62.5 -91.833 62.5 -146.5c0 -50 -14 -100.5 -42 -151.5s-72 -93.5 -132 -127.5l236 -424h-166l-196 379h-82zM494.002 828.998h116.001c42.667 24 74.5 51.5 95.5 82.5s31.5 65.833 31.5 104.5
c0 39.333 -13.833 70.333 -41.5 93s-79.834 34 -156.501 34h-45v-314z" />
    <glyph glyph-name="macron" unicode="&#xaf;" 
d="M335 1288v124h559v-124h-559z" />
    <glyph glyph-name="degree" unicode="&#xb0;" 
d="M615 1055c-76 0 -140.333 26.833 -193 80.5s-79 117.167 -79 190.5c0 75.333 26.833 139.5 80.5 192.5s117.5 79.5 191.5 79.5s137.667 -26.5 191 -79.5s80 -117.167 80 -192.5c0 -73.333 -26.333 -136.833 -79 -190.5s-116.667 -80.5 -192 -80.5zM615 1148
c50 0 92.167 18 126.5 54s51.5 77.333 51.5 124c0 48.667 -17.5 90.667 -52.5 126s-76.833 53 -125.5 53c-49.333 0 -91.5 -17.667 -126.5 -53s-52.5 -77.333 -52.5 -126c0 -46.667 17.167 -88 51.5 -124s76.833 -54 127.5 -54z" />
    <glyph glyph-name="plusminus" unicode="&#xb1;" 
d="M1157 931v-155h-465v-466h-156v466h-465v155h465v465h156v-465h465zM1157 155v-155h-1086v155h1086z" />
    <glyph glyph-name="twosuperior" unicode="&#xb2;" 
d="M990 644l-752 0.00195312v116c0 39.333 16.333 81.5 49 126.5s93.667 100.833 183 167.5l84 62c96.667 72.667 165.334 127 206.001 163c40 35.333 60 67.333 60 96c0 33.333 -23.167 58.166 -69.5 74.499s-92.833 24.5 -139.5 24.5
c-35.333 0 -75.833 -2.33301 -121.5 -7s-119.167 -21.334 -220.5 -50.001v125c118 37.333 240 56 366 56c118.667 0 205 -19.5 259 -58.5s81 -88.167 81 -147.5c0 -44 -16.333 -87.667 -49 -131c-32.667 -44 -95.667 -99.667 -189 -167l-91 -65l-76 -54
c-48 -35.333 -87.333 -68.5 -118 -99.5s-48.334 -64.167 -53.001 -99.5h591v-132z" />
    <glyph glyph-name="threesuperior" unicode="&#xb3;" 
d="M400 661l0.000976562 143.002c119.333 -39.333 226 -59 320 -59c86.667 0 157.167 16.833 211.5 50.5s81.5 74.167 81.5 121.5c0 56.667 -33.167 99 -99.5 127s-165.833 42 -298.5 42h-83v124h114c102.667 0 179.167 16 229.5 48s75.5 67.333 75.5 106
c0 32 -20.5 58.333 -61.5 79s-100.167 31 -177.5 31c-88 0 -184.333 -14.333 -289 -43v132c105.333 23.333 200.333 35 285 35c141.333 0 244.333 -22.333 309 -67c26.667 -18 48.167 -41.167 64.5 -69.5s24.5 -56.5 24.5 -84.5c0 -35.333 -12.667 -72.333 -38 -111
s-69 -71.334 -131 -98.001c74 -19.333 131 -49.833 171 -91.5s60 -91.834 60 -150.501c0 -91.333 -42.833 -165 -128.5 -221s-198.834 -84 -339.501 -84c-106.667 0 -206.667 13.333 -300 40z" />
    <glyph glyph-name="acute" unicode="&#xb4;" 
d="M320 1288l296 326h216l-342 -326h-170z" />
    <glyph glyph-name="mu" unicode="&#xb5;" 
d="M1076 1117l0.000976562 -1117h-186v242c-50.667 -94.667 -109 -163.834 -175 -207.501s-131.333 -65.5 -196 -65.5c-22.667 0 -46.5 2.66699 -71.5 8s-46.833 12.166 -65.5 20.499s-43.334 24.833 -74.001 49.5v-419h-186v1489h186v-649c0 -126 19.667 -213.667 59 -263
s88.333 -74 147 -74s115.5 21.833 170.5 65.5s123.5 130.834 205.5 261.501v659h186z" />
    <glyph glyph-name="paragraph" unicode="&#xb6;" 
d="M552 -372l0.000976562 1055c-156.667 16 -273.334 66.167 -350.001 150.5s-115 181.166 -115 290.499c0 74.667 18.667 146.334 56 215.001s89.5 121.334 156.5 158.001s181.833 55 344.5 55h537v-156h-163v-1768h-155v1768h-155v-1768h-156z" />
    <glyph glyph-name="periodcentered" unicode="&#xb7;" 
d="M614 706c46.667 0 85.5 -16.833 116.5 -50.5s46.5 -71.167 46.5 -112.5s-15.5 -78.833 -46.5 -112.5s-69.833 -50.5 -116.5 -50.5s-85.5 16.833 -116.5 50.5s-46.5 71.167 -46.5 112.5s15.5 78.833 46.5 112.5s69.833 50.5 116.5 50.5z" />
    <glyph glyph-name="cedilla" unicode="&#xb8;" 
d="M685 0l-73.001 -131c71.333 -14 118 -35.833 140 -65.5s33 -60.5 33 -92.5c0 -36.667 -14.667 -70.167 -44 -100.5s-75.333 -45.5 -138 -45.5c-55.333 0 -108.333 9.33301 -159 28v89c38.667 -20.667 78.334 -31 119.001 -31c23.333 0 44.333 7 63 21s28 28.667 28 44
c0 45.333 -62 74.333 -186 87l109 197h108z" />
    <glyph glyph-name="onesuperior" unicode="&#xb9;" 
d="M579 768v663c-96.667 -54 -200 -94.667 -310 -122v126c121.333 36 226 82.667 314 140h136v-807h302v-124h-752v124h310z" />
    <glyph glyph-name="ordmasculine" unicode="&#xba;" 
d="M614 884c-145.333 0 -254 35.667 -326 107s-108 154.666 -108 249.999c0 96 36 179.5 108 250.5s180.667 106.5 326 106.5c146 0 255 -35.5 327 -106.5s108 -154.5 108 -250.5c0 -95.333 -36 -178.666 -108 -249.999s-181 -107 -327 -107zM614 1008
c82.667 0 150 20 202 60s78 97.667 78 173s-26 133 -78 173s-119.333 60 -202 60c-82 0 -149 -20 -201 -60s-78 -97.667 -78 -173s26 -133 78 -173s119 -60 201 -60z" />
    <glyph glyph-name="guillemotright" unicode="&#xbb;" 
d="M602 636v-155l-383 -419l-113 109l312 388l-312 398l113 98zM1076 636v-155l-384 -419l-113 109l312 388l-312 398l113 98z" />
    <glyph glyph-name="onequarter" unicode="&#xbc;" 
d="M2 776v124h233v498l-233 -155v155l233 154h163v-652h116v-124h-512zM166 -47h-164l1057 1645h169zM1080 0h-155v155h-411v124l411 489h155v-489h148v-124h-148v-155zM925 279v293l-245 -293h245z" />
    <glyph glyph-name="onehalf" unicode="&#xbd;" 
d="M2 776v124h233v498l-233 -155v155l233 154h163v-652h116v-124h-512zM162 -47h-160l1058 1645h168zM1181 0h-550.998v124c0 20 16.333 51.167 49 93.5s89 91.833 169 148.5l60 42c57.333 40.667 91.333 69.667 102 87c10.667 16.667 16 36 16 58
c0 34 -13.667 57.667 -41 71s-57.666 20 -90.999 20c-54.667 0 -119.334 -20 -194.001 -60v130c89.333 36 165.666 54 228.999 54c79.333 0 141.166 -19.5 185.499 -58.5s66.5 -88.5 66.5 -148.5c0 -48.667 -17.667 -92.334 -53 -131.001
c-35.333 -39.333 -83.333 -78.666 -144 -117.999l-45 -30c-36.667 -24 -67 -47.333 -91 -70c-12 -11.333 -22.167 -22.5 -30.5 -33.5s-16.5 -29.167 -24.5 -54.5h388v-124z" />
    <glyph glyph-name="threequarters" unicode="&#xbe;" 
d="M126 1102l-0.000976562 124h81c92 0 148.167 12.167 168.5 36.5s30.5 47.5 30.5 69.5s-9.83301 43.333 -29.5 64s-52.167 31 -97.5 31c-46 0 -112.333 -13.333 -199 -40v122c88 28.667 168.333 43 241 43c86.667 0 148.334 -21 185.001 -63s55 -86 55 -132
c0 -36.667 -9.66699 -70.167 -29 -100.5s-48.666 -57.5 -87.999 -81.5c46.667 -18.667 81.667 -42.167 105 -70.5s35 -61.833 35 -100.5c0 -56 -25 -108 -75 -156s-124.333 -72 -223 -72c-68.667 0 -137.334 11 -206.001 33v138c95.333 -31.333 167.333 -47 216 -47
c36 0 67.167 8.83301 93.5 26.5s39.5 40.5 39.5 68.5c0 30.667 -14.833 56.167 -44.5 76.5s-91.5 30.5 -185.5 30.5h-73zM165.999 -47h-164l1057 1645h169zM1080 0h-155v155h-411v124l411 489h155v-489h148v-124h-148v-155zM924.999 279v293l-245 -293h245z" />
    <glyph glyph-name="questiondown" unicode="&#xbf;" 
d="M828 659l-0.000976562 -34.999c0 -54.667 -4.66699 -100.5 -14 -137.5s-27.333 -75.333 -54 -115s-66.334 -87.5 -119.001 -143.5l-62 -67c-11.333 -12 -28.666 -32.333 -51.999 -61l-66 -83c-55.333 -69.333 -83 -129.333 -83 -180c0 -46.667 20 -88 60 -124
s104.667 -54 194 -54c58 0 117.333 7.66699 178 23s131.334 45.666 212.001 90.999v-179c-124 -60.667 -253.333 -91 -388 -91c-149.333 0 -263 30.667 -341 92s-117 140.333 -117 237c0 96 50.333 196 151 300l67 68l77 80l72 73c26 30 48.833 63.833 68.5 101.5
s29.5 90.5 29.5 158.5v46h187zM724.999 853.001c-39.333 0 -73 14.168 -101 42.501s-42 62.166 -42 101.499s14 73 42 101s61.667 42 101 42c38.667 0 72.334 -13.833 101.001 -41.5s43 -61.5 43 -101.5s-14.333 -74 -43 -102s-62.334 -42 -101.001 -42z" />
    <glyph glyph-name="Agrave" unicode="&#xc0;" 
d="M227 0h-194l478 1552h205l481 -1552h-213l-106 341h-546zM380 496h453l-187 589l-44 156l-39 -156zM868 1722h-170l-342 326h216z" />
    <glyph glyph-name="Aacute" unicode="&#xc1;" 
d="M227 0h-194l478 1552h205l481 -1552h-213l-106 341h-546zM380 496h453l-187 589l-44 156l-39 -156zM356 1722l296 326h216l-342 -326h-170z" />
    <glyph glyph-name="Acircumflex" unicode="&#xc2;" 
d="M227 0h-194l478 1552h205l481 -1552h-213l-106 341h-546zM380 496h453l-187 589l-44 156l-39 -156zM615 1890l-140 -168h-155l233 326h124l233 -326h-156z" />
    <glyph glyph-name="Atilde" unicode="&#xc3;" 
d="M227 0h-194l478 1552h205l481 -1552h-213l-106 341h-546zM380 496h453l-187 589l-44 156l-39 -156zM423 1722l-124.998 -0.000976562c0 88 17.167 152.667 51.5 194s77.5 62 129.5 62c41.333 0 83.333 -13.333 126 -40l42 -25c55.333 -34.667 94 -52 116 -52
c40 0 60 39 60 117h127c-4 -68 -13 -117.667 -27 -149s-35.5 -57.166 -64.5 -77.499s-60.833 -30.5 -95.5 -30.5c-43.333 0 -90.333 16.333 -141 49l-44 28l-24 17c-22.667 15.333 -44.334 23 -65.001 23c-14.667 0 -29.334 -7.66699 -44.001 -23s-22 -46.333 -22 -93z" />
    <glyph glyph-name="Adieresis" unicode="&#xc4;" 
d="M227 0h-194l478 1552h205l481 -1552h-213l-106 341h-546zM380 496h453l-187 589l-44 156l-39 -156zM397 1722c-34 0 -63.167 12 -87.5 36s-36.5 53.333 -36.5 88s12.333 64 37 88s53.667 36 87 36s62.333 -12 87 -36s37 -53.333 37 -88s-12.167 -64 -36.5 -88
s-53.5 -36 -87.5 -36zM832 1722c-34 0 -63.333 12 -88 36s-37 53.333 -37 88s12.5 64 37.5 88s54.167 36 87.5 36s62.333 -12 87 -36s37 -53.333 37 -88s-12.333 -64 -37 -88s-53.667 -36 -87 -36z" />
    <glyph glyph-name="Aring" unicode="&#xc5;" 
d="M716 1552l481.002 -1552h-213l-106 341h-546l-105 -341h-194l478 1552c-28 20.667 -49 43.834 -63 69.501s-21 54.167 -21 85.5c0 50 18.167 93.5 54.5 130.5s80.166 55.5 131.499 55.5s95.166 -18.333 131.499 -55s54.5 -80.334 54.5 -131.001
c0 -30.667 -6.83301 -59 -20.5 -85s-34.5 -49.333 -62.5 -70zM380.002 496h453l-187 589l-44 156l-39 -156zM520.002 1707c0 -25.333 9.16699 -47.1641 27.5 -65.4971s40.166 -27.5 65.499 -27.5s47.166 9.16699 65.499 27.5s27.5 40.166 27.5 65.499
s-9.16699 47.166 -27.5 65.499s-40.166 27.5 -65.499 27.5s-47.166 -9.33301 -65.499 -28s-27.5 -40.334 -27.5 -65.001z" />
    <glyph glyph-name="AE" unicode="&#xc6;" 
d="M638 0v372h-314l-152 -372h-170l636 1552h543v-156h-357v-535h342v-155h-342v-535h357v-171h-543zM381 512h257v622z" />
    <glyph glyph-name="Ccedilla" unicode="&#xc7;" 
d="M1088 1534v-183.999c-107.333 62 -214 93 -320 93c-80 0 -153.167 -27.333 -219.5 -82s-119.833 -134.834 -160.5 -240.501s-61 -220.5 -61 -344.5c0 -126 21 -242.333 63 -349s95.667 -186.5 161 -239.5s137.666 -79.5 216.999 -79.5c105.333 0 212 31 320 93v-183
c-85.333 -30.667 -149.333 -49.5 -192 -56.5s-90.667 -10.5 -144 -10.5l-45 -82c71.333 -14 118 -35.833 140 -65.5s33 -60.5 33 -92.5c0 -36.667 -14.667 -70.167 -44 -100.5s-75.333 -45.5 -138 -45.5c-55.333 0 -108.333 9.33301 -159 28v89
c38.667 -20.667 78.334 -31 119.001 -31c23.333 0 44.333 7 63 21s28 28.667 28 44c0 45.333 -62 74.333 -186 87l88 160c-129.333 32.667 -232.5 87.5 -309.5 164.5s-133.5 166.667 -169.5 269s-54 221.5 -54 357.5c0 268.667 62.5 476.667 187.5 624
s281.833 221 470.5 221c92 0 196 -21.667 312 -65z" />
    <glyph glyph-name="Egrave" unicode="&#xc8;" 
d="M1041 171v-171h-838v1552h822v-156h-620v-527h558v-155h-558v-543h636zM879 1722h-170l-342 326h216z" />
    <glyph glyph-name="Eacute" unicode="&#xc9;" 
d="M1041 171v-171h-838v1552h822v-156h-620v-527h558v-155h-558v-543h636zM367 1722l296 326h216l-342 -326h-170z" />
    <glyph glyph-name="Ecircumflex" unicode="&#xca;" 
d="M1041 171v-171h-838v1552h822v-156h-620v-527h558v-155h-558v-543h636zM615 1890l-140 -168h-155l233 326h124l233 -326h-156z" />
    <glyph glyph-name="Edieresis" unicode="&#xcb;" 
d="M1041 171v-171h-838v1552h822v-156h-620v-527h558v-155h-558v-543h636zM405 1722c-34 0 -63.167 12 -87.5 36s-36.5 53.333 -36.5 88s12.333 64 37 88s53.667 36 87 36s62.333 -12 87 -36s37 -53.333 37 -88s-12.167 -64 -36.5 -88s-53.5 -36 -87.5 -36zM840 1722
c-34 0 -63.333 12 -88 36s-37 53.333 -37 88s12.5 64 37.5 88s54.167 36 87.5 36s62.333 -12 87 -36s37 -53.333 37 -88s-12.333 -64 -37 -88s-53.667 -36 -87 -36z" />
    <glyph glyph-name="Igrave" unicode="&#xcc;" 
d="M172 0v155h341v1241h-341v156h884v-156h-341v-1241h341v-155h-884zM871 1722h-170l-342 326h216z" />
    <glyph glyph-name="Iacute" unicode="&#xcd;" 
d="M172 0v155h341v1241h-341v156h884v-156h-341v-1241h341v-155h-884zM359 1722l296 326h216l-342 -326h-170z" />
    <glyph glyph-name="Icircumflex" unicode="&#xce;" 
d="M172 0v155h341v1241h-341v156h884v-156h-341v-1241h341v-155h-884zM615 1890l-140 -168h-155l233 326h124l233 -326h-156z" />
    <glyph glyph-name="Idieresis" unicode="&#xcf;" 
d="M172 0v155h341v1241h-341v156h884v-156h-341v-1241h341v-155h-884zM397 1722c-34 0 -63.167 12 -87.5 36s-36.5 53.333 -36.5 88s12.333 64 37 88s53.667 36 87 36s62.333 -12 87 -36s37 -53.333 37 -88s-12.167 -64 -36.5 -88s-53.5 -36 -87.5 -36zM832 1722
c-34 0 -63.333 12 -88 36s-37 53.333 -37 88s12.5 64 37.5 88s54.167 36 87.5 36s62.333 -12 87 -36s37 -53.333 37 -88s-12.333 -64 -37 -88s-53.667 -36 -87 -36z" />
    <glyph glyph-name="Eth" unicode="&#xd0;" 
d="M157 0v714h-155v155h155v683h368c182 0 309.333 -25.667 382 -77s131.334 -140.5 176.001 -267.5s67 -272.167 67 -435.5c0 -154.667 -22.333 -292.667 -67 -414s-103.334 -211.333 -176.001 -270s-186 -88 -340 -88h-410zM359 171h135c146 0 244.5 21.167 295.5 63.5
s90.333 109.833 118 202.5s41.5 215 41.5 367c0 148.667 -13.833 265.167 -41.5 349.5s-65.667 145.833 -114 184.5s-142.833 58 -283.5 58h-151v-527h248v-155h-248v-543z" />
    <glyph glyph-name="Ntilde" unicode="&#xd1;" 
d="M312 0h-186v1552h182l549 -1033l60 -154h5l-5 154v1033h186v-1552h-186l-534 1016l-75 163l4 -161v-1018zM423 1722l-124.998 -0.000976562c0 88 17.167 152.667 51.5 194s77.5 62 129.5 62c41.333 0 83.333 -13.333 126 -40l42 -25c55.333 -34.667 94 -52 116 -52
c40 0 60 39 60 117h127c-4 -68 -13 -117.667 -27 -149s-35.5 -57.166 -64.5 -77.499s-60.833 -30.5 -95.5 -30.5c-43.333 0 -90.333 16.333 -141 49l-44 28l-24 17c-22.667 15.333 -44.334 23 -65.001 23c-14.667 0 -29.334 -7.66699 -44.001 -23s-22 -46.333 -22 -93z" />
    <glyph glyph-name="Ograve" unicode="&#xd2;" 
d="M614 -47c-176 0 -310.5 74.167 -403.5 222.5s-139.5 348.5 -139.5 600.5c0 251.333 46.5 451.166 139.5 599.499s227.5 222.5 403.5 222.5c176.667 0 311.334 -74.167 404.001 -222.5s139 -348.166 139 -599.499c0 -252 -46.333 -452.167 -139 -600.5
s-227.334 -222.5 -404.001 -222.5zM614 109c97.333 0 178.5 55.167 243.5 165.5s97.5 277.5 97.5 501.5s-32.5 391.167 -97.5 501.5s-146.167 165.5 -243.5 165.5s-178.5 -55.167 -243.5 -165.5s-97.5 -277.5 -97.5 -501.5s32.5 -391.167 97.5 -501.5
s146.167 -165.5 243.5 -165.5zM871 1722h-170l-342 326h216z" />
    <glyph glyph-name="Oacute" unicode="&#xd3;" 
d="M614 -47c-176 0 -310.5 74.167 -403.5 222.5s-139.5 348.5 -139.5 600.5c0 251.333 46.5 451.166 139.5 599.499s227.5 222.5 403.5 222.5c176.667 0 311.334 -74.167 404.001 -222.5s139 -348.166 139 -599.499c0 -252 -46.333 -452.167 -139 -600.5
s-227.334 -222.5 -404.001 -222.5zM614 109c97.333 0 178.5 55.167 243.5 165.5s97.5 277.5 97.5 501.5s-32.5 391.167 -97.5 501.5s-146.167 165.5 -243.5 165.5s-178.5 -55.167 -243.5 -165.5s-97.5 -277.5 -97.5 -501.5s32.5 -391.167 97.5 -501.5
s146.167 -165.5 243.5 -165.5zM359 1722l296 326h216l-342 -326h-170z" />
    <glyph glyph-name="Ocircumflex" unicode="&#xd4;" 
d="M614 -47c-176 0 -310.5 74.167 -403.5 222.5s-139.5 348.5 -139.5 600.5c0 251.333 46.5 451.166 139.5 599.499s227.5 222.5 403.5 222.5c176.667 0 311.334 -74.167 404.001 -222.5s139 -348.166 139 -599.499c0 -252 -46.333 -452.167 -139 -600.5
s-227.334 -222.5 -404.001 -222.5zM614 109c97.333 0 178.5 55.167 243.5 165.5s97.5 277.5 97.5 501.5s-32.5 391.167 -97.5 501.5s-146.167 165.5 -243.5 165.5s-178.5 -55.167 -243.5 -165.5s-97.5 -277.5 -97.5 -501.5s32.5 -391.167 97.5 -501.5
s146.167 -165.5 243.5 -165.5zM615 1890l-140 -168h-155l233 326h124l233 -326h-156z" />
    <glyph glyph-name="Otilde" unicode="&#xd5;" 
d="M614 -47c-176 0 -310.5 74.167 -403.5 222.5s-139.5 348.5 -139.5 600.5c0 251.333 46.5 451.166 139.5 599.499s227.5 222.5 403.5 222.5c176.667 0 311.334 -74.167 404.001 -222.5s139 -348.166 139 -599.499c0 -252 -46.333 -452.167 -139 -600.5
s-227.334 -222.5 -404.001 -222.5zM614 109c97.333 0 178.5 55.167 243.5 165.5s97.5 277.5 97.5 501.5s-32.5 391.167 -97.5 501.5s-146.167 165.5 -243.5 165.5s-178.5 -55.167 -243.5 -165.5s-97.5 -277.5 -97.5 -501.5s32.5 -391.167 97.5 -501.5
s146.167 -165.5 243.5 -165.5zM414 1722l-124.998 -0.000976562c0 88 17.167 152.667 51.5 194s77.5 62 129.5 62c41.333 0 83.333 -13.333 126 -40l42 -25c55.333 -34.667 94 -52 116 -52c40 0 60 39 60 117h127c-4 -68 -13 -117.667 -27 -149s-35.5 -57.166 -64.5 -77.499
s-60.833 -30.5 -95.5 -30.5c-43.333 0 -90.333 16.333 -141 49l-44 28l-24 17c-22.667 15.333 -44.334 23 -65.001 23c-14.667 0 -29.334 -7.66699 -44.001 -23s-22 -46.333 -22 -93z" />
    <glyph glyph-name="Odieresis" unicode="&#xd6;" 
d="M614 -47c-176 0 -310.5 74.167 -403.5 222.5s-139.5 348.5 -139.5 600.5c0 251.333 46.5 451.166 139.5 599.499s227.5 222.5 403.5 222.5c176.667 0 311.334 -74.167 404.001 -222.5s139 -348.166 139 -599.499c0 -252 -46.333 -452.167 -139 -600.5
s-227.334 -222.5 -404.001 -222.5zM614 109c97.333 0 178.5 55.167 243.5 165.5s97.5 277.5 97.5 501.5s-32.5 391.167 -97.5 501.5s-146.167 165.5 -243.5 165.5s-178.5 -55.167 -243.5 -165.5s-97.5 -277.5 -97.5 -501.5s32.5 -391.167 97.5 -501.5
s146.167 -165.5 243.5 -165.5zM397 1722c-34 0 -63.167 12 -87.5 36s-36.5 53.333 -36.5 88s12.333 64 37 88s53.667 36 87 36s62.333 -12 87 -36s37 -53.333 37 -88s-12.167 -64 -36.5 -88s-53.5 -36 -87.5 -36zM832 1722c-34 0 -63.333 12 -88 36s-37 53.333 -37 88
s12.5 64 37.5 88s54.167 36 87.5 36s62.333 -12 87 -36s37 -53.333 37 -88s-12.333 -64 -37 -88s-53.667 -36 -87 -36z" />
    <glyph glyph-name="multiply" unicode="&#xd7;" 
d="M1044 0l-429 436l-431 -436l-113 112l435 429l-435 438l113 107l431 -430l429 430l113 -107l-432 -438l432 -429z" />
    <glyph glyph-name="Oslash" unicode="&#xd8;" 
d="M209 -109l-137.999 0.00195312l148 276c-42 66.667 -72 129.834 -90 189.501s-32.167 125.834 -42.5 198.501s-15.5 149.334 -15.5 230.001c0 265.333 49.167 467.166 147.5 605.499s228.5 207.5 390.5 207.5c36 0 73.167 -3.83301 111.5 -11.5
s72.5 -17.834 102.5 -30.501s66 -35.334 108 -68.001l93 172h133l-142 -273c40.667 -68.667 69.667 -130.334 87 -185.001s30.833 -121.834 40.5 -201.501s14.5 -158.167 14.5 -235.5c0 -166 -22.167 -311.333 -66.5 -436s-104.333 -218.5 -180 -281.5
s-177.834 -94.5 -306.501 -94.5c-54.667 0 -102.5 6.33301 -143.5 19s-92.5 45 -154.5 97zM321.001 360.002l524.998 968.998c-41.333 48.667 -81.166 79.834 -119.499 93.501s-75.833 20.5 -112.5 20.5c-102.667 0 -185.167 -58.167 -247.5 -174.5
s-93.5 -276.166 -93.5 -479.499c0 -32 1 -80.833 3 -146.5s5.83301 -115.5 11.5 -149.5s16.834 -78.333 33.501 -133zM910.999 1195l-521 -969.999c35.333 -44 71.5 -74.333 108.5 -91s73.833 -25 110.5 -25c116 0 202.667 61.5 260 184.5s86 284.167 86 483.5
c0 34.667 -1 80.667 -3 138s-5.5 104.166 -10.5 140.499s-15.167 82.833 -30.5 139.5z" />
    <glyph glyph-name="Ugrave" unicode="&#xd9;" 
d="M126 1552l202 0.000976562v-1019c0 -134 11.167 -225.5 33.5 -274.5s56.666 -86.333 102.999 -112s97.833 -38.5 154.5 -38.5c60 0 113.5 13.833 160.5 41.5s81.667 71 104 130s33.5 169.833 33.5 332.5v940h186v-1013c0 -144.667 -21.5 -257.834 -64.5 -339.501
s-99.167 -143.167 -168.5 -184.5s-156.666 -62 -261.999 -62c-97.333 0 -183 18 -257 54s-130 90 -168 162s-57 202 -57 390v993zM871 1722h-170l-342 326h216z" />
    <glyph glyph-name="Uacute" unicode="&#xda;" 
d="M126 1552l202 0.000976562v-1019c0 -134 11.167 -225.5 33.5 -274.5s56.666 -86.333 102.999 -112s97.833 -38.5 154.5 -38.5c60 0 113.5 13.833 160.5 41.5s81.667 71 104 130s33.5 169.833 33.5 332.5v940h186v-1013c0 -144.667 -21.5 -257.834 -64.5 -339.501
s-99.167 -143.167 -168.5 -184.5s-156.666 -62 -261.999 -62c-97.333 0 -183 18 -257 54s-130 90 -168 162s-57 202 -57 390v993zM359 1722l296 326h216l-342 -326h-170z" />
    <glyph glyph-name="Ucircumflex" unicode="&#xdb;" 
d="M126 1552l202 0.000976562v-1019c0 -134 11.167 -225.5 33.5 -274.5s56.666 -86.333 102.999 -112s97.833 -38.5 154.5 -38.5c60 0 113.5 13.833 160.5 41.5s81.667 71 104 130s33.5 169.833 33.5 332.5v940h186v-1013c0 -144.667 -21.5 -257.834 -64.5 -339.501
s-99.167 -143.167 -168.5 -184.5s-156.666 -62 -261.999 -62c-97.333 0 -183 18 -257 54s-130 90 -168 162s-57 202 -57 390v993zM615 1890l-140 -168h-155l233 326h124l233 -326h-156z" />
    <glyph glyph-name="Udieresis" unicode="&#xdc;" 
d="M126 1552l202 0.000976562v-1019c0 -134 11.167 -225.5 33.5 -274.5s56.666 -86.333 102.999 -112s97.833 -38.5 154.5 -38.5c60 0 113.5 13.833 160.5 41.5s81.667 71 104 130s33.5 169.833 33.5 332.5v940h186v-1013c0 -144.667 -21.5 -257.834 -64.5 -339.501
s-99.167 -143.167 -168.5 -184.5s-156.666 -62 -261.999 -62c-97.333 0 -183 18 -257 54s-130 90 -168 162s-57 202 -57 390v993zM397 1722c-34 0 -63.167 12 -87.5 36s-36.5 53.333 -36.5 88s12.333 64 37 88s53.667 36 87 36s62.333 -12 87 -36s37 -53.333 37 -88
s-12.167 -64 -36.5 -88s-53.5 -36 -87.5 -36zM832 1722c-34 0 -63.333 12 -88 36s-37 53.333 -37 88s12.5 64 37.5 88s54.167 36 87.5 36s62.333 -12 87 -36s37 -53.333 37 -88s-12.333 -64 -37 -88s-53.667 -36 -87 -36z" />
    <glyph glyph-name="Yacute" unicode="&#xdd;" 
d="M514 0v718l-462 834h229l345 -616l344 616h207l-461 -834v-718h-202zM359 1722l296 326h216l-342 -326h-170z" />
    <glyph glyph-name="Thorn" unicode="&#xde;" 
d="M378 303l-0.00195312 -302.999h-202v1552h202v-264h184c158.667 0 274.334 -17.833 347.001 -53.5s128.334 -87.834 167.001 -156.501s58 -145 58 -229c0 -100 -26 -193 -78 -279s-124.5 -152 -217.5 -198s-219.167 -69 -378.5 -69h-82zM377.998 458.001
l86.998 0.000976562c124.667 0 217.334 16 278.001 48s107.334 78.5 140.001 139.5s49 126.5 49 196.5c0 89.333 -29.167 160.166 -87.5 212.499s-173.5 78.5 -345.5 78.5h-121v-675z" />
    <glyph glyph-name="germandbls" unicode="&#xdf;" 
d="M130 0l-0.000976562 1122c0 132 19.167 233.167 57.5 303.5s92 124.5 161 162.5s152.167 57 249.5 57c127.333 0 219.5 -29.833 276.5 -89.5s85.5 -122.167 85.5 -187.5c0 -41.333 -11.667 -81.833 -35 -121.5s-69.333 -89.167 -138 -148.5l-68 -58
c-13.333 -11.333 -33.333 -29.833 -60 -55.5s-40 -51.834 -40 -78.501c0 -18.667 4 -34.667 12 -48s31.667 -34.333 71 -63l64 -47l126 -87c70.667 -48 129.667 -100.333 177 -157c46.667 -56.667 70 -123.334 70 -200.001c0 -97.333 -37.667 -177.5 -113 -240.5
s-171.666 -94.5 -288.999 -94.5c-25.333 0 -55.666 1.16699 -90.999 3.5s-62.833 4.83301 -82.5 7.5s-47.834 9.33398 -84.501 20.001v185c40 -17.333 74 -29.5 102 -36.5s56 -12.833 84 -17.5s51.333 -7 70 -7c33.333 0 68.333 6 105 18s64.5 31.5 83.5 58.5
s28.5 54.5 28.5 82.5c0 41.333 -16 82 -48 122c-32.667 40 -87 85.333 -163 136l-120 80c-61.333 41.333 -109.333 81.833 -144 121.5s-52 84.167 -52 133.5c0 36.667 9.83301 72.667 29.5 108s63.167 84 130.5 146l59 55c32 29.333 59 58.5 81 87.5s33 59.167 33 90.5
c0 43.333 -20.667 75.166 -62 95.499s-82 30.5 -122 30.5c-46 0 -88.5 -11.167 -127.5 -33.5s-70.5 -56.333 -94.5 -102s-36 -122.834 -36 -231.501v-1122h-186z" />
    <glyph glyph-name="agrave" unicode="&#xe0;" 
d="M889 251c-56.667 -93.333 -124.831 -163.667 -204.498 -211s-152.834 -71 -219.501 -71c-93.333 0 -177.166 40.333 -251.499 121s-111.5 203 -111.5 367c0 129.333 24.667 244.833 74 346.5s115.333 182 198 241s185 88.5 307 88.5
c35.333 0 88.666 -3.66699 159.999 -11c10.667 -1.33301 26.667 -3 48 -5h187v-789c0 -134.667 14 -244 42 -328h-194c-14.667 61.333 -26.334 145 -35.001 251zM889.003 471.999v479.001c-66 17.333 -127.333 26 -184 26c-114.667 0 -210.167 -44.333 -286.5 -133
s-114.5 -209.334 -114.5 -362.001c0 -110.667 20.833 -194.167 62.5 -250.5s89.167 -84.5 142.5 -84.5c58 0 122 29.333 192 88s132.667 137.667 188 237zM898.003 1288h-170l-342 326h216z" />
    <glyph glyph-name="aacute" unicode="&#xe1;" 
d="M889 251c-56.667 -93.333 -124.831 -163.667 -204.498 -211s-152.834 -71 -219.501 -71c-93.333 0 -177.166 40.333 -251.499 121s-111.5 203 -111.5 367c0 129.333 24.667 244.833 74 346.5s115.333 182 198 241s185 88.5 307 88.5
c35.333 0 88.666 -3.66699 159.999 -11c10.667 -1.33301 26.667 -3 48 -5h187v-789c0 -134.667 14 -244 42 -328h-194c-14.667 61.333 -26.334 145 -35.001 251zM889.003 471.999v479.001c-66 17.333 -127.333 26 -184 26c-114.667 0 -210.167 -44.333 -286.5 -133
s-114.5 -209.334 -114.5 -362.001c0 -110.667 20.833 -194.167 62.5 -250.5s89.167 -84.5 142.5 -84.5c58 0 122 29.333 192 88s132.667 137.667 188 237zM479.003 1288l296 326h216l-342 -326h-170z" />
    <glyph glyph-name="acircumflex" unicode="&#xe2;" 
d="M889 251c-56.667 -93.333 -124.831 -163.667 -204.498 -211s-152.834 -71 -219.501 -71c-93.333 0 -177.166 40.333 -251.499 121s-111.5 203 -111.5 367c0 129.333 24.667 244.833 74 346.5s115.333 182 198 241s185 88.5 307 88.5
c35.333 0 88.666 -3.66699 159.999 -11c10.667 -1.33301 26.667 -3 48 -5h187v-789c0 -134.667 14 -244 42 -328h-194c-14.667 61.333 -26.334 145 -35.001 251zM889.003 471.999v479.001c-66 17.333 -127.333 26 -184 26c-114.667 0 -210.167 -44.333 -286.5 -133
s-114.5 -209.334 -114.5 -362.001c0 -110.667 20.833 -194.167 62.5 -250.5s89.167 -84.5 142.5 -84.5c58 0 122 29.333 192 88s132.667 137.667 188 237zM704.003 1456l-140 -168h-155l233 326h124l233 -326h-156z" />
    <glyph glyph-name="atilde" unicode="&#xe3;" 
d="M889 251c-56.667 -93.333 -124.831 -163.667 -204.498 -211s-152.834 -71 -219.501 -71c-93.333 0 -177.166 40.333 -251.499 121s-111.5 203 -111.5 367c0 129.333 24.667 244.833 74 346.5s115.333 182 198 241s185 88.5 307 88.5
c35.333 0 88.666 -3.66699 159.999 -11c10.667 -1.33301 26.667 -3 48 -5h187v-789c0 -134.667 14 -244 42 -328h-194c-14.667 61.333 -26.334 145 -35.001 251zM889.003 471.999v479.001c-66 17.333 -127.333 26 -184 26c-114.667 0 -210.167 -44.333 -286.5 -133
s-114.5 -209.334 -114.5 -362.001c0 -110.667 20.833 -194.167 62.5 -250.5s89.167 -84.5 142.5 -84.5c58 0 122 29.333 192 88s132.667 137.667 188 237zM457.003 1288l-124.998 -0.000976562c0 88 17.167 152.667 51.5 194s77.5 62 129.5 62
c41.333 0 83.333 -13.333 126 -40l42 -25c55.333 -34.667 94 -52 116 -52c40 0 60 39 60 117h127c-4 -68 -13 -117.667 -27 -149s-35.5 -57.166 -64.5 -77.499s-60.833 -30.5 -95.5 -30.5c-43.333 0 -90.333 16.333 -141 49l-44 28l-24 17
c-22.667 15.333 -44.334 23 -65.001 23c-14.667 0 -29.334 -7.66699 -44.001 -23s-22 -46.333 -22 -93z" />
    <glyph glyph-name="adieresis" unicode="&#xe4;" 
d="M889 251c-56.667 -93.333 -124.831 -163.667 -204.498 -211s-152.834 -71 -219.501 -71c-93.333 0 -177.166 40.333 -251.499 121s-111.5 203 -111.5 367c0 129.333 24.667 244.833 74 346.5s115.333 182 198 241s185 88.5 307 88.5
c35.333 0 88.666 -3.66699 159.999 -11c10.667 -1.33301 26.667 -3 48 -5h187v-789c0 -134.667 14 -244 42 -328h-194c-14.667 61.333 -26.334 145 -35.001 251zM889.003 471.999v479.001c-66 17.333 -127.333 26 -184 26c-114.667 0 -210.167 -44.333 -286.5 -133
s-114.5 -209.334 -114.5 -362.001c0 -110.667 20.833 -194.167 62.5 -250.5s89.167 -84.5 142.5 -84.5c58 0 122 29.333 192 88s132.667 137.667 188 237zM455.003 1288c-34 0 -63.167 12 -87.5 36s-36.5 53.333 -36.5 88s12.333 64 37 88s53.667 36 87 36
s62.333 -12 87 -36s37 -53.333 37 -88s-12.167 -64 -36.5 -88s-53.5 -36 -87.5 -36zM890.003 1288c-34 0 -63.333 12 -88 36s-37 53.333 -37 88s12.5 64 37.5 88s54.167 36 87.5 36s62.333 -12 87 -36s37 -53.333 37 -88s-12.333 -64 -37 -88s-53.667 -36 -87 -36z" />
    <glyph glyph-name="aring" unicode="&#xe5;" 
d="M889 251c-56.667 -93.333 -124.831 -163.667 -204.498 -211s-152.834 -71 -219.501 -71c-93.333 0 -177.166 40.333 -251.499 121s-111.5 203 -111.5 367c0 129.333 24.667 244.833 74 346.5s115.333 182 198 241s185 88.5 307 88.5
c35.333 0 88.666 -3.66699 159.999 -11c10.667 -1.33301 26.667 -3 48 -5h187v-789c0 -134.667 14 -244 42 -328h-194c-14.667 61.333 -26.334 145 -35.001 251zM889.003 471.999v479.001c-66 17.333 -127.333 26 -184 26c-114.667 0 -210.167 -44.333 -286.5 -133
s-114.5 -209.334 -114.5 -362.001c0 -110.667 20.833 -194.167 62.5 -250.5s89.167 -84.5 142.5 -84.5c58 0 122 29.333 192 88s132.667 137.667 188 237zM657.003 1381c26 0 48 9.16699 66 27.5s27 40.166 27 65.499s-9 47.166 -27 65.499s-40 27.5 -66 27.5
c-25.333 0 -47.166 -9.16699 -65.499 -27.5s-27.5 -40.166 -27.5 -65.499s9.16699 -47.166 27.5 -65.499s40.166 -27.5 65.499 -27.5zM657.003 1288c-52 0 -95.999 18.667 -131.999 56s-54 80.666 -54 129.999c0 50 18.167 93.5 54.5 130.5s80.166 55.5 131.499 55.5
c52 0 96 -18.5 132 -55.5s54 -80.5 54 -130.5c0 -49.333 -18 -92.666 -54 -129.999s-80 -56 -132 -56z" />
    <glyph glyph-name="ae" unicode="&#xe6;" 
d="M592 226c-34.667 -86.667 -74.6699 -151.167 -120.003 -193.5s-89.333 -63.5 -132 -63.5c-74.667 0 -139.334 48 -194.001 144s-82 219.333 -82 370c0 133.333 18.5 249.833 55.5 349.5s86.333 177.167 148 232.5s127.834 83 198.501 83
c23.333 0 48.166 -2.5 74.499 -7.5s50 -11.333 71 -19s47.5 -22.5 79.5 -44.5c48.667 36 86.334 56.833 113.001 62.5s50.334 8.5 71.001 8.5c84.667 0 154.334 -37.833 209.001 -113.5s82 -225.5 82 -449.5v-50h-404v-83c0 -98.667 7.5 -168.167 22.5 -208.5
s36.5 -70.333 64.5 -90s59.333 -29.5 94 -29.5c67.333 0 141.666 26.333 222.999 79v-170c-94 -42.667 -178.667 -64 -254 -64c-49.333 0 -94.666 8.5 -135.999 25.5s-77.166 42.5 -107.499 76.5s-55.833 85.667 -76.5 155zM575.997 470v489.001
c-16 11.333 -31.667 19.833 -47 25.5s-30.333 8.5 -45 8.5c-78 0 -136.5 -55 -175.5 -165s-58.5 -231.667 -58.5 -365c0 -78.667 11 -146.334 33 -203.001s50 -84 84 -82c70 4.66699 139.667 102 209 292zM761.997 667.001l217.001 0.000976562v32
c0 117.333 -9 195.666 -27 234.999s-44.333 59 -79 59c-36.667 0 -64.334 -24.5 -83.001 -73.5s-28 -122.5 -28 -220.5v-32z" />
    <glyph glyph-name="ccedilla" unicode="&#xe7;" 
d="M702 -131c72 -14 118.999 -35.834 140.999 -65.501s33 -60.5 33 -92.5c0 -36.667 -14.833 -70.167 -44.5 -100.5s-75.5 -45.5 -137.5 -45.5c-55.333 0 -108.333 9.33301 -159 28v89c38.667 -20.667 78 -31 118 -31c24 0 45.167 7 63.5 21s27.5 28.667 27.5 44
c0 45.333 -61.667 74.333 -185 87l93 169c-110 18.667 -200.667 56 -272 112s-125.166 121.5 -161.499 196.5s-54.5 163.833 -54.5 266.5c0 181.333 56.333 326.833 169 436.5s244.667 164.5 396 164.5c115.333 0 237.333 -21.667 366 -65v-179
c-130 59.333 -246.333 89 -349 89c-68 0 -132 -16.833 -192 -50.5s-106.333 -86.167 -139 -157.5s-49 -144.666 -49 -219.999c0 -100.667 31.5 -196.667 94.5 -288s161.833 -137 296.5 -137c40.667 0 80.667 2.83301 120 8.5s112 26.5 218 62.5v-179
c-104 -37.333 -216.667 -59.333 -338 -66z" />
    <glyph glyph-name="egrave" unicode="&#xe8;" 
d="M1084 74c-148.667 -70.667 -289.332 -106 -421.999 -106c-100.667 0 -190.667 25 -270 75s-142.833 121.5 -190.5 214.5s-71.5 192.5 -71.5 298.5c0 102 22.667 200 68 294s108.666 167.167 189.999 219.5s172 78.5 272 78.5c132.667 0 239.167 -47.333 319.5 -142
s120.5 -240.667 120.5 -438v-40h-770c0 -77.333 16.167 -148 48.5 -212s74.833 -112 127.5 -144s112.667 -48 180 -48c120 0 252.667 40 398 120v-170zM341.002 667h557.001v27c0 91.333 -22.333 164 -67 218s-104.334 81 -179.001 81c-75.333 0 -140.5 -27.5 -195.5 -82.5
s-93.5 -136.167 -115.5 -243.5zM910.003 1288h-170l-342 326h216z" />
    <glyph glyph-name="eacute" unicode="&#xe9;" 
d="M1084 74c-148.667 -70.667 -289.332 -106 -421.999 -106c-100.667 0 -190.667 25 -270 75s-142.833 121.5 -190.5 214.5s-71.5 192.5 -71.5 298.5c0 102 22.667 200 68 294s108.666 167.167 189.999 219.5s172 78.5 272 78.5c132.667 0 239.167 -47.333 319.5 -142
s120.5 -240.667 120.5 -438v-40h-770c0 -77.333 16.167 -148 48.5 -212s74.833 -112 127.5 -144s112.667 -48 180 -48c120 0 252.667 40 398 120v-170zM341.002 667h557.001v27c0 91.333 -22.333 164 -67 218s-104.334 81 -179.001 81c-75.333 0 -140.5 -27.5 -195.5 -82.5
s-93.5 -136.167 -115.5 -243.5zM444.003 1288l296 326h216l-342 -326h-170z" />
    <glyph glyph-name="ecircumflex" unicode="&#xea;" 
d="M1084 74c-148.667 -70.667 -289.332 -106 -421.999 -106c-100.667 0 -190.667 25 -270 75s-142.833 121.5 -190.5 214.5s-71.5 192.5 -71.5 298.5c0 102 22.667 200 68 294s108.666 167.167 189.999 219.5s172 78.5 272 78.5c132.667 0 239.167 -47.333 319.5 -142
s120.5 -240.667 120.5 -438v-40h-770c0 -77.333 16.167 -148 48.5 -212s74.833 -112 127.5 -144s112.667 -48 180 -48c120 0 252.667 40 398 120v-170zM341.002 667h557.001v27c0 91.333 -22.333 164 -67 218s-104.334 81 -179.001 81c-75.333 0 -140.5 -27.5 -195.5 -82.5
s-93.5 -136.167 -115.5 -243.5zM654.003 1456l-140 -168h-155l233 326h124l233 -326h-156z" />
    <glyph glyph-name="edieresis" unicode="&#xeb;" 
d="M1084 74c-148.667 -70.667 -289.332 -106 -421.999 -106c-100.667 0 -190.667 25 -270 75s-142.833 121.5 -190.5 214.5s-71.5 192.5 -71.5 298.5c0 102 22.667 200 68 294s108.666 167.167 189.999 219.5s172 78.5 272 78.5c132.667 0 239.167 -47.333 319.5 -142
s120.5 -240.667 120.5 -438v-40h-770c0 -77.333 16.167 -148 48.5 -212s74.833 -112 127.5 -144s112.667 -48 180 -48c120 0 252.667 40 398 120v-170zM341.002 667h557.001v27c0 91.333 -22.333 164 -67 218s-104.334 81 -179.001 81c-75.333 0 -140.5 -27.5 -195.5 -82.5
s-93.5 -136.167 -115.5 -243.5zM451.003 1288c-34 0 -63.167 12 -87.5 36s-36.5 53.333 -36.5 88s12.333 64 37 88s53.667 36 87 36s62.333 -12 87 -36s37 -53.333 37 -88s-12.167 -64 -36.5 -88s-53.5 -36 -87.5 -36zM886.003 1288c-34 0 -63.333 12 -88 36
s-37 53.333 -37 88s12.5 64 37.5 88s54.167 36 87.5 36s62.333 -12 87 -36s37 -53.333 37 -88s-12.333 -64 -37 -88s-53.667 -36 -87 -36z" />
    <glyph glyph-name="igrave" unicode="&#xec;" 
d="M467 0v962h-310v155h496v-962h311v-155h-497zM824 1288h-170l-342 326h216z" />
    <glyph glyph-name="iacute" unicode="&#xed;" 
d="M467 0v962h-310v155h496v-962h311v-155h-497zM312 1288l296 326h216l-342 -326h-170z" />
    <glyph glyph-name="icircumflex" unicode="&#xee;" 
d="M467 0v962h-310v155h496v-962h311v-155h-497zM569 1456l-140 -168h-155l233 326h124l233 -326h-156z" />
    <glyph glyph-name="idieresis" unicode="&#xef;" 
d="M467 0v962h-310v155h496v-962h311v-155h-497zM351 1288c-34 0 -63.167 12 -87.5 36s-36.5 53.333 -36.5 88s12.333 64 37 88s53.667 36 87 36s62.333 -12 87 -36s37 -53.333 37 -88s-12.167 -64 -36.5 -88s-53.5 -36 -87.5 -36zM786 1288c-34 0 -63.333 12 -88 36
s-37 53.333 -37 88s12.5 64 37.5 88s54.167 36 87.5 36s62.333 -12 87 -36s37 -53.333 37 -88s-12.333 -64 -37 -88s-53.667 -36 -87 -36z" />
    <glyph glyph-name="eth" unicode="&#xf0;" 
d="M886 991c-25.333 64.667 -57.4971 124.666 -96.4971 179.999s-98.833 113 -179.5 173l-225 -204l-103 117l181 161c-85.333 26.667 -174 40 -266 40h-25v156h34c79.333 0 149.666 -3.66699 210.999 -11s125.666 -25.333 192.999 -54l215 195l103 -116l-178 -160
c100 -80.667 176.5 -163.167 229.5 -247.5s93.333 -180.333 121 -288s41.5 -214.167 41.5 -319.5c0 -196 -46 -352.333 -138 -469s-222.667 -175 -392 -175c-158 0 -285 52.833 -381 158.5s-144 241.834 -144 408.501c0 111.333 22 208 66 290s106.667 145.833 188 191.5
s166.666 68.5 255.999 68.5c37.333 0 77 -4.5 119 -13.5s98.667 -36.167 170 -81.5zM615.003 123.999c98 0 178 37.833 240 113.5s93 172.5 93 290.5c0 117.333 -31 213.833 -93 289.5s-142 113.5 -240 113.5c-98.667 0 -179 -37.833 -241 -113.5s-93 -172.167 -93 -289.5
c0 -118 31 -214.833 93 -290.5s142.333 -113.5 241 -113.5z" />
    <glyph glyph-name="ntilde" unicode="&#xf1;" 
d="M157 0l0.00292969 1117h186v-244c53.333 86 117.666 153.333 192.999 202s150.666 73 225.999 73c66 0 126 -17.5 180 -52.5s91.833 -80.833 113.5 -137.5s32.5 -168 32.5 -334v-624h-186v647c0 107.333 -5.16699 178.166 -15.5 212.499s-29.333 62.5 -57 84.5
s-57.834 33 -90.501 33c-65.333 0 -135.5 -31 -210.5 -93s-136.833 -139.667 -185.5 -233v-651h-186zM430.003 1288l-124.998 -0.000976562c0 88 17.167 152.667 51.5 194s77.5 62 129.5 62c41.333 0 83.333 -13.333 126 -40l42 -25c55.333 -34.667 94 -52 116 -52
c40 0 60 39 60 117h127c-4 -68 -13 -117.667 -27 -149s-35.5 -57.166 -64.5 -77.499s-60.833 -30.5 -95.5 -30.5c-43.333 0 -90.333 16.333 -141 49l-44 28l-24 17c-22.667 15.333 -44.334 23 -65.001 23c-14.667 0 -29.334 -7.66699 -44.001 -23s-22 -46.333 -22 -93z" />
    <glyph glyph-name="ograve" unicode="&#xf2;" 
d="M615 -31c-160 0 -288 55.833 -384 167.5s-144 252.5 -144 422.5s48 310.667 144 422s224 167 384 167c159.333 0 287 -55.667 383 -167s144 -252 144 -422s-48 -310.833 -144 -422.5s-223.667 -167.5 -383 -167.5zM615 124c99.333 0 178.333 38.667 237 116
s88 183.666 88 318.999c0 134.667 -29.333 240.667 -88 318s-137.667 116 -237 116c-100 0 -179.333 -38.667 -238 -116s-88 -183.333 -88 -318c0 -135.333 29.333 -241.666 88 -318.999s138 -116 238 -116zM871 1288h-170l-342 326h216z" />
    <glyph glyph-name="oacute" unicode="&#xf3;" 
d="M615 -31c-160 0 -288 55.833 -384 167.5s-144 252.5 -144 422.5s48 310.667 144 422s224 167 384 167c159.333 0 287 -55.667 383 -167s144 -252 144 -422s-48 -310.833 -144 -422.5s-223.667 -167.5 -383 -167.5zM615 124c99.333 0 178.333 38.667 237 116
s88 183.666 88 318.999c0 134.667 -29.333 240.667 -88 318s-137.667 116 -237 116c-100 0 -179.333 -38.667 -238 -116s-88 -183.333 -88 -318c0 -135.333 29.333 -241.666 88 -318.999s138 -116 238 -116zM359 1288l296 326h216l-342 -326h-170z" />
    <glyph glyph-name="ocircumflex" unicode="&#xf4;" 
d="M615 -31c-160 0 -288 55.833 -384 167.5s-144 252.5 -144 422.5s48 310.667 144 422s224 167 384 167c159.333 0 287 -55.667 383 -167s144 -252 144 -422s-48 -310.833 -144 -422.5s-223.667 -167.5 -383 -167.5zM615 124c99.333 0 178.333 38.667 237 116
s88 183.666 88 318.999c0 134.667 -29.333 240.667 -88 318s-137.667 116 -237 116c-100 0 -179.333 -38.667 -238 -116s-88 -183.333 -88 -318c0 -135.333 29.333 -241.666 88 -318.999s138 -116 238 -116zM615 1456l-140 -168h-155l233 326h124l233 -326h-156z" />
    <glyph glyph-name="otilde" unicode="&#xf5;" 
d="M615 -31c-160 0 -288 55.833 -384 167.5s-144 252.5 -144 422.5s48 310.667 144 422s224 167 384 167c159.333 0 287 -55.667 383 -167s144 -252 144 -422s-48 -310.833 -144 -422.5s-223.667 -167.5 -383 -167.5zM615 124c99.333 0 178.333 38.667 237 116
s88 183.666 88 318.999c0 134.667 -29.333 240.667 -88 318s-137.667 116 -237 116c-100 0 -179.333 -38.667 -238 -116s-88 -183.333 -88 -318c0 -135.333 29.333 -241.666 88 -318.999s138 -116 238 -116zM414 1288l-124.998 -0.000976562c0 88 17.167 152.667 51.5 194
s77.5 62 129.5 62c41.333 0 83.333 -13.333 126 -40l42 -25c55.333 -34.667 94 -52 116 -52c40 0 60 39 60 117h127c-4 -68 -13 -117.667 -27 -149s-35.5 -57.166 -64.5 -77.499s-60.833 -30.5 -95.5 -30.5c-43.333 0 -90.333 16.333 -141 49l-44 28l-24 17
c-22.667 15.333 -44.334 23 -65.001 23c-14.667 0 -29.334 -7.66699 -44.001 -23s-22 -46.333 -22 -93z" />
    <glyph glyph-name="odieresis" unicode="&#xf6;" 
d="M615 -31c-160 0 -288 55.833 -384 167.5s-144 252.5 -144 422.5s48 310.667 144 422s224 167 384 167c159.333 0 287 -55.667 383 -167s144 -252 144 -422s-48 -310.833 -144 -422.5s-223.667 -167.5 -383 -167.5zM615 124c99.333 0 178.333 38.667 237 116
s88 183.666 88 318.999c0 134.667 -29.333 240.667 -88 318s-137.667 116 -237 116c-100 0 -179.333 -38.667 -238 -116s-88 -183.333 -88 -318c0 -135.333 29.333 -241.666 88 -318.999s138 -116 238 -116zM397 1288c-34 0 -63.167 12 -87.5 36s-36.5 53.333 -36.5 88
s12.333 64 37 88s53.667 36 87 36s62.333 -12 87 -36s37 -53.333 37 -88s-12.167 -64 -36.5 -88s-53.5 -36 -87.5 -36zM832 1288c-34 0 -63.333 12 -88 36s-37 53.333 -37 88s12.5 64 37.5 88s54.167 36 87.5 36s62.333 -12 87 -36s37 -53.333 37 -88s-12.333 -64 -37 -88
s-53.667 -36 -87 -36z" />
    <glyph glyph-name="divide" unicode="&#xf7;" 
d="M614 776c-38 0 -71.333 14.333 -100 43s-43 62 -43 100c0 38.667 14.333 72.334 43 101.001s62 43 100 43s71.5 -14.333 100.5 -43s43.5 -62.334 43.5 -101.001c0 -38 -14.5 -71.333 -43.5 -100s-62.5 -43 -100.5 -43zM1157 621v-156h-1086v156h1086zM614 23
c-38 0 -71.333 14.333 -100 43s-43 62.334 -43 101.001s14.333 72.167 43 100.5s62 42.5 100 42.5s71.5 -14.167 100.5 -42.5s43.5 -61.833 43.5 -100.5s-14.5 -72.334 -43.5 -101.001s-62.5 -43 -100.5 -43z" />
    <glyph glyph-name="oslash" unicode="&#xf8;" 
d="M236 -93l-148.998 0.000976562l150 221c-100 126 -150 271.333 -150 436c0 162 45 299.833 135 413.5s220.333 170.5 391 170.5c33.333 0 66.666 -2.33301 99.999 -7s63.166 -11.334 89.499 -20.001s58.166 -24 95.499 -46l94 135h150l-149 -215
c99.333 -128.667 149 -274 149 -436c0 -158 -44 -295.833 -132 -413.5s-220 -176.5 -396 -176.5c-42 0 -83.167 3.5 -123.5 10.5s-93.166 28.5 -158.499 64.5zM341.002 280.001l463.999 663c-59.333 33.333 -122.666 50 -189.999 50c-106 0 -186.833 -38.5 -242.5 -115.5
s-83.5 -181.5 -83.5 -313.5c0 -100 17.333 -194.667 52 -284zM889.001 845.001l-465 -668c64 -35.333 124.333 -53 181 -53c122 0 208.333 40.833 259 122.5s76 184.167 76 307.5c0 106.667 -17 203.667 -51 291z" />
    <glyph glyph-name="ugrave" unicode="&#xf9;" 
d="M1074 1117l-0.00292969 -1117h-186v245c-60 -92 -126.667 -161 -200 -207s-146.666 -69 -219.999 -69c-65.333 0 -125.166 17.5 -179.499 52.5s-92.166 81 -113.499 138s-32 168.167 -32 333.5v624h186v-647c0 -107.333 5.16699 -178.166 15.5 -212.499
s29.333 -62.5 57 -84.5s57.5 -33 89.5 -33c65.333 0 135.5 30.833 210.5 92.5s137.167 139.5 186.5 233.5v651h186zM871.997 1288h-170l-342 326h216z" />
    <glyph glyph-name="uacute" unicode="&#xfa;" 
d="M1074 1117l-0.00292969 -1117h-186v245c-60 -92 -126.667 -161 -200 -207s-146.666 -69 -219.999 -69c-65.333 0 -125.166 17.5 -179.499 52.5s-92.166 81 -113.499 138s-32 168.167 -32 333.5v624h186v-647c0 -107.333 5.16699 -178.166 15.5 -212.499
s29.333 -62.5 57 -84.5s57.5 -33 89.5 -33c65.333 0 135.5 30.833 210.5 92.5s137.167 139.5 186.5 233.5v651h186zM406.997 1288l296 326h216l-342 -326h-170z" />
    <glyph glyph-name="ucircumflex" unicode="&#xfb;" 
d="M1074 1117l-0.00292969 -1117h-186v245c-60 -92 -126.667 -161 -200 -207s-146.666 -69 -219.999 -69c-65.333 0 -125.166 17.5 -179.499 52.5s-92.166 81 -113.499 138s-32 168.167 -32 333.5v624h186v-647c0 -107.333 5.16699 -178.166 15.5 -212.499
s29.333 -62.5 57 -84.5s57.5 -33 89.5 -33c65.333 0 135.5 30.833 210.5 92.5s137.167 139.5 186.5 233.5v651h186zM616.997 1456l-140 -168h-155l233 326h124l233 -326h-156z" />
    <glyph glyph-name="udieresis" unicode="&#xfc;" 
d="M1074 1117l-0.00292969 -1117h-186v245c-60 -92 -126.667 -161 -200 -207s-146.666 -69 -219.999 -69c-65.333 0 -125.166 17.5 -179.499 52.5s-92.166 81 -113.499 138s-32 168.167 -32 333.5v624h186v-647c0 -107.333 5.16699 -178.166 15.5 -212.499
s29.333 -62.5 57 -84.5s57.5 -33 89.5 -33c65.333 0 135.5 30.833 210.5 92.5s137.167 139.5 186.5 233.5v651h186zM398.997 1288c-34 0 -63.167 12 -87.5 36s-36.5 53.333 -36.5 88s12.333 64 37 88s53.667 36 87 36s62.333 -12 87 -36s37 -53.333 37 -88
s-12.167 -64 -36.5 -88s-53.5 -36 -87.5 -36zM833.997 1288c-34 0 -63.333 12 -88 36s-37 53.333 -37 88s12.5 64 37.5 88s54.167 36 87.5 36s62.333 -12 87 -36s37 -53.333 37 -88s-12.333 -64 -37 -88s-53.667 -36 -87 -36z" />
    <glyph glyph-name="yacute" unicode="&#xfd;" 
d="M583 45l-516.001 1072h205l411 -838l344 838h187l-433 -1038c-91.333 -219.333 -178.166 -365 -260.499 -437s-188.833 -108 -319.5 -108c-56.667 0 -107.334 5 -152.001 15v164c51.333 -16 100.333 -24 147 -24c60 0 113.333 11.667 160 35
s89.334 64.666 128.001 123.999s66 110.666 82 153.999zM452.999 1288l296 326h216l-342 -326h-170z" />
    <glyph glyph-name="thorn" unicode="&#xfe;" 
d="M323 866c57.333 93.333 125.668 163.667 205.001 211s152.333 71 219 71c93.333 0 177.333 -40.333 252 -121s112 -203 112 -367c0 -193.333 -55.333 -356 -166 -488c-52 -61.333 -110.333 -108 -175 -140s-144.334 -48 -239.001 -48c-34.667 0 -88 3.66699 -160 11
c-10.667 1.33301 -26.667 3 -48 5v-434h-186v1986h186v-686zM323.002 645.001v-478.999c67.333 -17.333 129.333 -26 186 -26c112.667 0 207.5 44.167 284.5 132.5s115.5 209.166 115.5 362.499c0 111.333 -21 195 -63 251s-89.667 84 -143 84
c-58 0 -121.833 -29.333 -191.5 -88s-132.5 -137.667 -188.5 -237z" />
    <glyph glyph-name="ydieresis" unicode="&#xff;" 
d="M583 45l-516.001 1072h205l411 -838l344 838h187l-433 -1038c-91.333 -219.333 -178.166 -365 -260.499 -437s-188.833 -108 -319.5 -108c-56.667 0 -107.334 5 -152.001 15v164c51.333 -16 100.333 -24 147 -24c60 0 113.333 11.667 160 35
s89.334 64.666 128.001 123.999s66 110.666 82 153.999zM444.999 1288c-34 0 -63.167 12 -87.5 36s-36.5 53.333 -36.5 88s12.333 64 37 88s53.667 36 87 36s62.333 -12 87 -36s37 -53.333 37 -88s-12.167 -64 -36.5 -88s-53.5 -36 -87.5 -36zM879.999 1288
c-34 0 -63.333 12 -88 36s-37 53.333 -37 88s12.5 64 37.5 88s54.167 36 87.5 36s62.333 -12 87 -36s37 -53.333 37 -88s-12.333 -64 -37 -88s-53.667 -36 -87 -36z" />
    <glyph glyph-name="Amacron" unicode="&#x100;" 
d="M227 0h-194l478 1552h205l481 -1552h-213l-106 341h-546zM380 496h453l-187 589l-44 156l-39 -156zM336 1654v124h559v-124h-559z" />
    <glyph glyph-name="amacron" unicode="&#x101;" 
d="M889 251c-56.667 -93.333 -124.831 -163.667 -204.498 -211s-152.834 -71 -219.501 -71c-93.333 0 -177.166 40.333 -251.499 121s-111.5 203 -111.5 367c0 129.333 24.667 244.833 74 346.5s115.333 182 198 241s185 88.5 307 88.5
c35.333 0 88.666 -3.66699 159.999 -11c10.667 -1.33301 26.667 -3 48 -5h187v-789c0 -134.667 14 -244 42 -328h-194c-14.667 61.333 -26.334 145 -35.001 251zM889.003 471.999v479.001c-66 17.333 -127.333 26 -184 26c-114.667 0 -210.167 -44.333 -286.5 -133
s-114.5 -209.334 -114.5 -362.001c0 -110.667 20.833 -194.167 62.5 -250.5s89.167 -84.5 142.5 -84.5c58 0 122 29.333 192 88s132.667 137.667 188 237zM335.003 1243v124h559v-124h-559z" />
    <glyph glyph-name="Abreve" unicode="&#x102;" 
d="M227 0h-194l478 1552h205l481 -1552h-213l-106 341h-546zM380 496h453l-187 589l-44 156l-39 -156zM448 1980c6 -51.333 25.333 -96.5 58 -135.5s69.334 -58.5 110.001 -58.5s77 19.833 109 59.5s51 84.5 57 134.5h128c-8 -74 -26.833 -133.833 -56.5 -179.5
s-65.5 -81.5 -107.5 -107.5s-85.333 -39 -130 -39s-88.167 13 -130.5 39s-78.333 61.833 -108 107.5s-48.834 105.5 -57.501 179.5h128z" />
    <glyph glyph-name="abreve" unicode="&#x103;" 
d="M889 251c-56.667 -93.333 -124.831 -163.667 -204.498 -211s-152.834 -71 -219.501 -71c-93.333 0 -177.166 40.333 -251.499 121s-111.5 203 -111.5 367c0 129.333 24.667 244.833 74 346.5s115.333 182 198 241s185 88.5 307 88.5
c35.333 0 88.666 -3.66699 159.999 -11c10.667 -1.33301 26.667 -3 48 -5h187v-789c0 -134.667 14 -244 42 -328h-194c-14.667 61.333 -26.334 145 -35.001 251zM889.003 471.999v479.001c-66 17.333 -127.333 26 -184 26c-114.667 0 -210.167 -44.333 -286.5 -133
s-114.5 -209.334 -114.5 -362.001c0 -110.667 20.833 -194.167 62.5 -250.5s89.167 -84.5 142.5 -84.5c58 0 122 29.333 192 88s132.667 137.667 188 237zM448.003 1569c6 -51.333 25.333 -96.5 58 -135.5s69.334 -58.5 110.001 -58.5s77 19.833 109 59.5s51 84.5 57 134.5
h128c-8 -74 -26.833 -133.833 -56.5 -179.5s-65.5 -81.5 -107.5 -107.5s-85.333 -39 -130 -39s-88.167 13 -130.5 39s-78.333 61.833 -108 107.5s-48.834 105.5 -57.501 179.5h128z" />
    <glyph glyph-name="Aogonek" unicode="&#x104;" 
d="M227 0h-194l478 1552h205l481 -1552h-213l-106 341h-546zM380 496h453l-187 589l-44 156l-39 -156zM1197 10c-60 -28 -108.5 -66.999 -145.5 -116.999s-55.5 -91 -55.5 -123c0 -20.667 9.33301 -40.334 28 -59.001s49.667 -28 93 -28c23.333 0 50 6.33301 80 19v-97
c-44 -19.333 -86.333 -29 -127 -29c-62 0 -113.167 16.667 -153.5 50s-60.5 75.666 -60.5 126.999c0 80.667 49.333 166.334 148 257.001h193z" />
    <glyph glyph-name="aogonek" unicode="&#x105;" 
d="M889 251c-56.667 -93.333 -124.831 -163.667 -204.498 -211s-152.834 -71 -219.501 -71c-93.333 0 -177.166 40.333 -251.499 121s-111.5 203 -111.5 367c0 129.333 24.667 244.833 74 346.5s115.333 182 198 241s185 88.5 307 88.5
c35.333 0 88.666 -3.66699 159.999 -11c10.667 -1.33301 26.667 -3 48 -5h187v-789c0 -134.667 14 -244 42 -328h-194c-14.667 61.333 -26.334 145 -35.001 251zM889.003 471.999v479.001c-66 17.333 -127.333 26 -184 26c-114.667 0 -210.167 -44.333 -286.5 -133
s-114.5 -209.334 -114.5 -362.001c0 -110.667 20.833 -194.167 62.5 -250.5s89.167 -84.5 142.5 -84.5c58 0 122 29.333 192 88s132.667 137.667 188 237zM1118 9c-60 -28 -108.5 -66.999 -145.5 -116.999s-55.5 -91 -55.5 -123c0 -20.667 9.33301 -40.334 28 -59.001
s49.667 -28 93 -28c23.333 0 50 6.33301 80 19v-97c-44 -19.333 -86.333 -29 -127 -29c-62 0 -113.167 16.667 -153.5 50s-60.5 75.666 -60.5 126.999c0 80.667 49.333 166.334 148 257.001h193z" />
    <glyph glyph-name="Cacute" unicode="&#x106;" 
d="M1088 18c-116 -43.333 -219.999 -64.999 -311.999 -64.999c-121.333 0 -233 32.5 -335 97.5s-181.333 161.667 -238 290s-85 273.5 -85 435.5c0 160.667 28 305 84 433s135 225 237 291s214.333 99 337 99c92 0 196 -21.667 312 -65v-184c-107.333 62 -214 93 -320 93
c-80 0 -153.167 -27.333 -219.5 -82s-119.833 -134.834 -160.5 -240.501s-61 -220.5 -61 -344.5c0 -126 21 -242.333 63 -349s95.667 -186.5 161 -239.5s137.666 -79.5 216.999 -79.5c105.333 0 212 31 320 93v-183zM541.001 1722l296 326h216l-342 -326h-170z" />
    <glyph glyph-name="cacute" unicode="&#x107;" 
d="M1095 32c-124.667 -42 -243.333 -63.001 -356 -63.001c-112 0 -211.5 25.833 -298.5 77.5s-154.833 121.667 -203.5 210s-73 188.833 -73 301.5c0 169.333 55.167 310 165.5 422s243.5 168 399.5 168c115.333 0 237.333 -21.667 366 -65v-179
c-130 59.333 -246.333 89 -349 89c-68 0 -132 -16.833 -192 -50.5s-106.333 -86.167 -139 -157.5s-49 -144.666 -49 -219.999c0 -100.667 31.5 -196.667 94.5 -288s161.833 -137 296.5 -137c40.667 0 80.667 2.83301 120 8.5s112 26.5 218 62.5v-179zM494.001 1288l296 326
h216l-342 -326h-170z" />
    <glyph glyph-name="Ccircumflex" unicode="&#x108;" 
d="M1088 18c-116 -43.333 -219.999 -64.999 -311.999 -64.999c-121.333 0 -233 32.5 -335 97.5s-181.333 161.667 -238 290s-85 273.5 -85 435.5c0 160.667 28 305 84 433s135 225 237 291s214.333 99 337 99c92 0 196 -21.667 312 -65v-184c-107.333 62 -214 93 -320 93
c-80 0 -153.167 -27.333 -219.5 -82s-119.833 -134.834 -160.5 -240.501s-61 -220.5 -61 -344.5c0 -126 21 -242.333 63 -349s95.667 -186.5 161 -239.5s137.666 -79.5 216.999 -79.5c105.333 0 212 31 320 93v-183zM713.001 1869l-140 -168h-155l233 326h124l233 -326h-156
z" />
    <glyph glyph-name="ccircumflex" unicode="&#x109;" 
d="M1095 32c-124.667 -42 -243.333 -63.001 -356 -63.001c-112 0 -211.5 25.833 -298.5 77.5s-154.833 121.667 -203.5 210s-73 188.833 -73 301.5c0 169.333 55.167 310 165.5 422s243.5 168 399.5 168c115.333 0 237.333 -21.667 366 -65v-179
c-130 59.333 -246.333 89 -349 89c-68 0 -132 -16.833 -192 -50.5s-106.333 -86.167 -139 -157.5s-49 -144.666 -49 -219.999c0 -100.667 31.5 -196.667 94.5 -288s161.833 -137 296.5 -137c40.667 0 80.667 2.83301 120 8.5s112 26.5 218 62.5v-179zM679.001 1426
l-140 -168h-155l233 326h124l233 -326h-156z" />
    <glyph glyph-name="Cdotaccent" unicode="&#x10a;" 
d="M1088 18c-116 -43.333 -219.999 -64.999 -311.999 -64.999c-121.333 0 -233 32.5 -335 97.5s-181.333 161.667 -238 290s-85 273.5 -85 435.5c0 160.667 28 305 84 433s135 225 237 291s214.333 99 337 99c92 0 196 -21.667 312 -65v-184c-107.333 62 -214 93 -320 93
c-80 0 -153.167 -27.333 -219.5 -82s-119.833 -134.834 -160.5 -240.501s-61 -220.5 -61 -344.5c0 -126 21 -242.333 63 -349s95.667 -186.5 161 -239.5s137.666 -79.5 216.999 -79.5c105.333 0 212 31 320 93v-183zM704.001 1779c-34 0 -62.999 11.833 -86.999 35.5
s-36 52.5 -36 86.5s12.167 63 36.5 87s53.166 36 86.499 36c32.667 0 61.167 -12 85.5 -36s36.5 -53 36.5 -87s-12 -62.833 -36 -86.5s-52.667 -35.5 -86 -35.5z" />
    <glyph glyph-name="cdotaccent" unicode="&#x10b;" 
d="M1095 32c-124.667 -42 -243.333 -63.001 -356 -63.001c-112 0 -211.5 25.833 -298.5 77.5s-154.833 121.667 -203.5 210s-73 188.833 -73 301.5c0 169.333 55.167 310 165.5 422s243.5 168 399.5 168c115.333 0 237.333 -21.667 366 -65v-179
c-130 59.333 -246.333 89 -349 89c-68 0 -132 -16.833 -192 -50.5s-106.333 -86.167 -139 -157.5s-49 -144.666 -49 -219.999c0 -100.667 31.5 -196.667 94.5 -288s161.833 -137 296.5 -137c40.667 0 80.667 2.83301 120 8.5s112 26.5 218 62.5v-179zM680.001 1336
c-34 0 -62.999 11.833 -86.999 35.5s-36 52.5 -36 86.5s12.167 63 36.5 87s53.166 36 86.499 36c32.667 0 61.167 -12 85.5 -36s36.5 -53 36.5 -87s-12 -62.833 -36 -86.5s-52.667 -35.5 -86 -35.5z" />
    <glyph glyph-name="Ccaron" unicode="&#x10c;" 
d="M1088 18c-116 -43.333 -219.999 -64.999 -311.999 -64.999c-121.333 0 -233 32.5 -335 97.5s-181.333 161.667 -238 290s-85 273.5 -85 435.5c0 160.667 28 305 84 433s135 225 237 291s214.333 99 337 99c92 0 196 -21.667 312 -65v-184c-107.333 62 -214 93 -320 93
c-80 0 -153.167 -27.333 -219.5 -82s-119.833 -134.834 -160.5 -240.501s-61 -220.5 -61 -344.5c0 -126 21 -242.333 63 -349s95.667 -186.5 161 -239.5s137.666 -79.5 216.999 -79.5c105.333 0 212 31 320 93v-183zM750.001 1880l139 168h156l-233 -326h-124l-233 326h155z
" />
    <glyph glyph-name="ccaron" unicode="&#x10d;" 
d="M1095 32c-124.667 -42 -243.333 -63.001 -356 -63.001c-112 0 -211.5 25.833 -298.5 77.5s-154.833 121.667 -203.5 210s-73 188.833 -73 301.5c0 169.333 55.167 310 165.5 422s243.5 168 399.5 168c115.333 0 237.333 -21.667 366 -65v-179
c-130 59.333 -246.333 89 -349 89c-68 0 -132 -16.833 -192 -50.5s-106.333 -86.167 -139 -157.5s-49 -144.666 -49 -219.999c0 -100.667 31.5 -196.667 94.5 -288s161.833 -137 296.5 -137c40.667 0 80.667 2.83301 120 8.5s112 26.5 218 62.5v-179zM750.001 1446l139 168
h156l-233 -326h-124l-233 326h155z" />
    <glyph glyph-name="Dcaron" unicode="&#x10e;" 
d="M155 0l0.00195312 1552h368c169.333 0 295.166 -29.5 377.499 -88.5s144.166 -148.167 185.499 -267.5s62 -260.666 62 -423.999c0 -154.667 -21.833 -290.5 -65.5 -407.5s-105.5 -207 -185.5 -270s-204.667 -94.5 -374 -94.5h-368zM357.002 170.999h135.001
c136.667 0 234.167 24.333 292.5 73s100 116.167 125 202.5s37.5 205.5 37.5 357.5c0 148.667 -14.667 263 -44 343s-71.333 141.5 -126 184.5s-144.334 64.5 -269.001 64.5h-151v-1225zM609.003 1812l139 168h156l-233 -326h-124l-233 326h155z" />
    <glyph glyph-name="dcaron" unicode="&#x10f;" 
d="M901 251c-56.667 -93.333 -124.832 -163.667 -204.499 -211s-152.834 -71 -219.501 -71c-93.333 0 -177.166 40.333 -251.499 121s-111.5 203 -111.5 367c0 129.333 24.667 244.833 74 346.5s115.333 182 198 241s185 88.5 307 88.5
c35.333 0 88.666 -3.66699 159.999 -11c10.667 -1.33301 26.667 -3 48 -5v497h187v-1614h-187v251zM901.002 471.999v479.001c-66 17.333 -127.333 26 -184 26c-114.667 0 -210.167 -44.333 -286.5 -133s-114.5 -209.334 -114.5 -362.001
c0 -110.667 20.833 -194.167 62.5 -250.5s89.167 -84.5 142.5 -84.5c58 0 122 29.333 192 88s132.667 137.667 188 237zM518.002 1646l139 168h156l-233 -326h-124l-233 326h155z" />
    <glyph glyph-name="Dcroat" unicode="&#x110;" 
d="M157 0v714h-155v155h155v683h368c182 0 309.333 -25.667 382 -77s131.334 -140.5 176.001 -267.5s67 -272.167 67 -435.5c0 -154.667 -22.333 -292.667 -67 -414s-103.334 -211.333 -176.001 -270s-186 -88 -340 -88h-410zM359 171h135c146 0 244.5 21.167 295.5 63.5
s90.333 109.833 118 202.5s41.5 215 41.5 367c0 148.667 -13.833 265.167 -41.5 349.5s-65.667 145.833 -114 184.5s-142.833 58 -283.5 58h-151v-527h248v-155h-248v-543z" />
    <glyph glyph-name="dcroat" unicode="&#x111;" 
d="M905 251c-56.667 -93.333 -124.832 -163.667 -204.499 -211s-152.834 -71 -219.501 -71c-93.333 0 -177.166 40.333 -251.499 121s-111.5 203 -111.5 367c0 129.333 24.667 244.833 74 346.5s115.333 182 198 241s185 88.5 307 88.5
c35.333 0 88.666 -3.66699 159.999 -11c10.667 -1.33301 26.667 -3 48 -5v140h-186v139h186v218h187v-218h186v-139h-186v-1257h-187v251zM905.002 471.999v479.001c-66 17.333 -127.333 26 -184 26c-114.667 0 -210.167 -44.333 -286.5 -133
s-114.5 -209.334 -114.5 -362.001c0 -110.667 20.833 -194.167 62.5 -250.5s89.167 -84.5 142.5 -84.5c58 0 122 29.333 192 88s132.667 137.667 188 237z" />
    <glyph glyph-name="Emacron" unicode="&#x112;" 
d="M1041 171v-171h-838v1552h822v-156h-620v-527h558v-155h-558v-543h636zM343 1754v124h559v-124h-559z" />
    <glyph glyph-name="emacron" unicode="&#x113;" 
d="M1084 74c-148.667 -70.667 -289.332 -106 -421.999 -106c-100.667 0 -190.667 25 -270 75s-142.833 121.5 -190.5 214.5s-71.5 192.5 -71.5 298.5c0 102 22.667 200 68 294s108.666 167.167 189.999 219.5s172 78.5 272 78.5c132.667 0 239.167 -47.333 319.5 -142
s120.5 -240.667 120.5 -438v-40h-770c0 -77.333 16.167 -148 48.5 -212s74.833 -112 127.5 -144s112.667 -48 180 -48c120 0 252.667 40 398 120v-170zM341.002 667h557.001v27c0 91.333 -22.333 164 -67 218s-104.334 81 -179.001 81c-75.333 0 -140.5 -27.5 -195.5 -82.5
s-93.5 -136.167 -115.5 -243.5zM376.003 1258v124h559v-124h-559z" />
    <glyph glyph-name="Ebreve" unicode="&#x114;" 
d="M1041 171v-171h-838v1552h822v-156h-620v-527h558v-155h-558v-543h636zM455 1980c6 -51.333 25.333 -96.5 58 -135.5s69.334 -58.5 110.001 -58.5s77 19.833 109 59.5s51 84.5 57 134.5h128c-8 -74 -26.833 -133.833 -56.5 -179.5s-65.5 -81.5 -107.5 -107.5
s-85.333 -39 -130 -39s-88.167 13 -130.5 39s-78.333 61.833 -108 107.5s-48.834 105.5 -57.501 179.5h128z" />
    <glyph glyph-name="ebreve" unicode="&#x115;" 
d="M1084 74c-148.667 -70.667 -289.332 -106 -421.999 -106c-100.667 0 -190.667 25 -270 75s-142.833 121.5 -190.5 214.5s-71.5 192.5 -71.5 298.5c0 102 22.667 200 68 294s108.666 167.167 189.999 219.5s172 78.5 272 78.5c132.667 0 239.167 -47.333 319.5 -142
s120.5 -240.667 120.5 -438v-40h-770c0 -77.333 16.167 -148 48.5 -212s74.833 -112 127.5 -144s112.667 -48 180 -48c120 0 252.667 40 398 120v-170zM341.002 667h557.001v27c0 91.333 -22.333 164 -67 218s-104.334 81 -179.001 81c-75.333 0 -140.5 -27.5 -195.5 -82.5
s-93.5 -136.167 -115.5 -243.5zM498.003 1584c6 -51.333 25.333 -96.5 58 -135.5s69.334 -58.5 110.001 -58.5s77 19.833 109 59.5s51 84.5 57 134.5h128c-8 -74 -26.833 -133.833 -56.5 -179.5s-65.5 -81.5 -107.5 -107.5s-85.333 -39 -130 -39s-88.167 13 -130.5 39
s-78.333 61.833 -108 107.5s-48.834 105.5 -57.501 179.5h128z" />
    <glyph glyph-name="Edotaccent" unicode="&#x116;" 
d="M1041 171v-171h-838v1552h822v-156h-620v-527h558v-155h-558v-543h636zM623 1732c-34 0 -62.999 11.833 -86.999 35.5s-36 52.5 -36 86.5s12.167 63 36.5 87s53.166 36 86.499 36c32.667 0 61.167 -12 85.5 -36s36.5 -53 36.5 -87s-12 -62.833 -36 -86.5
s-52.667 -35.5 -86 -35.5z" />
    <glyph glyph-name="edotaccent" unicode="&#x117;" 
d="M1084 74c-148.667 -70.667 -289.332 -106 -421.999 -106c-100.667 0 -190.667 25 -270 75s-142.833 121.5 -190.5 214.5s-71.5 192.5 -71.5 298.5c0 102 22.667 200 68 294s108.666 167.167 189.999 219.5s172 78.5 272 78.5c132.667 0 239.167 -47.333 319.5 -142
s120.5 -240.667 120.5 -438v-40h-770c0 -77.333 16.167 -148 48.5 -212s74.833 -112 127.5 -144s112.667 -48 180 -48c120 0 252.667 40 398 120v-170zM341.002 667h557.001v27c0 91.333 -22.333 164 -67 218s-104.334 81 -179.001 81c-75.333 0 -140.5 -27.5 -195.5 -82.5
s-93.5 -136.167 -115.5 -243.5zM666.003 1336c-34 0 -62.999 11.833 -86.999 35.5s-36 52.5 -36 86.5s12.167 63 36.5 87s53.166 36 86.499 36c32.667 0 61.167 -12 85.5 -36s36.5 -53 36.5 -87s-12 -62.833 -36 -86.5s-52.667 -35.5 -86 -35.5z" />
    <glyph glyph-name="Eogonek" unicode="&#x118;" 
d="M1041 171v-171h-838v1552h822v-156h-620v-527h558v-155h-558v-543h636zM793 10c-60 -28 -108.5 -66.999 -145.5 -116.999s-55.5 -91 -55.5 -123c0 -20.667 9.33301 -40.334 28 -59.001s49.667 -28 93 -28c23.333 0 50 6.33301 80 19v-97
c-44 -19.333 -86.333 -29 -127 -29c-62 0 -113.167 16.667 -153.5 50s-60.5 75.666 -60.5 126.999c0 80.667 49.333 166.334 148 257.001h193z" />
    <glyph glyph-name="eogonek" unicode="&#x119;" 
d="M1084 74c-148.667 -70.667 -289.332 -106 -421.999 -106c-100.667 0 -190.667 25 -270 75s-142.833 121.5 -190.5 214.5s-71.5 192.5 -71.5 298.5c0 102 22.667 200 68 294s108.666 167.167 189.999 219.5s172 78.5 272 78.5c132.667 0 239.167 -47.333 319.5 -142
s120.5 -240.667 120.5 -438v-40h-770c0 -77.333 16.167 -148 48.5 -212s74.833 -112 127.5 -144s112.667 -48 180 -48c120 0 252.667 40 398 120v-170zM341.002 667h557.001v27c0 91.333 -22.333 164 -67 218s-104.334 81 -179.001 81c-75.333 0 -140.5 -27.5 -195.5 -82.5
s-93.5 -136.167 -115.5 -243.5zM803.003 0c-60 -28 -108.5 -66.999 -145.5 -116.999s-55.5 -91 -55.5 -123c0 -20.667 9.33301 -40.334 28 -59.001s49.667 -28 93 -28c23.333 0 50 6.33301 80 19v-97c-44 -19.333 -86.333 -29 -127 -29c-62 0 -113.167 16.667 -153.5 50
s-60.5 75.666 -60.5 126.999c0 80.667 49.333 166.334 148 257.001h193z" />
    <glyph glyph-name="Ecaron" unicode="&#x11a;" 
d="M1041 171v-171h-838v1552h822v-156h-620v-527h558v-155h-558v-543h636zM622 1812l139 168h156l-233 -326h-124l-233 326h155z" />
    <glyph glyph-name="ecaron" unicode="&#x11b;" 
d="M1084 74c-148.667 -70.667 -289.332 -106 -421.999 -106c-100.667 0 -190.667 25 -270 75s-142.833 121.5 -190.5 214.5s-71.5 192.5 -71.5 298.5c0 102 22.667 200 68 294s108.666 167.167 189.999 219.5s172 78.5 272 78.5c132.667 0 239.167 -47.333 319.5 -142
s120.5 -240.667 120.5 -438v-40h-770c0 -77.333 16.167 -148 48.5 -212s74.833 -112 127.5 -144s112.667 -48 180 -48c120 0 252.667 40 398 120v-170zM341.002 667h557.001v27c0 91.333 -22.333 164 -67 218s-104.334 81 -179.001 81c-75.333 0 -140.5 -27.5 -195.5 -82.5
s-93.5 -136.167 -115.5 -243.5zM665.003 1416l139 168h156l-233 -326h-124l-233 326h155z" />
    <glyph glyph-name="Gcircumflex" unicode="&#x11c;" 
d="M1088 1c-109.333 -32 -209.668 -47.999 -301.001 -47.999c-129.333 0 -244.5 32 -345.5 96s-180.167 160.5 -237.5 289.5s-86 274.833 -86 437.5c0 160.667 28 305 84 433s135 225 237 291s214 99 336 99c92 0 196 -21.667 312 -65v-184c-107.333 62 -214 93 -320 93
c-80 0 -153.167 -27.333 -219.5 -82s-119.666 -134.834 -159.999 -240.501s-60.5 -221.167 -60.5 -346.5c0 -168 38.333 -321 115 -459s197.667 -207 363 -207c21.333 0 48.333 1.66699 81 5v500h-155v155h357v-767zM702.998 1869l-140 -168h-155l233 326h124l233 -326h-156
z" />
    <glyph glyph-name="gcircumflex" unicode="&#x11d;" 
d="M901 251c-56.667 -93.333 -124.832 -163.667 -204.499 -211s-152.834 -71 -219.501 -71c-93.333 0 -177.166 40.333 -251.499 121s-111.5 203 -111.5 367c0 129.333 24.667 244.833 74 346.5s115.333 182 198 241s185 88.5 307 88.5
c35.333 0 88.666 -3.66699 159.999 -11c10.667 -1.33301 26.667 -3 48 -5h187v-790c0 -188 -2.5 -302.833 -7.5 -344.5s-13.167 -83.834 -24.5 -126.501c-26.667 -99.333 -87.5 -177.666 -182.5 -234.999s-209.833 -86 -344.5 -86c-135.333 0 -272.333 34.667 -411 104v188
c52.667 -36 117.5 -67.833 194.5 -95.5s151.5 -41.5 223.5 -41.5c56.667 0 110.334 9 161.001 27s91.667 44 123 78s52.666 73.5 63.999 118.5s17 104.833 17 179.5v158zM901.002 471.999v479.001c-66 17.333 -127.333 26 -184 26c-114.667 0 -210.167 -44.333 -286.5 -133
s-114.5 -209.334 -114.5 -362.001c0 -110.667 20.833 -194.167 62.5 -250.5s89.167 -84.5 142.5 -84.5c58 0 122 29.333 192 88s132.667 137.667 188 237zM609.002 1411l-140 -168h-155l233 326h124l233 -326h-156z" />
    <glyph glyph-name="Gbreve" unicode="&#x11e;" 
d="M1088 1c-109.333 -32 -209.668 -47.999 -301.001 -47.999c-129.333 0 -244.5 32 -345.5 96s-180.167 160.5 -237.5 289.5s-86 274.833 -86 437.5c0 160.667 28 305 84 433s135 225 237 291s214 99 336 99c92 0 196 -21.667 312 -65v-184c-107.333 62 -214 93 -320 93
c-80 0 -153.167 -27.333 -219.5 -82s-119.666 -134.834 -159.999 -240.501s-60.5 -221.167 -60.5 -346.5c0 -168 38.333 -321 115 -459s197.667 -207 363 -207c21.333 0 48.333 1.66699 81 5v500h-155v155h357v-767zM590.998 2048c6 -51.333 25.333 -96.5 58 -135.5
s69.334 -58.5 110.001 -58.5s77 19.833 109 59.5s51 84.5 57 134.5h128c-8 -74 -26.833 -133.833 -56.5 -179.5s-65.5 -81.5 -107.5 -107.5s-85.333 -39 -130 -39s-88.167 13 -130.5 39s-78.333 61.833 -108 107.5s-48.834 105.5 -57.501 179.5h128z" />
    <glyph glyph-name="gbreve" unicode="&#x11f;" 
d="M905 251c-56.667 -93.333 -124.832 -163.667 -204.499 -211s-152.834 -71 -219.501 -71c-93.333 0 -177.166 40.333 -251.499 121s-111.5 203 -111.5 367c0 129.333 24.667 244.833 74 346.5s115.333 182 198 241s185 88.5 307 88.5
c35.333 0 88.666 -3.66699 159.999 -11c10.667 -1.33301 26.667 -3 48 -5h187v-790c0 -188 -2.5 -302.833 -7.5 -344.5s-13.167 -83.834 -24.5 -126.501c-26.667 -99.333 -87.5 -177.666 -182.5 -234.999s-209.833 -86 -344.5 -86c-135.333 0 -272.333 34.667 -411 104v188
c52.667 -36 117.5 -67.833 194.5 -95.5s151.5 -41.5 223.5 -41.5c56.667 0 110.334 9 161.001 27s91.667 44 123 78s52.666 73.5 63.999 118.5s17 104.833 17 179.5v158zM905.002 471.999v479.001c-66 17.333 -127.333 26 -184 26c-114.667 0 -210.167 -44.333 -286.5 -133
s-114.5 -209.334 -114.5 -362.001c0 -110.667 20.833 -194.167 62.5 -250.5s89.167 -84.5 142.5 -84.5c58 0 122 29.333 192 88s132.667 137.667 188 237zM515.002 1614c6 -51.333 25.333 -96.5 58 -135.5s69.334 -58.5 110.001 -58.5s77 19.833 109 59.5s51 84.5 57 134.5
h128c-8 -74 -26.833 -133.833 -56.5 -179.5s-65.5 -81.5 -107.5 -107.5s-85.333 -39 -130 -39s-88.167 13 -130.5 39s-78.333 61.833 -108 107.5s-48.834 105.5 -57.501 179.5h128z" />
    <glyph glyph-name="Gdotaccent" unicode="&#x120;" 
d="M1088 1c-109.333 -32 -209.668 -47.999 -301.001 -47.999c-129.333 0 -244.5 32 -345.5 96s-180.167 160.5 -237.5 289.5s-86 274.833 -86 437.5c0 160.667 28 305 84 433s135 225 237 291s214 99 336 99c92 0 196 -21.667 312 -65v-184c-107.333 62 -214 93 -320 93
c-80 0 -153.167 -27.333 -219.5 -82s-119.666 -134.834 -159.999 -240.501s-60.5 -221.167 -60.5 -346.5c0 -168 38.333 -321 115 -459s197.667 -207 363 -207c21.333 0 48.333 1.66699 81 5v500h-155v155h357v-767zM703.998 1779c-34 0 -62.999 11.833 -86.999 35.5
s-36 52.5 -36 86.5s12.167 63 36.5 87s53.166 36 86.499 36c32.667 0 61.167 -12 85.5 -36s36.5 -53 36.5 -87s-12 -62.833 -36 -86.5s-52.667 -35.5 -86 -35.5z" />
    <glyph glyph-name="gdotaccent" unicode="&#x121;" 
d="M901 251c-56.667 -93.333 -124.832 -163.667 -204.499 -211s-152.834 -71 -219.501 -71c-93.333 0 -177.166 40.333 -251.499 121s-111.5 203 -111.5 367c0 129.333 24.667 244.833 74 346.5s115.333 182 198 241s185 88.5 307 88.5
c35.333 0 88.666 -3.66699 159.999 -11c10.667 -1.33301 26.667 -3 48 -5h187v-790c0 -188 -2.5 -302.833 -7.5 -344.5s-13.167 -83.834 -24.5 -126.501c-26.667 -99.333 -87.5 -177.666 -182.5 -234.999s-209.833 -86 -344.5 -86c-135.333 0 -272.333 34.667 -411 104v188
c52.667 -36 117.5 -67.833 194.5 -95.5s151.5 -41.5 223.5 -41.5c56.667 0 110.334 9 161.001 27s91.667 44 123 78s52.666 73.5 63.999 118.5s17 104.833 17 179.5v158zM901.002 471.999v479.001c-66 17.333 -127.333 26 -184 26c-114.667 0 -210.167 -44.333 -286.5 -133
s-114.5 -209.334 -114.5 -362.001c0 -110.667 20.833 -194.167 62.5 -250.5s89.167 -84.5 142.5 -84.5c58 0 122 29.333 192 88s132.667 137.667 188 237zM672.002 1321c-34 0 -62.999 11.833 -86.999 35.5s-36 52.5 -36 86.5s12.167 63 36.5 87s53.166 36 86.499 36
c32.667 0 61.167 -12 85.5 -36s36.5 -53 36.5 -87s-12 -62.833 -36 -86.5s-52.667 -35.5 -86 -35.5z" />
    <glyph glyph-name="Gcommaaccent" unicode="&#x122;" 
d="M1088 1c-109.333 -32 -209.668 -47.999 -301.001 -47.999c-129.333 0 -244.5 32 -345.5 96s-180.167 160.5 -237.5 289.5s-86 274.833 -86 437.5c0 160.667 28 305 84 433s135 225 237 291s214 99 336 99c92 0 196 -21.667 312 -65v-184c-107.333 62 -214 93 -320 93
c-80 0 -153.167 -27.333 -219.5 -82s-119.666 -134.834 -159.999 -240.501s-60.5 -221.167 -60.5 -346.5c0 -168 38.333 -321 115 -459s197.667 -207 363 -207c21.333 0 48.333 1.66699 81 5v500h-155v155h357v-767zM674.582 -718.083l0.000976562 80.5947
c31.1982 8.23242 54.9219 20.04 71.1709 35.4229c16.249 15.3818 29.248 34.8809 38.9971 58.4961c9.74902 23.6162 14.624 52.1064 14.624 85.4707c-40.2979 0 -69.9795 11.374 -89.0449 34.123s-28.5977 47.123 -28.5977 73.1221
c0 29.8975 10.6162 55.1377 31.8477 75.7207c21.2324 20.582 45.9307 30.873 74.0957 30.873c36.3984 0 67.8135 -15.707 94.2451 -47.1221s39.6475 -74.4209 39.6475 -129.018c0 -47.6641 -10.3994 -92.6201 -31.1982 -134.868
c-20.7988 -42.2471 -49.0723 -78.3203 -84.8203 -108.219s-79.4043 -48.0977 -130.968 -54.5967z" />
    <glyph glyph-name="gcommaaccent" unicode="&#x123;" 
d="M901 251c-56.667 -93.333 -124.832 -163.667 -204.499 -211s-152.834 -71 -219.501 -71c-93.333 0 -177.166 40.333 -251.499 121s-111.5 203 -111.5 367c0 129.333 24.667 244.833 74 346.5s115.333 182 198 241s185 88.5 307 88.5
c35.333 0 88.666 -3.66699 159.999 -11c10.667 -1.33301 26.667 -3 48 -5h187v-790c0 -188 -2.5 -302.833 -7.5 -344.5s-13.167 -83.834 -24.5 -126.501c-26.667 -99.333 -87.5 -177.666 -182.5 -234.999s-209.833 -86 -344.5 -86c-135.333 0 -272.333 34.667 -411 104v188
c52.667 -36 117.5 -67.833 194.5 -95.5s151.5 -41.5 223.5 -41.5c56.667 0 110.334 9 161.001 27s91.667 44 123 78s52.666 73.5 63.999 118.5s17 104.833 17 179.5v158zM901.002 471.999v479.001c-66 17.333 -127.333 26 -184 26c-114.667 0 -210.167 -44.333 -286.5 -133
s-114.5 -209.334 -114.5 -362.001c0 -110.667 20.833 -194.167 62.5 -250.5s89.167 -84.5 142.5 -84.5c58 0 122 29.333 192 88s132.667 137.667 188 237zM803.002 1883.75v-93.75c-36 -9.5 -63.375 -23 -82.125 -40.5s-33.75 -39.875 -45 -67.125
s-16.875 -60.375 -16.875 -99.375c46.5 0 80.75 -13.125 102.75 -39.375s33 -54.125 33 -83.625c0 -35 -12.25 -64.375 -36.75 -88.125s-53 -35.625 -85.5 -35.625c-42 0 -78.25 18.125 -108.75 54.375s-45.75 85.875 -45.75 148.875c0 55.5 12 107.5 36 156
s56.625 90 97.875 124.5s91.625 55.75 151.125 63.75z" />
    <glyph glyph-name="Hcircumflex" unicode="&#x124;" 
d="M126 0v1552h202v-668h574v668h201v-1552h-201v729h-574v-729h-202zM615 1822l-140 -168h-155l233 326h124l233 -326h-156z" />
    <glyph glyph-name="hcircumflex" unicode="&#x125;" 
d="M155 0l0.00390625 1614h186v-741c53.333 86 117.666 153.333 192.999 202s150.666 73 225.999 73c63.333 0 121.166 -16.167 173.499 -48.5s88.833 -71.5 109.5 -117.5c16.667 -35.333 28 -72.833 34 -112.5s9 -121.5 9 -245.5v-624h-186v647
c0 107.333 -5.16699 178.166 -15.5 212.499s-29.333 62.5 -57 84.5s-57.834 33 -90.501 33c-65.333 0 -135.5 -31 -210.5 -93s-136.833 -139.667 -185.5 -233v-651h-186zM543.004 1884l-140 -168h-155l233 326h124l233 -326h-156z" />
    <glyph glyph-name="Hbar" unicode="&#x126;" 
d="M126 0v1048h-55v155h55v349h202v-349h574v349h201v-349h54v-155h-54v-1048h-201v729h-574v-729h-202zM902 884v164h-574v-164h574z" />
    <glyph glyph-name="hbar" unicode="&#x127;" 
d="M155 0l0.00390625 1232h-113v124h113v258h186v-258h260v-124h-260v-359c53.333 86 117.666 153.333 192.999 202s150.666 73 225.999 73c63.333 0 121.166 -16.167 173.499 -48.5s88.833 -71.5 109.5 -117.5c16.667 -35.333 28 -72.833 34 -112.5s9 -121.5 9 -245.5v-624
h-186v647c0 107.333 -5.16699 178.166 -15.5 212.499s-29.333 62.5 -57 84.5s-57.834 33 -90.501 33c-65.333 0 -135.5 -31 -210.5 -93s-136.833 -139.667 -185.5 -233v-651h-186z" />
    <glyph glyph-name="Itilde" unicode="&#x128;" 
d="M172 0v155h341v1241h-341v156h884v-156h-341v-1241h341v-155h-884zM414 1655l-124.998 -0.000976562c0 88 17.167 152.667 51.5 194s77.5 62 129.5 62c41.333 0 83.333 -13.333 126 -40l42 -25c55.333 -34.667 94 -52 116 -52c40 0 60 39 60 117h127
c-4 -68 -13 -117.667 -27 -149s-35.5 -57.166 -64.5 -77.499s-60.833 -30.5 -95.5 -30.5c-43.333 0 -90.333 16.333 -141 49l-44 28l-24 17c-22.667 15.333 -44.334 23 -65.001 23c-14.667 0 -29.334 -7.66699 -44.001 -23s-22 -46.333 -22 -93z" />
    <glyph glyph-name="itilde" unicode="&#x129;" 
d="M467 0v962h-310v155h496v-962h311v-155h-497zM367 1228l-124.998 -0.000976562c0 88 17.167 152.667 51.5 194s77.5 62 129.5 62c41.333 0 83.333 -13.333 126 -40l42 -25c55.333 -34.667 94 -52 116 -52c40 0 60 39 60 117h127c-4 -68 -13 -117.667 -27 -149
s-35.5 -57.166 -64.5 -77.499s-60.833 -30.5 -95.5 -30.5c-43.333 0 -90.333 16.333 -141 49l-44 28l-24 17c-22.667 15.333 -44.334 23 -65.001 23c-14.667 0 -29.334 -7.66699 -44.001 -23s-22 -46.333 -22 -93z" />
    <glyph glyph-name="Imacron" unicode="&#x12a;" 
d="M172 0v155h341v1241h-341v156h884v-156h-341v-1241h341v-155h-884zM335 1754v124h559v-124h-559z" />
    <glyph glyph-name="imacron" unicode="&#x12b;" 
d="M467 0v962h-310v155h496v-962h311v-155h-497zM289 1227v124h559v-124h-559z" />
    <glyph glyph-name="Ibreve" unicode="&#x12c;" 
d="M172 0v155h341v1241h-341v156h884v-156h-341v-1241h341v-155h-884zM448 1980c6 -51.333 25.333 -96.5 58 -135.5s69.334 -58.5 110.001 -58.5s77 19.833 109 59.5s51 84.5 57 134.5h128c-8 -74 -26.833 -133.833 -56.5 -179.5s-65.5 -81.5 -107.5 -107.5
s-85.333 -39 -130 -39s-88.167 13 -130.5 39s-78.333 61.833 -108 107.5s-48.834 105.5 -57.501 179.5h128z" />
    <glyph glyph-name="ibreve" unicode="&#x12d;" 
d="M467 0v962h-310v155h496v-962h311v-155h-497zM401 1553c6 -51.333 25.333 -96.5 58 -135.5s69.334 -58.5 110.001 -58.5s77 19.833 109 59.5s51 84.5 57 134.5h128c-8 -74 -26.833 -133.833 -56.5 -179.5s-65.5 -81.5 -107.5 -107.5s-85.333 -39 -130 -39
s-88.167 13 -130.5 39s-78.333 61.833 -108 107.5s-48.834 105.5 -57.501 179.5h128z" />
    <glyph glyph-name="Iogonek" unicode="&#x12e;" 
d="M172 0v155h341v1241h-341v156h884v-156h-341v-1241h341v-155h-884zM785 10c-60 -28 -108.5 -66.999 -145.5 -116.999s-55.5 -91 -55.5 -123c0 -20.667 9.33301 -40.334 28 -59.001s49.667 -28 93 -28c23.333 0 50 6.33301 80 19v-97c-44 -19.333 -86.333 -29 -127 -29
c-62 0 -113.167 16.667 -153.5 50s-60.5 75.666 -60.5 126.999c0 80.667 49.333 166.334 148 257.001h193z" />
    <glyph glyph-name="iogonek" unicode="&#x12f;" 
d="M468 0v962h-310v155h496v-962h311v-155h-497zM437 1520c0 42 14.333 73.333 43 94s55.667 31 81 31c26 0 53.333 -10.333 82 -31s43 -52 43 -94c0 -41.333 -14.333 -72.333 -43 -93s-56 -31 -82 -31c-25.333 0 -52.333 10.333 -81 31s-43 51.667 -43 93zM740 10
c-60 -28 -108.5 -66.999 -145.5 -116.999s-55.5 -91 -55.5 -123c0 -20.667 9.33301 -40.334 28 -59.001s49.667 -28 93 -28c23.333 0 50 6.33301 80 19v-97c-44 -19.333 -86.333 -29 -127 -29c-62 0 -113.167 16.667 -153.5 50s-60.5 75.666 -60.5 126.999
c0 80.667 49.333 166.334 148 257.001h193z" />
    <glyph glyph-name="Idotaccent" unicode="&#x130;" 
d="M172 0v155h341v1241h-341v156h884v-156h-341v-1241h341v-155h-884zM608 1700c-34 0 -62.999 11.833 -86.999 35.5s-36 52.5 -36 86.5s12.167 63 36.5 87s53.166 36 86.499 36c32.667 0 61.167 -12 85.5 -36s36.5 -53 36.5 -87s-12 -62.833 -36 -86.5
s-52.667 -35.5 -86 -35.5z" />
    <glyph glyph-name="dotlessi" unicode="&#x131;" 
d="M467 0v962h-310v155h496v-962h311v-155h-497z" />
    <glyph glyph-name="IJ" unicode="&#x132;" 
d="M350 34l0.000976562 190c145.333 -76.667 267 -115 365 -115c51.333 0 98.166 10 140.499 30s76 53.5 101 100.5s37.5 147.5 37.5 301.5v1011h202v-1016c0 -165.333 -18.833 -284.333 -56.5 -357s-90.5 -128.5 -158.5 -167.5s-155 -58.5 -261 -58.5
c-118.667 0 -242 27 -370 81zM33.001 0v1552h202v-1552h-202z" />
    <glyph glyph-name="ij" unicode="&#x133;" 
d="M394 -438v174.001c104 -30.667 191.667 -46 263 -46c62 0 114.667 10.833 158 32.5s77.166 58.167 101.499 109.5s36.5 140.666 36.5 267.999v1017h186v-982c0 -189.333 -22.333 -320.833 -67 -394.5s-98.667 -126.5 -162 -158.5s-150 -48 -260 -48
c-79.333 0 -164.666 9.33301 -255.999 28zM922 1520c0 42 14.167 73.333 42.5 94s55.5 31 81.5 31s53.167 -10.333 81.5 -31s42.5 -52 42.5 -94c0 -41.333 -14.167 -72.333 -42.5 -93s-55.5 -31 -81.5 -31s-53.167 10.333 -81.5 31s-42.5 51.667 -42.5 93zM90 0.000976562
v1117h186v-1117h-186zM59 1520c0 42 14.333 73.333 43 94s55.667 31 81 31c26 0 53.333 -10.333 82 -31s43 -52 43 -94c0 -41.333 -14.333 -72.333 -43 -93s-56 -31 -82 -31c-25.333 0 -52.333 10.333 -81 31s-43 51.667 -43 93z" />
    <glyph glyph-name="Jcircumflex" unicode="&#x134;" 
d="M110 34l0.000976562 190c145.333 -76.667 267 -115 365 -115c51.333 0 98.166 10 140.499 30s76 53.5 101 100.5s37.5 147.5 37.5 301.5v855h-349v156h551v-1016c0 -165.333 -18.833 -284.333 -56.5 -357s-90.5 -128.5 -158.5 -167.5s-155 -58.5 -261 -58.5
c-118.667 0 -242 27 -370 81zM661.001 1822l-140 -168h-155l233 326h124l233 -326h-156z" />
    <glyph glyph-name="jcircumflex" unicode="&#x135;" 
d="M172 -438v174.001c104 -30.667 191.667 -46 263 -46c62 0 114.667 10.833 158 32.5s77.166 58.167 101.499 109.5s36.5 140.666 36.5 267.999v862h-474v155h660v-982c0 -189.333 -22.333 -320.833 -67 -394.5s-98.667 -126.5 -162 -158.5s-150 -48 -260 -48
c-79.333 0 -164.666 9.33301 -255.999 28zM663 1515l-140 -168h-155l233 326h124l233 -326h-156z" />
    <glyph glyph-name="Kcommaaccent" unicode="&#x136;" 
d="M157 0v1552h202v-761l577 761h214l-557 -737l635 -815h-253l-616 791v-791h-202zM653.584 -671.084l0.000976562 80.5947c31.1982 8.23242 54.9219 20.04 71.1709 35.4229c16.249 15.3818 29.248 34.8809 38.9971 58.4961c9.74902 23.6162 14.624 52.1064 14.624 85.4707
c-40.2979 0 -69.9795 11.374 -89.0449 34.123s-28.5977 47.123 -28.5977 73.1221c0 29.8975 10.6162 55.1377 31.8477 75.7207c21.2324 20.582 45.9307 30.873 74.0957 30.873c36.3984 0 67.8135 -15.707 94.2451 -47.1221s39.6475 -74.4209 39.6475 -129.018
c0 -47.6641 -10.3994 -92.6201 -31.1982 -134.868c-20.7988 -42.2471 -49.0723 -78.3203 -84.8203 -108.219s-79.4043 -48.0977 -130.968 -54.5967z" />
    <glyph glyph-name="kcommaaccent" unicode="&#x137;" 
d="M205 0v1614h186v-1014l537 517h248l-536 -517l550 -600h-256l-543 600v-600h-186zM575.584 -671.084l0.000976562 80.5947c31.1982 8.23242 54.9219 20.04 71.1709 35.4229c16.249 15.3818 29.248 34.8809 38.9971 58.4961
c9.74902 23.6162 14.624 52.1064 14.624 85.4707c-40.2979 0 -69.9795 11.374 -89.0449 34.123s-28.5977 47.123 -28.5977 73.1221c0 29.8975 10.6162 55.1377 31.8477 75.7207c21.2324 20.582 45.9307 30.873 74.0957 30.873c36.3984 0 67.8135 -15.707 94.2451 -47.1221
s39.6475 -74.4209 39.6475 -129.018c0 -47.6641 -10.3994 -92.6201 -31.1982 -134.868c-20.7988 -42.2471 -49.0723 -78.3203 -84.8203 -108.219s-79.4043 -48.0977 -130.968 -54.5967z" />
    <glyph glyph-name="kgreenlandic" unicode="&#x138;" 
d="M205 0v1117h186v-517l537 517h248l-536 -517l550 -600h-256l-543 600v-600h-186z" />
    <glyph glyph-name="Lacute" unicode="&#x139;" 
d="M1057 171v-171h-838v1552h202v-1381h636zM227 1654l296 326h216l-342 -326h-170z" />
    <glyph glyph-name="lacute" unicode="&#x13a;" 
d="M455 0v1458h-334v156h520v-1459h349v-155h-535zM307 1716l296 326h216l-342 -326h-170z" />
    <glyph glyph-name="Lcommaaccent" unicode="&#x13b;" 
d="M1057 171v-171h-838v1552h202v-1381h636zM575.584 -671.084l0.000976562 80.5947c31.1982 8.23242 54.9219 20.04 71.1709 35.4229c16.249 15.3818 29.248 34.8809 38.9971 58.4961c9.74902 23.6162 14.624 52.1064 14.624 85.4707
c-40.2979 0 -69.9795 11.374 -89.0449 34.123s-28.5977 47.123 -28.5977 73.1221c0 29.8975 10.6162 55.1377 31.8477 75.7207c21.2324 20.582 45.9307 30.873 74.0957 30.873c36.3984 0 67.8135 -15.707 94.2451 -47.1221s39.6475 -74.4209 39.6475 -129.018
c0 -47.6641 -10.3994 -92.6201 -31.1982 -134.868c-20.7988 -42.2471 -49.0723 -78.3203 -84.8203 -108.219s-79.4043 -48.0977 -130.968 -54.5967z" />
    <glyph glyph-name="lcommaaccent" unicode="&#x13c;" 
d="M455 0v1458h-334v156h520v-1459h349v-155h-535zM575.584 -671.084l0.000976562 80.5947c31.1982 8.23242 54.9219 20.04 71.1709 35.4229c16.249 15.3818 29.248 34.8809 38.9971 58.4961c9.74902 23.6162 14.624 52.1064 14.624 85.4707
c-40.2979 0 -69.9795 11.374 -89.0449 34.123s-28.5977 47.123 -28.5977 73.1221c0 29.8975 10.6162 55.1377 31.8477 75.7207c21.2324 20.582 45.9307 30.873 74.0957 30.873c36.3984 0 67.8135 -15.707 94.2451 -47.1221s39.6475 -74.4209 39.6475 -129.018
c0 -47.6641 -10.3994 -92.6201 -31.1982 -134.868c-20.7988 -42.2471 -49.0723 -78.3203 -84.8203 -108.219s-79.4043 -48.0977 -130.968 -54.5967z" />
    <glyph glyph-name="Lcaron" unicode="&#x13d;" 
d="M1057 171v-171h-838v1552h202v-1381h636zM928.61 1074.81l-0.000976562 80.625c31.2012 8.23535 54.9268 20.0479 71.1777 35.4365c16.251 15.3877 29.251 34.8936 39.001 58.5176c9.75098 23.624 14.626 52.125 14.626 85.502
c-40.3018 0 -69.9863 11.3789 -89.0537 34.1367c-19.0674 22.7568 -28.6006 47.1396 -28.6006 73.1484c0 29.9092 10.6172 55.1592 31.8506 75.75c21.2344 20.5898 45.9355 30.8848 74.1035 30.8848c36.4014 0 67.8193 -15.7139 94.2539 -47.1406
s39.6514 -74.4482 39.6514 -129.065c0 -47.6826 -10.4004 -92.6553 -31.2012 -134.919c-20.8008 -42.2627 -49.0771 -78.3486 -84.8281 -108.258c-35.751 -29.9102 -79.4111 -48.1162 -130.979 -54.6182z" />
    <glyph glyph-name="lcaron" unicode="&#x13e;" 
d="M455 0v1458h-334v156h520v-1459h349v-155h-535zM973.61 1136.81l-0.000976562 80.625c31.2012 8.23535 54.9268 20.0479 71.1777 35.4365c16.251 15.3877 29.251 34.8936 39.001 58.5176c9.75098 23.624 14.626 52.125 14.626 85.502
c-40.3018 0 -69.9863 11.3789 -89.0537 34.1367c-19.0674 22.7568 -28.6006 47.1396 -28.6006 73.1484c0 29.9092 10.6172 55.1592 31.8506 75.75c21.2344 20.5898 45.9355 30.8848 74.1035 30.8848c36.4014 0 67.8193 -15.7139 94.2539 -47.1406
s39.6514 -74.4482 39.6514 -129.065c0 -47.6826 -10.4004 -92.6553 -31.2012 -134.919c-20.8008 -42.2627 -49.0771 -78.3486 -84.8281 -108.258c-35.751 -29.9102 -79.4111 -48.1162 -130.979 -54.6182z" />
    <glyph glyph-name="Ldotaccent" unicode="&#x13f;" 
d="M1057 171v-171h-838v1552h202v-1381h636zM844 601c-34 0 -62.999 11.833 -86.999 35.5s-36 52.5 -36 86.5s12.167 63 36.5 87s53.166 36 86.499 36c32.667 0 61.167 -12 85.5 -36s36.5 -53 36.5 -87s-12 -62.833 -36 -86.5s-52.667 -35.5 -86 -35.5z" />
    <glyph glyph-name="ldotaccent" unicode="&#x140;" 
d="M455 0v1458h-334v156h520v-1459h349v-155h-535zM1036 732c-34 0 -62.999 11.833 -86.999 35.5s-36 52.5 -36 86.5s12.167 63 36.5 87s53.166 36 86.499 36c32.667 0 61.167 -12 85.5 -36s36.5 -53 36.5 -87s-12 -62.833 -36 -86.5s-52.667 -35.5 -86 -35.5z" />
    <glyph glyph-name="Lslash" unicode="&#x141;" 
d="M1057 171v-171h-838v697l-217 -78v160l217 81v692h202v-617l225 79v-164l-225 -79v-600h636z" />
    <glyph glyph-name="lslash" unicode="&#x142;" 
d="M452 0v695l-334 -129v168l334 129v595h-334v156h520v-679l349 133v-168l-349 -134v-611h349v-155h-535z" />
    <glyph glyph-name="Nacute" unicode="&#x143;" 
d="M312 0h-186v1552h182l549 -1033l60 -154h5l-5 154v1033h186v-1552h-186l-534 1016l-75 163l4 -161v-1018zM358 1654l296 326h216l-342 -326h-170z" />
    <glyph glyph-name="nacute" unicode="&#x144;" 
d="M155 0l0.00292969 1117h186v-244c53.333 86 117.666 153.333 192.999 202s150.666 73 225.999 73c66 0 126 -17.5 180 -52.5s91.833 -80.833 113.5 -137.5s32.5 -168 32.5 -334v-624h-186v647c0 107.333 -5.16699 178.166 -15.5 212.499s-29.333 62.5 -57 84.5
s-57.834 33 -90.501 33c-65.333 0 -135.5 -31 -210.5 -93s-136.833 -139.667 -185.5 -233v-651h-186zM364.003 1258l296 326h216l-342 -326h-170z" />
    <glyph glyph-name="Ncommaaccent" unicode="&#x145;" 
d="M312 0h-186v1552h182l549 -1033l60 -154h5l-5 154v1033h186v-1552h-186l-534 1016l-75 163l4 -161v-1018zM575.584 -671.084l0.000976562 80.5947c31.1982 8.23242 54.9219 20.04 71.1709 35.4229c16.249 15.3818 29.248 34.8809 38.9971 58.4961
c9.74902 23.6162 14.624 52.1064 14.624 85.4707c-40.2979 0 -69.9795 11.374 -89.0449 34.123s-28.5977 47.123 -28.5977 73.1221c0 29.8975 10.6162 55.1377 31.8477 75.7207c21.2324 20.582 45.9307 30.873 74.0957 30.873c36.3984 0 67.8135 -15.707 94.2451 -47.1221
s39.6475 -74.4209 39.6475 -129.018c0 -47.6641 -10.3994 -92.6201 -31.1982 -134.868c-20.7988 -42.2471 -49.0723 -78.3203 -84.8203 -108.219s-79.4043 -48.0977 -130.968 -54.5967z" />
    <glyph glyph-name="ncommaaccent" unicode="&#x146;" 
d="M155 0l0.00292969 1117h186v-244c53.333 86 117.666 153.333 192.999 202s150.666 73 225.999 73c66 0 126 -17.5 180 -52.5s91.833 -80.833 113.5 -137.5s32.5 -168 32.5 -334v-624h-186v647c0 107.333 -5.16699 178.166 -15.5 212.499s-29.333 62.5 -57 84.5
s-57.834 33 -90.501 33c-65.333 0 -135.5 -31 -210.5 -93s-136.833 -139.667 -185.5 -233v-651h-186zM497.613 -602.109l-0.000976562 80.6016c31.2012 8.2334 54.9268 20.042 71.1777 35.4258s29.251 34.8848 39.001 58.5029
c9.75098 23.6182 14.626 52.1113 14.626 85.4795c-40.3018 0 -69.9863 11.375 -89.0537 34.126s-28.6006 47.127 -28.6006 73.1279c0 29.9014 10.6172 55.1436 31.8506 75.7275c21.2344 20.584 45.9355 30.876 74.1035 30.876c36.4014 0 67.8193 -15.709 94.2539 -47.126
c26.4346 -31.418 39.6514 -74.4277 39.6514 -129.03c0 -47.6689 -10.4004 -92.6289 -31.2012 -134.88c-20.8008 -42.252 -49.0771 -78.3281 -84.8281 -108.229s-79.4111 -48.1016 -130.979 -54.6016z" />
    <glyph glyph-name="Ncaron" unicode="&#x147;" 
d="M312 0h-186v1552h182l549 -1033l60 -154h5l-5 154v1033h186v-1552h-186l-534 1016l-75 163l4 -161v-1018zM615 1812l139 168h156l-233 -326h-124l-233 326h155z" />
    <glyph glyph-name="ncaron" unicode="&#x148;" 
d="M155 0l0.00292969 1117h186v-244c53.333 86 117.666 153.333 192.999 202s150.666 73 225.999 73c66 0 126 -17.5 180 -52.5s91.833 -80.833 113.5 -137.5s32.5 -168 32.5 -334v-624h-186v647c0 107.333 -5.16699 178.166 -15.5 212.499s-29.333 62.5 -57 84.5
s-57.834 33 -90.501 33c-65.333 0 -135.5 -31 -210.5 -93s-136.833 -139.667 -185.5 -233v-651h-186zM620.003 1416l139 168h156l-233 -326h-124l-233 326h155z" />
    <glyph glyph-name="napostrophe" unicode="&#x149;" 
d="M100 1255.86v93.833c36 9.50879 63.375 23.0205 82.125 40.5361s33.75 39.9111 45 67.1855s16.875 60.4287 16.875 99.4639c-46.5 0 -80.75 13.1367 -102.75 39.4102s-33 54.1738 -33 83.7002c0 35.0312 12.25 64.4326 36.75 88.2031
c24.5 23.7715 53 35.6572 85.5 35.6572c42 0 78.25 -18.1416 108.75 -54.4238s45.75 -85.9512 45.75 -149.007c0 -55.5498 -12 -107.597 -36 -156.14c-24 -48.5439 -56.625 -90.0811 -97.875 -124.611c-41.25 -34.5312 -91.625 -55.8008 -151.125 -63.8076z
M285 -0.000976562l0.00292969 1117h186v-244c53.333 86 117.666 153.333 192.999 202s150.666 73 225.999 73c66 0 126 -17.5 180 -52.5s91.833 -80.833 113.5 -137.5s32.5 -168 32.5 -334v-624h-186v647c0 107.333 -5.16699 178.166 -15.5 212.499s-29.333 62.5 -57 84.5
s-57.834 33 -90.501 33c-65.333 0 -135.5 -31 -210.5 -93s-136.833 -139.667 -185.5 -233v-651h-186z" />
    <glyph glyph-name="Eng" unicode="&#x14a;" 
d="M358 -438v174c104 -30.667 191.667 -46 263 -46c62 0 114.667 10.833 158 32.5s77 58.167 101 109.5c18 38 29.333 95.667 34 173l-531 1011l-75 163l4 -161v-1018h-186v1552h182l549 -1033l60 -154h5l-5 154v1033h186v-1417v-28v-107h-5
c-8.66699 -118 -29.334 -204.333 -62.001 -259c-44.667 -74 -98.667 -127 -162 -159s-150 -48 -260 -48c-79.333 0 -164.666 9.33301 -255.999 28z" />
    <glyph glyph-name="eng" unicode="&#x14b;" 
d="M341 -438l0.00390625 174.002c104 -30.667 191.667 -46 263 -46c62 0 114.667 10.833 158 32.5s77.166 58.167 101.499 109.5s36.5 140.666 36.5 267.999v547c0 107.333 -5.16699 178.166 -15.5 212.499s-29.333 62.5 -57 84.5s-57.834 33 -90.501 33
c-65.333 0 -135.5 -31 -210.5 -93s-136.833 -139.667 -185.5 -233v-651h-186v1117h186v-244c53.333 86 117.666 153.333 192.999 202s150.666 73 225.999 73c66 0 126 -17.5 180 -52.5s91.833 -80.833 113.5 -137.5s32.5 -168 32.5 -334v-624h-5
c-8.66699 -118 -29.334 -204.333 -62.001 -259c-44.667 -74 -98.667 -127 -162 -159s-150 -48 -260 -48c-79.333 0 -164.666 9.33301 -255.999 28z" />
    <glyph glyph-name="Omacron" unicode="&#x14c;" 
d="M614 -47c-176 0 -310.5 74.167 -403.5 222.5s-139.5 348.5 -139.5 600.5c0 251.333 46.5 451.166 139.5 599.499s227.5 222.5 403.5 222.5c176.667 0 311.334 -74.167 404.001 -222.5s139 -348.166 139 -599.499c0 -252 -46.333 -452.167 -139 -600.5
s-227.334 -222.5 -404.001 -222.5zM614 109c97.333 0 178.5 55.167 243.5 165.5s97.5 277.5 97.5 501.5s-32.5 391.167 -97.5 501.5s-146.167 165.5 -243.5 165.5s-178.5 -55.167 -243.5 -165.5s-97.5 -277.5 -97.5 -501.5s32.5 -391.167 97.5 -501.5
s146.167 -165.5 243.5 -165.5zM335 1700v124h559v-124h-559z" />
    <glyph glyph-name="omacron" unicode="&#x14d;" 
d="M615 -31c-160 0 -288 55.833 -384 167.5s-144 252.5 -144 422.5s48 310.667 144 422s224 167 384 167c159.333 0 287 -55.667 383 -167s144 -252 144 -422s-48 -310.833 -144 -422.5s-223.667 -167.5 -383 -167.5zM615 124c99.333 0 178.333 38.667 237 116
s88 183.666 88 318.999c0 134.667 -29.333 240.667 -88 318s-137.667 116 -237 116c-100 0 -179.333 -38.667 -238 -116s-88 -183.333 -88 -318c0 -135.333 29.333 -241.666 88 -318.999s138 -116 238 -116zM335 1258v124h559v-124h-559z" />
    <glyph glyph-name="Obreve" unicode="&#x14e;" 
d="M614 -47c-176 0 -310.5 74.167 -403.5 222.5s-139.5 348.5 -139.5 600.5c0 251.333 46.5 451.166 139.5 599.499s227.5 222.5 403.5 222.5c176.667 0 311.334 -74.167 404.001 -222.5s139 -348.166 139 -599.499c0 -252 -46.333 -452.167 -139 -600.5
s-227.334 -222.5 -404.001 -222.5zM614 109c97.333 0 178.5 55.167 243.5 165.5s97.5 277.5 97.5 501.5s-32.5 391.167 -97.5 501.5s-146.167 165.5 -243.5 165.5s-178.5 -55.167 -243.5 -165.5s-97.5 -277.5 -97.5 -501.5s32.5 -391.167 97.5 -501.5
s146.167 -165.5 243.5 -165.5zM448 2026c6 -51.333 25.333 -96.5 58 -135.5s69.334 -58.5 110.001 -58.5s77 19.833 109 59.5s51 84.5 57 134.5h128c-8 -74 -26.833 -133.833 -56.5 -179.5s-65.5 -81.5 -107.5 -107.5s-85.333 -39 -130 -39s-88.167 13 -130.5 39
s-78.333 61.833 -108 107.5s-48.834 105.5 -57.501 179.5h128z" />
    <glyph glyph-name="obreve" unicode="&#x14f;" 
d="M615 -31c-160 0 -288 55.833 -384 167.5s-144 252.5 -144 422.5s48 310.667 144 422s224 167 384 167c159.333 0 287 -55.667 383 -167s144 -252 144 -422s-48 -310.833 -144 -422.5s-223.667 -167.5 -383 -167.5zM615 124c99.333 0 178.333 38.667 237 116
s88 183.666 88 318.999c0 134.667 -29.333 240.667 -88 318s-137.667 116 -237 116c-100 0 -179.333 -38.667 -238 -116s-88 -183.333 -88 -318c0 -135.333 29.333 -241.666 88 -318.999s138 -116 238 -116zM448 1584c6 -51.333 25.333 -96.5 58 -135.5
s69.334 -58.5 110.001 -58.5s77 19.833 109 59.5s51 84.5 57 134.5h128c-8 -74 -26.833 -133.833 -56.5 -179.5s-65.5 -81.5 -107.5 -107.5s-85.333 -39 -130 -39s-88.167 13 -130.5 39s-78.333 61.833 -108 107.5s-48.834 105.5 -57.501 179.5h128z" />
    <glyph glyph-name="Ohungarumlaut" unicode="&#x150;" 
d="M614 -47c-176 0 -310.5 74.167 -403.5 222.5s-139.5 348.5 -139.5 600.5c0 251.333 46.5 451.166 139.5 599.499s227.5 222.5 403.5 222.5c176.667 0 311.334 -74.167 404.001 -222.5s139 -348.166 139 -599.499c0 -252 -46.333 -452.167 -139 -600.5
s-227.334 -222.5 -404.001 -222.5zM614 109c97.333 0 178.5 55.167 243.5 165.5s97.5 277.5 97.5 501.5s-32.5 391.167 -97.5 501.5s-146.167 165.5 -243.5 165.5s-178.5 -55.167 -243.5 -165.5s-97.5 -277.5 -97.5 -501.5s32.5 -391.167 97.5 -501.5
s146.167 -165.5 243.5 -165.5zM544 1700h-116l142 326h123zM818 1700h-118l145 326h126z" />
    <glyph glyph-name="ohungarumlaut" unicode="&#x151;" 
d="M615 -31c-160 0 -288 55.833 -384 167.5s-144 252.5 -144 422.5s48 310.667 144 422s224 167 384 167c159.333 0 287 -55.667 383 -167s144 -252 144 -422s-48 -310.833 -144 -422.5s-223.667 -167.5 -383 -167.5zM615 124c99.333 0 178.333 38.667 237 116
s88 183.666 88 318.999c0 134.667 -29.333 240.667 -88 318s-137.667 116 -237 116c-100 0 -179.333 -38.667 -238 -116s-88 -183.333 -88 -318c0 -135.333 29.333 -241.666 88 -318.999s138 -116 238 -116zM537 1258h-116l142 326h123zM811 1258h-118l145 326h126z" />
    <glyph glyph-name="OE" unicode="&#x152;" 
d="M1184 0l-551 0.000976562v39c-45.333 -40 -79.833 -61.833 -103.5 -65.5s-41.5 -5.5 -53.5 -5.5c-76.667 0 -150.5 31.333 -221.5 94s-125.167 160.5 -162.5 293.5s-56 279.5 -56 439.5c0 168 20.5 314.167 61.5 438.5s95.833 213.666 164.5 267.999s141 81.5 217 81.5
c22 0 44.667 -3.33301 68 -10s52 -26.667 86 -60v39h536v-156h-349v-535h333v-155h-333v-535h364v-171zM633 521.001v501c0 176.667 -12.5 288.5 -37.5 335.5s-61.5 70.5 -109.5 70.5c-87.333 0 -150.5 -61.5 -189.5 -184.5s-58.5 -277.5 -58.5 -463.5
c0 -165.333 18.5 -316 55.5 -452s102.5 -204 196.5 -204c46.667 0 82.167 23.5 106.5 70.5s36.5 155.833 36.5 326.5z" />
    <glyph glyph-name="oe" unicode="&#x153;" 
d="M625 135c-39.333 -74 -80.8281 -120.167 -124.495 -138.5s-83.5 -27.5 -119.5 -27.5c-58.667 0 -111.667 21 -159 63s-85 111.5 -113 208.5s-42 206.833 -42 329.5c0 144.667 25.5 277.167 76.5 397.5s137.167 180.5 258.5 180.5c53.333 0 99.666 -13.833 138.999 -41.5
s72 -69.167 98 -124.5c29.333 55.333 63.666 96.833 102.999 124.5s83.666 41.5 132.999 41.5c79.333 0 146.833 -37.5 202.5 -112.5s83.5 -221.167 83.5 -438.5v-62h-404v-61c0 -118.667 8.16699 -197.5 24.5 -236.5s38.666 -67.667 66.999 -86s59.166 -27.5 92.499 -27.5
c68.667 0 142 26 220 78v-173c-94 -40 -177.667 -60 -251 -60c-56.667 0 -108.5 10.833 -155.5 32.5s-90.167 66.167 -129.5 133.5zM571.005 493l0.000976562 102.003c0 84.667 -2.16699 144 -6.5 178s-12.5 68 -24.5 102c-12 33.333 -29.5 61.833 -52.5 85.5
s-48.167 34.5 -75.5 32.5c-56.667 -3.33301 -98.667 -46.333 -126 -129s-41 -189.334 -41 -320.001c0 -110.667 13.167 -208.334 39.5 -293.001s70.166 -127 131.499 -127c44.667 0 81.667 28.667 111 86s44 151.666 44 282.999zM757.006 667.003h218v33
c0 123.333 -10 203 -30 239s-45.667 54 -77 54c-32 0 -58.5 -23.167 -79.5 -69.5s-31.5 -120.5 -31.5 -222.5v-34z" />
    <glyph glyph-name="Racute" unicode="&#x154;" 
d="M351 659v-658.998h-202v1552h415c135.333 0 235 -13.833 299 -41.5s113.5 -69.5 148.5 -125.5s52.5 -116.333 52.5 -181c0 -60 -11.667 -120.333 -35 -181s-55.5 -114.834 -96.5 -162.501s-100.167 -92.834 -177.5 -135.501l449 -725h-240l-411 659h-202zM351 815.002
l283 -0.000976562c63.333 34.667 110.5 70 141.5 106s54.5 74.333 70.5 115s24 81.334 24 122.001c0 72.667 -26.5 130.5 -79.5 173.5s-149.167 64.5 -288.5 64.5h-151v-581zM420 1654l296 326h216l-342 -326h-170z" />
    <glyph glyph-name="racute" unicode="&#x155;" 
d="M250 0l0.000976562 1117h186v-244c58 92 124.5 160.833 199.5 206.5s158.5 68.5 250.5 68.5c67.333 0 134.666 -10.333 201.999 -31v-403h-179v255c-31.333 5.33301 -56 8 -74 8c-69.333 0 -137.333 -27.333 -204 -82s-131.667 -136.667 -195 -246v-649h-186z
M413.001 1258l296 326h216l-342 -326h-170z" />
    <glyph glyph-name="Rcommaaccent" unicode="&#x156;" 
d="M351 659v-658.998h-202v1552h415c135.333 0 235 -13.833 299 -41.5s113.5 -69.5 148.5 -125.5s52.5 -116.333 52.5 -181c0 -60 -11.667 -120.333 -35 -181s-55.5 -114.834 -96.5 -162.501s-100.167 -92.834 -177.5 -135.501l449 -725h-240l-411 659h-202zM351 815.002
l283 -0.000976562c63.333 34.667 110.5 70 141.5 106s54.5 74.333 70.5 115s24 81.334 24 122.001c0 72.667 -26.5 130.5 -79.5 173.5s-149.167 64.5 -288.5 64.5h-151v-581zM575.584 -671.083l0.000976562 80.5947c31.1982 8.23242 54.9219 20.04 71.1709 35.4229
c16.249 15.3818 29.248 34.8809 38.9971 58.4961c9.74902 23.6162 14.624 52.1064 14.624 85.4707c-40.2979 0 -69.9795 11.374 -89.0449 34.123s-28.5977 47.123 -28.5977 73.1221c0 29.8975 10.6162 55.1377 31.8477 75.7207
c21.2324 20.582 45.9307 30.873 74.0957 30.873c36.3984 0 67.8135 -15.707 94.2451 -47.1221s39.6475 -74.4209 39.6475 -129.018c0 -47.6641 -10.3994 -92.6201 -31.1982 -134.868c-20.7988 -42.2471 -49.0723 -78.3203 -84.8203 -108.219
s-79.4043 -48.0977 -130.968 -54.5967z" />
    <glyph glyph-name="rcommaaccent" unicode="&#x157;" 
d="M250 0l0.000976562 1117h186v-244c58 92 124.5 160.833 199.5 206.5s158.5 68.5 250.5 68.5c67.333 0 134.666 -10.333 201.999 -31v-403h-179v255c-31.333 5.33301 -56 8 -74 8c-69.333 0 -137.333 -27.333 -204 -82s-131.667 -136.667 -195 -246v-649h-186z
M630.585 -671.084l0.000976562 80.5947c31.1982 8.23242 54.9219 20.04 71.1709 35.4229c16.249 15.3818 29.248 34.8809 38.9971 58.4961c9.74902 23.6162 14.624 52.1064 14.624 85.4707c-40.2979 0 -69.9795 11.374 -89.0449 34.123s-28.5977 47.123 -28.5977 73.1221
c0 29.8975 10.6162 55.1377 31.8477 75.7207c21.2324 20.582 45.9307 30.873 74.0957 30.873c36.3984 0 67.8135 -15.707 94.2451 -47.1221s39.6475 -74.4209 39.6475 -129.018c0 -47.6641 -10.3994 -92.6201 -31.1982 -134.868
c-20.7988 -42.2471 -49.0723 -78.3203 -84.8203 -108.219s-79.4043 -48.0977 -130.968 -54.5967z" />
    <glyph glyph-name="Rcaron" unicode="&#x158;" 
d="M351 659v-658.998h-202v1552h415c135.333 0 235 -13.833 299 -41.5s113.5 -69.5 148.5 -125.5s52.5 -116.333 52.5 -181c0 -60 -11.667 -120.333 -35 -181s-55.5 -114.834 -96.5 -162.501s-100.167 -92.834 -177.5 -135.501l449 -725h-240l-411 659h-202zM351 815.002
l283 -0.000976562c63.333 34.667 110.5 70 141.5 106s54.5 74.333 70.5 115s24 81.334 24 122.001c0 72.667 -26.5 130.5 -79.5 173.5s-149.167 64.5 -288.5 64.5h-151v-581zM568 1812l139 168h156l-233 -326h-124l-233 326h155z" />
    <glyph glyph-name="rcaron" unicode="&#x159;" 
d="M250 0l0.000976562 1117h186v-244c58 92 124.5 160.833 199.5 206.5s158.5 68.5 250.5 68.5c67.333 0 134.666 -10.333 201.999 -31v-403h-179v255c-31.333 5.33301 -56 8 -74 8c-69.333 0 -137.333 -27.333 -204 -82s-131.667 -136.667 -195 -246v-649h-186z
M669.001 1416l139 168h156l-233 -326h-124l-233 326h155z" />
    <glyph glyph-name="Sacute" unicode="&#x15a;" 
d="M157 33v190c160 -76 305.333 -114 436 -114c54.667 0 107 10.5 157 31.5s87.833 51.167 113.5 90.5s38.5 82 38.5 128c0 54 -17.667 104.5 -53 151.5s-101.666 98.833 -198.999 155.5l-102 59l-103 59c-181.333 107.333 -272 240.666 -272 399.999
c0 116.667 40.5 214.834 121.5 294.501s207.5 119.5 379.5 119.5c110.667 0 217.667 -16 321 -48v-173c-114 44 -225 66 -333 66c-86 0 -155.5 -22.667 -208.5 -68s-79.5 -100 -79.5 -164c0 -63.333 20.333 -116 61 -158s92.667 -80.667 156 -116l78 -47l97 -59l82 -48
c170 -104 255 -234.667 255 -392c0 -120 -43.667 -223 -131 -309s-227.333 -129 -420 -129c-61.333 0 -119.833 5.16699 -175.5 15.5s-128.834 31.833 -219.501 64.5zM374 1700l296 326h216l-342 -326h-170z" />
    <glyph glyph-name="sacute" unicode="&#x15b;" 
d="M168 59v197.004c74.667 -48.667 153.667 -82.834 237 -102.501s154 -29.5 212 -29.5c94 0 161.667 15.167 203 45.5s62 68.166 62 113.499c0 30 -9.66699 55.667 -29 77s-67.333 47.666 -144 78.999l-64 26l-129 51c-138.667 54 -226 104 -262 150
c-36.667 45.333 -55 100.666 -55 165.999c0 92 35.5 167.667 106.5 227s186.167 89 345.5 89c119.333 0 232.333 -17.333 339 -52v-169c-122.667 44 -238 66 -346 66c-78.667 0 -140.167 -13.833 -184.5 -41.5s-66.5 -62.167 -66.5 -103.5c0 -40 19.333 -72 58 -96
c38 -24 100 -51.667 186 -83l126 -46c115.333 -42 196.333 -87.667 243 -137s70 -111 70 -185c0 -96.667 -37.167 -176.167 -111.5 -238.5s-193.166 -93.5 -356.499 -93.5c-142.667 0 -289.334 30 -440.001 90zM366 1258l296 326h216l-342 -326h-170z" />
    <glyph glyph-name="Scircumflex" unicode="&#x15c;" 
d="M157 33v190c160 -76 305.333 -114 436 -114c54.667 0 107 10.5 157 31.5s87.833 51.167 113.5 90.5s38.5 82 38.5 128c0 54 -17.667 104.5 -53 151.5s-101.666 98.833 -198.999 155.5l-102 59l-103 59c-181.333 107.333 -272 240.666 -272 399.999
c0 116.667 40.5 214.834 121.5 294.501s207.5 119.5 379.5 119.5c110.667 0 217.667 -16 321 -48v-173c-114 44 -225 66 -333 66c-86 0 -155.5 -22.667 -208.5 -68s-79.5 -100 -79.5 -164c0 -63.333 20.333 -116 61 -158s92.667 -80.667 156 -116l78 -47l97 -59l82 -48
c170 -104 255 -234.667 255 -392c0 -120 -43.667 -223 -131 -309s-227.333 -129 -420 -129c-61.333 0 -119.833 5.16699 -175.5 15.5s-128.834 31.833 -219.501 64.5zM630 1868l-140 -168h-155l233 326h124l233 -326h-156z" />
    <glyph glyph-name="scircumflex" unicode="&#x15d;" 
d="M168 59v197.004c74.667 -48.667 153.667 -82.834 237 -102.501s154 -29.5 212 -29.5c94 0 161.667 15.167 203 45.5s62 68.166 62 113.499c0 30 -9.66699 55.667 -29 77s-67.333 47.666 -144 78.999l-64 26l-129 51c-138.667 54 -226 104 -262 150
c-36.667 45.333 -55 100.666 -55 165.999c0 92 35.5 167.667 106.5 227s186.167 89 345.5 89c119.333 0 232.333 -17.333 339 -52v-169c-122.667 44 -238 66 -346 66c-78.667 0 -140.167 -13.833 -184.5 -41.5s-66.5 -62.167 -66.5 -103.5c0 -40 19.333 -72 58 -96
c38 -24 100 -51.667 186 -83l126 -46c115.333 -42 196.333 -87.667 243 -137s70 -111 70 -185c0 -96.667 -37.167 -176.167 -111.5 -238.5s-193.166 -93.5 -356.499 -93.5c-142.667 0 -289.334 30 -440.001 90zM622 1426l-140 -168h-155l233 326h124l233 -326h-156z" />
    <glyph glyph-name="Scedilla" unicode="&#x15e;" 
d="M536 -47c-38 0 -85.002 2.99902 -141.002 8.99902s-135.333 29.667 -238 71v190c160 -76 305.333 -114 436 -114c54.667 0 107 10.5 157 31.5s87.833 51.167 113.5 90.5s38.5 82 38.5 128c0 54 -17.667 104.5 -53 151.5s-101.666 98.833 -198.999 155.5l-102 59l-103 57
c-181.333 105.333 -272 239.333 -272 402c0 116.667 40.5 214.834 121.5 294.501s207.5 119.5 379.5 119.5c110.667 0 217.667 -16 321 -48v-173c-114 44 -225 66 -333 66c-86 0 -154.167 -22.667 -204.5 -68s-75.5 -100 -75.5 -164c0 -60.667 21.333 -113.5 64 -158.5
s91 -83.5 145 -115.5l78 -47l97 -59l82 -48c170 -104 255 -235.667 255 -395c0 -110.667 -36.167 -206.167 -108.5 -286.5s-188.5 -128.833 -348.5 -145.5l-48 -87c71.333 -14 118 -35.833 140 -65.5s33 -60.5 33 -92.5c0 -36.667 -14.667 -70.167 -44 -100.5
s-75.333 -45.5 -138 -45.5c-55.333 0 -108.333 9.33301 -159 28v89c38.667 -20.667 78.334 -31 119.001 -31c23.333 0 44.333 7 63 21s28 28.667 28 44c0 45.333 -62 74.333 -186 87z" />
    <glyph glyph-name="scedilla" unicode="&#x15f;" 
d="M566 -30c-54.667 0 -119.666 8.33691 -194.999 25.0039s-143 38 -203 64v197c74.667 -48.667 153.667 -82.834 237 -102.501s154 -29.5 212 -29.5c94 0 161.667 15.167 203 45.5s62 68.166 62 113.499c0 30 -9.66699 55.667 -29 77s-67.333 47.666 -144 78.999l-192 78
l-77 29c-83.333 33.333 -144.333 72.666 -183 117.999s-58 101.333 -58 168c0 92 35.5 167.667 106.5 227s186.167 89 345.5 89c119.333 0 232.333 -17.333 339 -52v-169c-122.667 44 -238 66 -346 66c-82 0 -144.333 -14.5 -187 -43.5s-64 -62.5 -64 -100.5
c0 -52 31.333 -91 94 -117l88 -37l62 -26l126 -46c118 -44 199.667 -90.333 245 -139s68 -109.667 68 -183c0 -52 -11.167 -99.667 -33.5 -143s-51.833 -78 -88.5 -104c-31.333 -22 -65.333 -39.667 -102 -53s-95.334 -23.333 -176.001 -30l-58 -102
c72 -14 119 -35.833 141 -65.5s33 -60.5 33 -92.5c0 -36.667 -14.833 -70.167 -44.5 -100.5s-75.5 -45.5 -137.5 -45.5c-55.333 0 -108.333 9.33301 -159 28v89c38.667 -20.667 78 -31 118 -31c24 0 45.167 7 63.5 21s27.5 28.667 27.5 44c0 45.333 -61.667 74.333 -185 87z
" />
    <glyph glyph-name="Scaron" unicode="&#x160;" 
d="M157 33v190c160 -76 305.333 -114 436 -114c54.667 0 107 10.5 157 31.5s87.833 51.167 113.5 90.5s38.5 82 38.5 128c0 54 -17.667 104.5 -53 151.5s-101.666 98.833 -198.999 155.5l-102 59l-103 59c-181.333 107.333 -272 240.666 -272 399.999
c0 116.667 40.5 214.834 121.5 294.501s207.5 119.5 379.5 119.5c110.667 0 217.667 -16 321 -48v-173c-114 44 -225 66 -333 66c-86 0 -155.5 -22.667 -208.5 -68s-79.5 -100 -79.5 -164c0 -63.333 20.333 -116 61 -158s92.667 -80.667 156 -116l78 -47l97 -59l82 -48
c170 -104 255 -234.667 255 -392c0 -120 -43.667 -223 -131 -309s-227.333 -129 -420 -129c-61.333 0 -119.833 5.16699 -175.5 15.5s-128.834 31.833 -219.501 64.5zM615 1880l139 168h156l-233 -326h-124l-233 326h155z" />
    <glyph glyph-name="scaron" unicode="&#x161;" 
d="M168 59v197.004c74.667 -48.667 153.667 -82.834 237 -102.501s154 -29.5 212 -29.5c94 0 161.667 15.167 203 45.5s62 68.166 62 113.499c0 30 -9.66699 55.667 -29 77s-67.333 47.666 -144 78.999l-64 26l-129 51c-138.667 54 -226 104 -262 150
c-36.667 45.333 -55 100.666 -55 165.999c0 92 35.5 167.667 106.5 227s186.167 89 345.5 89c119.333 0 232.333 -17.333 339 -52v-169c-122.667 44 -238 66 -346 66c-78.667 0 -140.167 -13.833 -184.5 -41.5s-66.5 -62.167 -66.5 -103.5c0 -40 19.333 -72 58 -96
c38 -24 100 -51.667 186 -83l126 -46c115.333 -42 196.333 -87.667 243 -137s70 -111 70 -185c0 -96.667 -37.167 -176.167 -111.5 -238.5s-193.166 -93.5 -356.499 -93.5c-142.667 0 -289.334 30 -440.001 90zM622 1446l139 168h156l-233 -326h-124l-233 326h155z" />
    <glyph glyph-name="Tcedilla" unicode="&#x162;" 
d="M513 0v1381h-465v171h1133v-171h-466v-1381h-202zM685 10l-73.001 -131c71.333 -14 118 -35.833 140 -65.5s33 -60.5 33 -92.5c0 -36.667 -14.667 -70.167 -44 -100.5s-75.333 -45.5 -138 -45.5c-55.333 0 -108.333 9.33301 -159 28v89
c38.667 -20.667 78.334 -31 119.001 -31c23.333 0 44.333 7 63 21s28 28.667 28 44c0 45.333 -62 74.333 -186 87l109 197h108z" />
    <glyph glyph-name="tcedilla" unicode="&#x163;" 
d="M1089 45c-87.333 -36.667 -150.668 -58.501 -190.001 -65.501s-77.333 -10.5 -114 -10.5c-78 0 -149.333 15 -214 45s-113.5 74.333 -146.5 133s-49.5 149.334 -49.5 272.001v450h-279v155h279v450h186v-450h497v-155h-497v-447c0 -90 10.667 -153.5 32 -190.5
s49.833 -64.167 85.5 -81.5s77.834 -26 126.501 -26c90 0 184.667 28.333 284 85v-164zM792.998 -0.000976562l-73.001 -131c71.333 -14 118 -35.833 140 -65.5s33 -60.5 33 -92.5c0 -36.667 -14.667 -70.167 -44 -100.5s-75.333 -45.5 -138 -45.5
c-55.333 0 -108.333 9.33301 -159 28v89c38.667 -20.667 78.334 -31 119.001 -31c23.333 0 44.333 7 63 21s28 28.667 28 44c0 45.333 -62 74.333 -186 87l109 197h108z" />
    <glyph glyph-name="Tcaron" unicode="&#x164;" 
d="M513 0v1381h-465v171h1133v-171h-466v-1381h-202zM615 1812l139 168h156l-233 -326h-124l-233 326h155z" />
    <glyph glyph-name="tcaron" unicode="&#x165;" 
d="M1089 45c-87.333 -36.667 -150.668 -58.501 -190.001 -65.501s-77.333 -10.5 -114 -10.5c-78 0 -149.333 15 -214 45s-113.5 74.333 -146.5 133s-49.5 149.334 -49.5 272.001v450h-279v155h279v450h186v-450h497v-155h-497v-447c0 -90 10.667 -153.5 32 -190.5
s49.833 -64.167 85.5 -81.5s77.834 -26 126.501 -26c90 0 184.667 28.333 284 85v-164zM941.998 1225.86v93.833c36 9.50879 63.375 23.0205 82.125 40.5361s33.75 39.9111 45 67.1855s16.875 60.4287 16.875 99.4639c-46.5 0 -80.75 13.1367 -102.75 39.4102
s-33 54.1738 -33 83.7002c0 35.0312 12.25 64.4326 36.75 88.2031c24.5 23.7715 53 35.6572 85.5 35.6572c42 0 78.25 -18.1416 108.75 -54.4238s45.75 -85.9512 45.75 -149.007c0 -55.5498 -12 -107.597 -36 -156.14c-24 -48.5439 -56.625 -90.0811 -97.875 -124.611
c-41.25 -34.5312 -91.625 -55.8008 -151.125 -63.8076z" />
    <glyph glyph-name="Tbar" unicode="&#x166;" 
d="M513 0v1381h-465v171h1133v-171h-466v-1381h-202zM335 722v124h559v-124h-559z" />
    <glyph glyph-name="tbar" unicode="&#x167;" 
d="M1089 45c-87.333 -36.667 -150.668 -58.501 -190.001 -65.501s-77.333 -10.5 -114 -10.5c-78 0 -149.333 15 -214 45s-113.5 74.333 -146.5 133s-49.5 149.334 -49.5 272.001v450h-279v155h279v450h186v-450h497v-155h-497v-447c0 -90 10.667 -153.5 32 -190.5
s49.833 -64.167 85.5 -81.5s77.834 -26 126.501 -26c90 0 184.667 28.333 284 85v-164zM182.998 468.999v124h559v-124h-559z" />
    <glyph glyph-name="Utilde" unicode="&#x168;" 
d="M126 1552l202 0.000976562v-1019c0 -134 11.167 -225.5 33.5 -274.5s56.666 -86.333 102.999 -112s97.833 -38.5 154.5 -38.5c60 0 113.5 13.833 160.5 41.5s81.667 71 104 130s33.5 169.833 33.5 332.5v940h186v-1013c0 -144.667 -21.5 -257.834 -64.5 -339.501
s-99.167 -143.167 -168.5 -184.5s-156.666 -62 -261.999 -62c-97.333 0 -183 18 -257 54s-130 90 -168 162s-57 202 -57 390v993zM414 1655l-124.998 -0.000976562c0 88 17.167 152.667 51.5 194s77.5 62 129.5 62c41.333 0 83.333 -13.333 126 -40l42 -25
c55.333 -34.667 94 -52 116 -52c40 0 60 39 60 117h127c-4 -68 -13 -117.667 -27 -149s-35.5 -57.166 -64.5 -77.499s-60.833 -30.5 -95.5 -30.5c-43.333 0 -90.333 16.333 -141 49l-44 28l-24 17c-22.667 15.333 -44.334 23 -65.001 23
c-14.667 0 -29.334 -7.66699 -44.001 -23s-22 -46.333 -22 -93z" />
    <glyph glyph-name="utilde" unicode="&#x169;" 
d="M1074 1117l-0.00292969 -1117h-186v245c-60 -92 -126.667 -161 -200 -207s-146.666 -69 -219.999 -69c-65.333 0 -125.166 17.5 -179.499 52.5s-92.166 81 -113.499 138s-32 168.167 -32 333.5v624h186v-647c0 -107.333 5.16699 -178.166 15.5 -212.499
s29.333 -62.5 57 -84.5s57.5 -33 89.5 -33c65.333 0 135.5 30.833 210.5 92.5s137.167 139.5 186.5 233.5v651h186zM413.997 1228l-124.998 -0.000976562c0 88 17.167 152.667 51.5 194s77.5 62 129.5 62c41.333 0 83.333 -13.333 126 -40l42 -25
c55.333 -34.667 94 -52 116 -52c40 0 60 39 60 117h127c-4 -68 -13 -117.667 -27 -149s-35.5 -57.166 -64.5 -77.499s-60.833 -30.5 -95.5 -30.5c-43.333 0 -90.333 16.333 -141 49l-44 28l-24 17c-22.667 15.333 -44.334 23 -65.001 23
c-14.667 0 -29.334 -7.66699 -44.001 -23s-22 -46.333 -22 -93z" />
    <glyph glyph-name="Umacron" unicode="&#x16a;" 
d="M126 1552l202 0.000976562v-1019c0 -134 11.167 -225.5 33.5 -274.5s56.666 -86.333 102.999 -112s97.833 -38.5 154.5 -38.5c60 0 113.5 13.833 160.5 41.5s81.667 71 104 130s33.5 169.833 33.5 332.5v940h186v-1013c0 -144.667 -21.5 -257.834 -64.5 -339.501
s-99.167 -143.167 -168.5 -184.5s-156.666 -62 -261.999 -62c-97.333 0 -183 18 -257 54s-130 90 -168 162s-57 202 -57 390v993zM335 1754v124h559v-124h-559z" />
    <glyph glyph-name="umacron" unicode="&#x16b;" 
d="M1074 1117l-0.00292969 -1117h-186v245c-60 -92 -126.667 -161 -200 -207s-146.666 -69 -219.999 -69c-65.333 0 -125.166 17.5 -179.499 52.5s-92.166 81 -113.499 138s-32 168.167 -32 333.5v624h186v-647c0 -107.333 5.16699 -178.166 15.5 -212.499
s29.333 -62.5 57 -84.5s57.5 -33 89.5 -33c65.333 0 135.5 30.833 210.5 92.5s137.167 139.5 186.5 233.5v651h186zM334.997 1227v124h559v-124h-559z" />
    <glyph glyph-name="Ubreve" unicode="&#x16c;" 
d="M126 1552l202 0.000976562v-1019c0 -134 11.167 -225.5 33.5 -274.5s56.666 -86.333 102.999 -112s97.833 -38.5 154.5 -38.5c60 0 113.5 13.833 160.5 41.5s81.667 71 104 130s33.5 169.833 33.5 332.5v940h186v-1013c0 -144.667 -21.5 -257.834 -64.5 -339.501
s-99.167 -143.167 -168.5 -184.5s-156.666 -62 -261.999 -62c-97.333 0 -183 18 -257 54s-130 90 -168 162s-57 202 -57 390v993zM448 1980c6 -51.333 25.333 -96.5 58 -135.5s69.334 -58.5 110.001 -58.5s77 19.833 109 59.5s51 84.5 57 134.5h128
c-8 -74 -26.833 -133.833 -56.5 -179.5s-65.5 -81.5 -107.5 -107.5s-85.333 -39 -130 -39s-88.167 13 -130.5 39s-78.333 61.833 -108 107.5s-48.834 105.5 -57.501 179.5h128z" />
    <glyph glyph-name="ubreve" unicode="&#x16d;" 
d="M1074 1117l-0.00292969 -1117h-186v245c-60 -92 -126.667 -161 -200 -207s-146.666 -69 -219.999 -69c-65.333 0 -125.166 17.5 -179.499 52.5s-92.166 81 -113.499 138s-32 168.167 -32 333.5v624h186v-647c0 -107.333 5.16699 -178.166 15.5 -212.499
s29.333 -62.5 57 -84.5s57.5 -33 89.5 -33c65.333 0 135.5 30.833 210.5 92.5s137.167 139.5 186.5 233.5v651h186zM447.997 1553c6 -51.333 25.333 -96.5 58 -135.5s69.334 -58.5 110.001 -58.5s77 19.833 109 59.5s51 84.5 57 134.5h128
c-8 -74 -26.833 -133.833 -56.5 -179.5s-65.5 -81.5 -107.5 -107.5s-85.333 -39 -130 -39s-88.167 13 -130.5 39s-78.333 61.833 -108 107.5s-48.834 105.5 -57.501 179.5h128z" />
    <glyph glyph-name="Uring" unicode="&#x16e;" 
d="M126 1552l202 0.000976562v-1019c0 -134 11.167 -225.5 33.5 -274.5s56.666 -86.333 102.999 -112s97.833 -38.5 154.5 -38.5c60 0 113.5 13.833 160.5 41.5s81.667 71 104 130s33.5 169.833 33.5 332.5v940h186v-1013c0 -144.667 -21.5 -257.834 -64.5 -339.501
s-99.167 -143.167 -168.5 -184.5s-156.666 -62 -261.999 -62c-97.333 0 -183 18 -257 54s-130 90 -168 162s-57 202 -57 390v993zM614 1747c26 0 48 9.16699 66 27.5s27 40.166 27 65.499s-9 47.166 -27 65.499s-40 27.5 -66 27.5c-25.333 0 -47.166 -9.16699 -65.499 -27.5
s-27.5 -40.166 -27.5 -65.499s9.16699 -47.166 27.5 -65.499s40.166 -27.5 65.499 -27.5zM614 1654c-52 0 -95.999 18.667 -131.999 56s-54 80.666 -54 129.999c0 50 18.167 93.5 54.5 130.5s80.166 55.5 131.499 55.5c52 0 96 -18.5 132 -55.5s54 -80.5 54 -130.5
c0 -49.333 -18 -92.666 -54 -129.999s-80 -56 -132 -56z" />
    <glyph glyph-name="uring" unicode="&#x16f;" 
d="M1074 1117l-0.00292969 -1117h-186v245c-60 -92 -126.667 -161 -200 -207s-146.666 -69 -219.999 -69c-65.333 0 -125.166 17.5 -179.499 52.5s-92.166 81 -113.499 138s-32 168.167 -32 333.5v624h186v-647c0 -107.333 5.16699 -178.166 15.5 -212.499
s29.333 -62.5 57 -84.5s57.5 -33 89.5 -33c65.333 0 135.5 30.833 210.5 92.5s137.167 139.5 186.5 233.5v651h186zM613.997 1320c26 0 48 9.16699 66 27.5s27 40.166 27 65.499s-9 47.166 -27 65.499s-40 27.5 -66 27.5c-25.333 0 -47.166 -9.16699 -65.499 -27.5
s-27.5 -40.166 -27.5 -65.499s9.16699 -47.166 27.5 -65.499s40.166 -27.5 65.499 -27.5zM613.997 1227c-52 0 -95.999 18.667 -131.999 56s-54 80.666 -54 129.999c0 50 18.167 93.5 54.5 130.5s80.166 55.5 131.499 55.5c52 0 96 -18.5 132 -55.5s54 -80.5 54 -130.5
c0 -49.333 -18 -92.666 -54 -129.999s-80 -56 -132 -56z" />
    <glyph glyph-name="Uhungarumlaut" unicode="&#x170;" 
d="M126 1552l202 0.000976562v-1019c0 -134 11.167 -225.5 33.5 -274.5s56.666 -86.333 102.999 -112s97.833 -38.5 154.5 -38.5c60 0 113.5 13.833 160.5 41.5s81.667 71 104 130s33.5 169.833 33.5 332.5v940h186v-1013c0 -144.667 -21.5 -257.834 -64.5 -339.501
s-99.167 -143.167 -168.5 -184.5s-156.666 -62 -261.999 -62c-97.333 0 -183 18 -257 54s-130 90 -168 162s-57 202 -57 390v993zM567 1654h-116l142 326h123zM841 1654h-118l145 326h126z" />
    <glyph glyph-name="uhungarumlaut" unicode="&#x171;" 
d="M1074 1117l-0.00292969 -1117h-186v245c-60 -92 -126.667 -161 -200 -207s-146.666 -69 -219.999 -69c-65.333 0 -125.166 17.5 -179.499 52.5s-92.166 81 -113.499 138s-32 168.167 -32 333.5v624h186v-647c0 -107.333 5.16699 -178.166 15.5 -212.499
s29.333 -62.5 57 -84.5s57.5 -33 89.5 -33c65.333 0 135.5 30.833 210.5 92.5s137.167 139.5 186.5 233.5v651h186zM549.997 1227h-116l142 326h123zM823.997 1227h-118l145 326h126z" />
    <glyph glyph-name="Uogonek" unicode="&#x172;" 
d="M126 1552l202 0.000976562v-1019c0 -134 11.167 -225.5 33.5 -274.5s56.666 -86.333 102.999 -112s97.833 -38.5 154.5 -38.5c60 0 113.5 13.833 160.5 41.5s81.667 71 104 130s33.5 169.833 33.5 332.5v940h186v-1013c0 -144.667 -21.5 -257.834 -64.5 -339.501
s-99.167 -143.167 -168.5 -184.5s-156.666 -62 -261.999 -62c-97.333 0 -183 18 -257 54s-130 90 -168 162s-57 202 -57 390v993zM773 0.000976562c-60 -28 -108.5 -66.999 -145.5 -116.999s-55.5 -91 -55.5 -123c0 -20.667 9.33301 -40.334 28 -59.001s49.667 -28 93 -28
c23.333 0 50 6.33301 80 19v-97c-44 -19.333 -86.333 -29 -127 -29c-62 0 -113.167 16.667 -153.5 50s-60.5 75.666 -60.5 126.999c0 80.667 49.333 166.334 148 257.001h193z" />
    <glyph glyph-name="uogonek" unicode="&#x173;" 
d="M1074 1117l-0.00292969 -1117h-186v245c-60 -92 -126.667 -161 -200 -207s-146.666 -69 -219.999 -69c-65.333 0 -125.166 17.5 -179.499 52.5s-92.166 81 -113.499 138s-32 168.167 -32 333.5v624h186v-647c0 -107.333 5.16699 -178.166 15.5 -212.499
s29.333 -62.5 57 -84.5s57.5 -33 89.5 -33c65.333 0 135.5 30.833 210.5 92.5s137.167 139.5 186.5 233.5v651h186zM1084 18.999c-60 -28 -108.5 -66.999 -145.5 -116.999s-55.5 -91 -55.5 -123c0 -20.667 9.33301 -40.334 28 -59.001s49.667 -28 93 -28
c23.333 0 50 6.33301 80 19v-97c-44 -19.333 -86.333 -29 -127 -29c-62 0 -113.167 16.667 -153.5 50s-60.5 75.666 -60.5 126.999c0 80.667 49.333 166.334 148 257.001h193z" />
    <glyph glyph-name="Wcircumflex" unicode="&#x174;" 
d="M208 0l-180 1552h184l106 -945l14 -157h5l20 157l163 945h184l186 -983l19 -150h5l12 151l117 982h158l-188 -1552h-191l-200 1052l-21 158h-5l-19 -158l-180 -1052h-189zM615 1822l-140 -168h-155l233 326h124l233 -326h-156z" />
    <glyph glyph-name="wcircumflex" unicode="&#x175;" 
d="M202 0l-182 1117h173l106 -680l28 -158l27 158l178 680h167l201 -680l35 -158l23 158l107 680h143l-181 -1117h-174l-214 719l-34 158h-5l-31 -157l-186 -720h-181zM615 1395l-140 -168h-155l233 326h124l233 -326h-156z" />
    <glyph glyph-name="Ycircumflex" unicode="&#x176;" 
d="M514 0v718l-462 834h229l345 -616l344 616h207l-461 -834v-718h-202zM615 1822l-140 -168h-155l233 326h124l233 -326h-156z" />
    <glyph glyph-name="ycircumflex" unicode="&#x177;" 
d="M566 45l-516.001 1072h205l411 -838l344 838h187l-433 -1038c-91.333 -219.333 -178.166 -365 -260.499 -437s-188.833 -108 -319.5 -108c-56.667 0 -107.334 5 -152.001 15v164c51.333 -16 100.333 -24 147 -24c60 0 113.333 11.667 160 35
s89.334 64.666 128.001 123.999s66 110.666 82 153.999zM614.999 1395l-140 -168h-155l233 326h124l233 -326h-156z" />
    <glyph glyph-name="Ydieresis" unicode="&#x178;" 
d="M514 0v718l-462 834h229l345 -616l344 616h207l-461 -834v-718h-202zM397 1722c-34 0 -63.167 12 -87.5 36s-36.5 53.333 -36.5 88s12.333 64 37 88s53.667 36 87 36s62.333 -12 87 -36s37 -53.333 37 -88s-12.167 -64 -36.5 -88s-53.5 -36 -87.5 -36zM832 1722
c-34 0 -63.333 12 -88 36s-37 53.333 -37 88s12.5 64 37.5 88s54.167 36 87.5 36s62.333 -12 87 -36s37 -53.333 37 -88s-12.333 -64 -37 -88s-53.667 -36 -87 -36z" />
    <glyph glyph-name="Zacute" unicode="&#x179;" 
d="M122 0v171l737 1225h-714v156h947v-156l-736 -1225h751v-171h-985zM358 1654l296 326h216l-342 -326h-170z" />
    <glyph glyph-name="zacute" unicode="&#x17a;" 
d="M133 0v171l685 791h-669v155h915v-155l-690 -791h713v-171h-954zM354 1227l296 326h216l-342 -326h-170z" />
    <glyph glyph-name="Zdotaccent" unicode="&#x17b;" 
d="M122 0v171l737 1225h-714v156h947v-156l-736 -1225h751v-171h-985zM615 1732c-34 0 -62.999 11.833 -86.999 35.5s-36 52.5 -36 86.5s12.167 63 36.5 87s53.166 36 86.499 36c32.667 0 61.167 -12 85.5 -36s36.5 -53 36.5 -87s-12 -62.833 -36 -86.5
s-52.667 -35.5 -86 -35.5z" />
    <glyph glyph-name="zdotaccent" unicode="&#x17c;" 
d="M133 0v171l685 791h-669v155h915v-155l-690 -791h713v-171h-954zM615 1305c-34 0 -62.999 11.833 -86.999 35.5s-36 52.5 -36 86.5s12.167 63 36.5 87s53.166 36 86.499 36c32.667 0 61.167 -12 85.5 -36s36.5 -53 36.5 -87s-12 -62.833 -36 -86.5
s-52.667 -35.5 -86 -35.5z" />
    <glyph glyph-name="Zcaron" unicode="&#x17d;" 
d="M122 0v171l737 1225h-714v156h947v-156l-736 -1225h751v-171h-985zM615 1880l139 168h156l-233 -326h-124l-233 326h155z" />
    <glyph glyph-name="zcaron" unicode="&#x17e;" 
d="M133 0v171l685 791h-669v155h915v-155l-690 -791h713v-171h-954zM615 1446l139 168h156l-233 -326h-124l-233 326h155z" />
    <glyph glyph-name="slong" unicode="&#x17f;" 
d="M415 0l-0.000976562 869.001h-248v155h248v52c0 147.333 16.667 256.333 50 327s84.833 128.667 154.5 174s161.834 68 276.501 68c86.667 0 174.667 -9 264 -27v-177c-96.667 32 -182.334 48 -257.001 48c-59.333 0 -111.666 -11 -156.999 -33
s-80.833 -57.833 -106.5 -107.5s-38.5 -133.834 -38.5 -252.501v-1096h-186z" />
    <glyph glyph-name="bstroke" unicode="&#x180;" 
d="M-45 1241l0.00195312 155.001h186v218h186v-218h186v-155h-186v-375c57.333 93.333 125.666 163.666 204.999 210.999s152.333 71 219 71c93.333 0 177.333 -40.333 252 -121s112 -203 112 -367c0 -129.333 -24.833 -244.833 -74.5 -346.5s-115.834 -182 -198.501 -241
s-185 -88.5 -307 -88.5c-34.667 0 -88 3.66699 -160 11c-10.667 1.33301 -26.667 3 -48 5h-186v1241h-186zM327.002 645.001v-478.999c67.333 -17.333 129.333 -26 186 -26c112.667 0 207.5 44.167 284.5 132.5s115.5 209.166 115.5 362.499c0 111.333 -21 195 -63 251
s-89.667 84 -143 84c-58 0 -121.833 -29.333 -191.5 -88s-132.5 -137.667 -188.5 -237z" />
    <glyph glyph-name="Btopbar" unicode="&#x182;" 
d="M912 446c0 157.333 -62.999 269.667 -188.999 337c-60.667 32 -153.334 48 -278.001 48h-67v-677h101c131.333 0 230 16.333 296 49c91.333 45.333 137 126.333 137 243zM1035 1552l0.00195312 -156l-657 1v-411h62c159.333 0 285.666 -23 378.999 -69
c90.667 -46 162.5 -111.5 215.5 -196.5s79.5 -178.5 79.5 -280.5c0 -184 -75 -312.667 -225 -386c-72.667 -36 -188.334 -54 -347.001 -54h-366v1552h859z" />
    <glyph glyph-name="btopbar" unicode="&#x183;" 
d="M327 866c57.333 93.333 125.668 163.667 205.001 211s152.333 71 219 71c93.333 0 177.333 -40.333 252 -121s112 -203 112 -367c0 -129.333 -24.833 -244.833 -74.5 -346.5s-115.834 -182 -198.501 -241s-185 -88.5 -307 -88.5c-34.667 0 -88 3.66699 -160 11
c-10.667 1.33301 -26.667 3 -48 5h-186v1614h816v-155h-630v-593zM327.002 645.001v-478.999c67.333 -17.333 129.333 -26 186 -26c112.667 0 207.5 44.167 284.5 132.5s115.5 209.166 115.5 362.499c0 111.333 -21 195 -63 251s-89.667 84 -143 84
c-58 0 -121.833 -29.333 -191.5 -88s-132.5 -137.667 -188.5 -237z" />
    <glyph glyph-name="Tonesix" unicode="&#x184;" 
d="M460 986c159.333 0 285.502 -23.165 378.502 -69.498s165.5 -112.5 217.5 -198.5s78 -178.667 78 -278c0 -84.667 -19.333 -161.334 -58 -230.001s-94.334 -120.834 -167.001 -156.501s-188.334 -53.5 -347.001 -53.5h-386v1552h202v-566h82zM378.002 156.002
l121.002 -0.000976562c172 0 287.167 26 345.5 78s87.5 122.667 87.5 212c0 70.667 -16.333 136.334 -49 197.001s-79.334 107.167 -140.001 139.5s-153.334 48.5 -278.001 48.5h-87v-675z" />
    <glyph glyph-name="tonesix" unicode="&#x185;" 
d="M474 710c114.667 0 213.832 -16.668 297.499 -50.001s145.334 -81 185.001 -143s59.5 -128.667 59.5 -200c0 -61.333 -15 -116.666 -45 -165.999s-79.5 -86.833 -148.5 -112.5s-160.5 -38.5 -274.5 -38.5h-335v1117h202v-407h59zM414.998 201.999l87.001 -0.000976562
c124 6.66699 207 17.167 249 31.5s63 53.5 63 117.5c0 50.667 -11.833 85.334 -35.5 104.001s-57.334 32.167 -101.001 40.5s-110.167 12.5 -199.5 12.5h-63v-306z" />
    <glyph glyph-name="Oopen" unicode="&#x186;" 
d="M118 1534c116 43.333 219.999 64.999 311.999 64.999c121.333 0 233 -32.5 335 -97.5s181.333 -161.667 238 -290s85 -273.5 85 -435.5c0 -160.667 -28 -305 -84 -433s-135 -225 -237 -291s-214.333 -99 -337 -99c-92 0 -196 21.667 -312 65v184
c107.333 -62 214 -93 320 -93c80 0 153.167 27.333 219.5 82s119.833 134.834 160.5 240.501s61 220.5 61 344.5c0 126 -21 242.333 -63 349s-95.667 186.5 -161 239.5s-137.666 79.5 -216.999 79.5c-105.333 0 -212 -31 -320 -93v183z" />
    <glyph glyph-name="Dafrican" unicode="&#x189;" 
d="M157 0v714h-155v155h155v683h368c182 0 309.333 -25.667 382 -77s131.334 -140.5 176.001 -267.5s67 -272.167 67 -435.5c0 -154.667 -22.333 -292.667 -67 -414s-103.334 -211.333 -176.001 -270s-186 -88 -340 -88h-410zM359 171h135c146 0 244.5 21.167 295.5 63.5
s90.333 109.833 118 202.5s41.5 215 41.5 367c0 148.667 -13.833 265.167 -41.5 349.5s-65.667 145.833 -114 184.5s-142.833 58 -283.5 58h-151v-527h248v-155h-248v-543z" />
    <glyph glyph-name="Dtopbar" unicode="&#x18b;" 
d="M378 446c0 -116.667 45.668 -197.668 137.001 -243.001c66 -32.667 164.667 -49 296 -49h101v677h-67c-124.667 0 -217.334 -16 -278.001 -48c-126 -67.333 -189 -179.666 -189 -336.999zM1114 1552l0.00195312 -1552h-366c-158.667 0 -274.334 18 -347.001 54
c-150 73.333 -225 202 -225 386c0 102 26.5 195.5 79.5 280.5s124.833 150.5 215.5 196.5c93.333 46 219.666 69 378.999 69h62v411l-657 -1v156h859z" />
    <glyph glyph-name="dtopbar" unicode="&#x18c;" 
d="M929 1459l-629.998 -0.000976562v155h816v-1614h-186c-21.333 -2 -37.333 -3.66699 -48 -5c-72 -7.33301 -125.333 -11 -160 -11c-122 0 -224.333 29.5 -307 88.5s-148.834 139.333 -198.501 241s-74.5 217.167 -74.5 346.5c0 164 37.333 286.333 112 367
s158.667 121 252 121c66.667 0 139.667 -23.667 219 -71s147.666 -117.666 204.999 -210.999v593zM929.002 644.999c-56 99.333 -118.833 178.332 -188.5 236.999s-133.5 88 -191.5 88c-53.333 0 -101 -28 -143 -84s-63 -139.667 -63 -251
c0 -153.333 38.5 -274.166 115.5 -362.499s171.833 -132.5 284.5 -132.5c56.667 0 118.667 8.66699 186 26v479v0z" />
    <glyph glyph-name="Ereversed" unicode="&#x18e;" 
d="M839 171v543h-558v155h558v527h-620v156h822v-1552h-838v171h636z" />
    <glyph glyph-name="Schwa" unicode="&#x18f;" 
d="M146 1445c148.667 98.667 289.332 148 421.999 148c100.667 0 190.667 -34.833 270 -104.5s142.833 -169.167 190.5 -298.5s71.5 -267.666 71.5 -414.999c0 -141.333 -22.667 -277.333 -68 -408s-108.666 -232.334 -189.999 -305.001s-172 -109 -272 -109
c-132.667 0 -239.167 65.667 -319.5 197s-120.5 334.333 -120.5 609v55h756c0 108 -13.833 219 -41.5 333s-71.167 183.333 -130.5 208s-116 37 -170 37c-120 13.333 -252.667 -35.667 -398 -147v200zM884.998 607h-579v-37c0 -138 26.667 -237.167 80 -297.5
s117.333 -90.5 192 -90.5c75.333 0 144.833 30.833 208.5 92.5s96.5 172.5 98.5 332.5z" />
    <glyph glyph-name="Eopen" unicode="&#x190;" 
d="M327 442c0 -100 34.333 -181.333 103 -244c66.667 -60 150.667 -90 252 -90c127.333 0 266.333 38.333 417 115v-190c-148 -53.333 -283 -80 -405 -80c-158 0 -290.667 43.667 -398 131c-114 93.333 -171 217 -171 371c0 206.667 114.667 344 344 412
c-178 84.667 -267 206.334 -267 365.001c0 132 52.667 229 158 291c84.667 50 198 75 340 75c104.667 0 224 -25 358 -75v-177c-132 64.667 -253.667 97 -365 97c-82 0 -148.667 -17.333 -200 -52c-59.333 -40.667 -89 -100 -89 -178
c0 -94.667 37.667 -167.334 113 -218.001c64.667 -42.667 146.667 -64 246 -64h123v-155h-73c-324 0 -486 -111.333 -486 -334z" />
    <glyph glyph-name="Fhook" unicode="&#x191;" 
d="M429 714l-11.999 -713.999c-14.667 -118 -38.334 -204.333 -71.001 -259c-44.667 -74 -98.667 -127 -162 -159s-150 -48 -260 -48c-79.333 0 -164.666 9.33301 -255.999 28v174c104 -30.667 191.667 -46 263 -46c62 0 114.667 10.833 158 32.5
s77.166 58.167 101.499 109.5s36.5 140.666 36.5 267.999v1452h853v-156h-651v-527h589v-155h-589z" />
    <glyph glyph-name="florin" unicode="&#x192;" 
d="M141 -372l251.002 1241h-251l32 155h253l7 52c18 117.333 50.667 215.833 98 295.5s112.333 145.167 195 196.5s192 77 328 77c33.333 0 77.666 -3.66699 132.999 -11c8.66699 -1.33301 22 -3 40 -5l-32 -161l-40 7c-54 9.33301 -99.667 14 -137 14
c-61.333 0 -117 -10 -167 -30s-93.333 -53.333 -130 -100s-68.334 -134.667 -95.001 -264l-15 -71h395l-32 -155h-394l-253 -1241h-186z" />
    <glyph glyph-name="Iotaafrican" unicode="&#x196;" 
d="M358 1552v-1017c0 -127.333 12.167 -216.666 36.5 -267.999s58.166 -87.833 101.499 -109.5s96 -32.5 158 -32.5c71.333 0 159 15.333 263 46v-174c-91.333 -18.667 -176.666 -28 -255.999 -28c-110 0 -196.667 16 -260 48s-117.333 84.833 -162 158.5
s-67 205.167 -67 394.5v982h186z" />
    <glyph glyph-name="Istroke" unicode="&#x197;" 
d="M227 781v155h286v460h-341v156h884v-156h-341v-460h288v-155h-288v-626h341v-155h-884v155h341v626h-286z" />
    <glyph glyph-name="khook" unicode="&#x199;" 
d="M205 0v997.999c0 189.333 22.333 320.833 67 394.5s98.667 126.5 162 158.5s150 48 260 48c79.333 0 164.666 -9.33301 255.999 -28v-174c-104 30.667 -191.667 46 -263 46c-62 0 -114.667 -10.833 -158 -32.5s-77.166 -58.167 -101.499 -109.5
s-36.5 -140.666 -36.5 -267.999v-433l537 517h248l-536 -517l550 -600h-256l-543 600v-600h-186z" />
    <glyph glyph-name="lbar" unicode="&#x19a;" 
d="M455 0v801h-288v155h288v502h-334v156h520v-658h302v-155h-302v-646h349v-155h-535z" />
    <glyph glyph-name="Mturned" unicode="&#x19c;" 
d="M1157 1552l-0.00292969 -1521h-163v256c-51.333 -108.667 -99.166 -183.667 -143.499 -225s-89.166 -62 -134.499 -62c-54 0 -97.5 21.167 -130.5 63.5s-49.5 102.5 -49.5 180.5v60c-22 -68 -48.5 -123.167 -79.5 -165.5s-63.167 -76 -96.5 -101
s-71.666 -37.5 -114.999 -37.5c-48 -0 -89 20.333 -123 61s-51 121.667 -51 243v1248h163v-1167c0 -62.667 2 -105.5 6 -128.5s12 -40.5 24 -52.5s25 -18 39 -18c34.667 0 71.834 26.5 111.501 79.5s80.167 140.833 121.5 263.5v1023h156v-1166
c0 -98.667 9.66699 -156.667 29 -174s36.666 -26 51.999 -26c34 0 70.5 29.667 109.5 89s76.167 135.333 111.5 228v1049h163z" />
    <glyph glyph-name="Nhookleft" unicode="&#x19d;" 
d="M312 1018v-883v-28v-107h-5c-8.66699 -118 -29.334 -204.333 -62.001 -259c-44.667 -74 -98.667 -127 -162 -159s-150 -48 -260 -48c-79.333 0 -164.666 9.33301 -255.999 28v174c104 -30.667 191.667 -46 263 -46c62 0 114.667 10.833 158 32.5s77 58.167 101 109.5
c22.667 47.333 35 127.333 37 240v1480h182l549 -1033l60 -154h5l-5 154v1033h186v-1552h-186l-534 1016l-75 163z" />
    <glyph glyph-name="nlegrightlong" unicode="&#x19e;" 
d="M155 0l0.00292969 1117h186v-244c53.333 86 117.666 153.333 192.999 202s150.666 73 225.999 73c66 0 126 -17.5 180 -52.5s91.833 -80.833 113.5 -137.5s32.5 -168 32.5 -334v-996h-186v1019c0 107.333 -5.16699 178.166 -15.5 212.499s-29.333 62.5 -57 84.5
s-57.834 33 -90.501 33c-65.333 0 -135.5 -31 -210.5 -93s-136.833 -139.667 -185.5 -233v-651h-186z" />
    <glyph glyph-name="Ocenteredtilde" unicode="&#x19f;" 
d="M614 -47c-176 0 -310.5 74.167 -403.5 222.5s-139.5 348.5 -139.5 600.5c0 251.333 46.5 451.166 139.5 599.499s227.5 222.5 403.5 222.5c176.667 0 311.334 -74.167 404.001 -222.5s139 -348.166 139 -599.499c0 -252 -46.333 -452.167 -139 -600.5
s-227.334 -222.5 -404.001 -222.5zM614 109c97.333 0 178.334 55 243.001 165c58 98 90 240.333 96 427h-679c6.66699 -186.667 38.667 -329 96 -427c65.333 -110 146.666 -165 243.999 -165zM857.001 1277c-64.667 110.667 -145.668 166 -243.001 166
s-178.666 -55.333 -243.999 -166c-56.667 -96.667 -88.667 -237 -96 -421h679c-6.66699 184 -38.667 324.333 -96 421z" />
    <glyph glyph-name="Ohorn" unicode="&#x1a0;" 
d="M614 -47c-176 0 -310.5 74.168 -403.5 222.501s-139.5 348.5 -139.5 600.5c0 251.333 46.5 451.166 139.5 599.499s227.5 222.5 403.5 222.5c176.667 0 311.334 -74.333 404.001 -223l5 -8l36 15c-18.667 46 -19.5 85.167 -2.5 117.5s40.5 54.5 70.5 66.5
c34 13.333 67.5 12.666 100.5 -2.00098s56.167 -38 69.5 -70c16.667 -42 13.167 -85.167 -10.5 -129.5s-66.5 -79.166 -128.5 -104.499c-27.333 -11.333 -51.333 -19.333 -72 -24c47.333 -126.667 71 -280 71 -460c0 -252 -46.333 -452.167 -139 -600.5
s-227.334 -222.5 -404.001 -222.5zM614 109.001c97.333 0 178.5 55.167 243.5 165.5s97.5 277.5 97.5 501.5s-32.5 391.167 -97.5 501.5s-146.167 165.5 -243.5 165.5s-178.5 -55.167 -243.5 -165.5s-97.5 -277.5 -97.5 -501.5s32.5 -391.167 97.5 -501.5
s146.167 -165.5 243.5 -165.5z" />
    <glyph glyph-name="ohorn" unicode="&#x1a1;" 
d="M615 -31c-160 0 -287.999 55.833 -383.999 167.5s-144 252.5 -144 422.5s48 310.667 144 422s224 167 384 167c159.333 0 287 -55.667 383 -167l22 -27c5.33301 2 11.666 4.66699 18.999 8c-18.667 46 -19.5 85.167 -2.5 117.5s40.5 54.5 70.5 66.5
c34 13.333 67.5 12.666 100.5 -2.00098s56.167 -38 69.5 -70c16.667 -42 13.167 -85.167 -10.5 -129.5s-66.5 -79.166 -128.5 -104.499l-44 -17c32 -78 48 -166 48 -264c0 -170 -48 -310.833 -144 -422.5s-223.667 -167.5 -383 -167.5zM615.001 124
c99.333 0 178.333 38.667 237 116s88 183.666 88 318.999c0 134.667 -29.333 240.667 -88 318s-137.667 116 -237 116c-100 0 -179.333 -38.667 -238 -116s-88 -183.333 -88 -318c0 -135.333 29.333 -241.666 88 -318.999s138 -116 238 -116z" />
    <glyph glyph-name="phook" unicode="&#x1a5;" 
d="M327 866c57.333 93.333 125.669 163.667 205.002 211s152.333 71 219 71c93.333 0 177.333 -40.333 252 -121s112 -203 112 -367c0 -129.333 -24.833 -244.833 -74.5 -346.5s-115.834 -182 -198.501 -241s-185 -88.5 -307 -88.5c-34.667 0 -88 3.66699 -160 11
c-10.667 1.33301 -26.667 3 -48 5v-434h-186v1332c0 189.333 22.333 320.833 67 394.5s98.667 126.5 162 158.5s150 48 260 48c79.333 0 164.666 -9.33301 255.999 -28v-174c-104 30.667 -191.667 46 -263 46c-62 0 -114.667 -10.833 -158 -32.5
s-77.333 -58.167 -102 -109.5c-22.667 -47.333 -34.667 -127.333 -36 -240v-95zM327.003 645.001v-478.999c67.333 -17.333 129.333 -26 186 -26c112.667 0 207.5 44.167 284.5 132.5s115.5 209.166 115.5 362.499c0 111.333 -21 195 -63 251s-89.667 84 -143 84
c-58 0 -121.833 -29.333 -191.5 -88s-132.5 -137.667 -188.5 -237z" />
    <glyph glyph-name="Tonetwo" unicode="&#x1a7;" 
d="M1103 33c-90.667 -32.667 -163.834 -54.167 -219.501 -64.5s-114.167 -15.5 -175.5 -15.5c-192.667 0 -332.667 43 -420 129s-131 189 -131 309c0 157.333 85 288 255 392l82 48l97 59l78 47c63.333 35.333 115.333 74 156 116s61 94.667 61 158
c0 64 -26.5 118.667 -79.5 164s-122.5 68 -208.5 68c-108 0 -219 -22 -333 -66v173c103.333 32 210.333 48 321 48c172 0 298.5 -39.833 379.5 -119.5s121.5 -177.834 121.5 -294.501c0 -159.333 -90.667 -292.666 -272 -399.999l-103 -59l-102 -59
c-97.333 -56.667 -163.666 -108.5 -198.999 -155.5s-53 -97.5 -53 -151.5c0 -46 12.833 -88.667 38.5 -128s63.5 -69.5 113.5 -90.5s102.333 -31.5 157 -31.5c130.667 0 276 38 436 114v-190v0z" />
    <glyph glyph-name="tonetwo" unicode="&#x1a8;" 
d="M1076 59c-150.667 -60 -297.334 -90.0039 -440.001 -90.0039c-163.333 0 -282.166 31.167 -356.499 93.5s-111.5 141.833 -111.5 238.5c0 74 23.333 135.667 70 185s127.667 95 243 137l126 46c86 31.333 148 59 186 83c38.667 24 58 56 58 96
c0 41.333 -22.167 75.833 -66.5 103.5s-105.833 41.5 -184.5 41.5c-108 0 -223.333 -22 -346 -66v169c106.667 34.667 219.667 52 339 52c159.333 0 274.5 -29.667 345.5 -89s106.5 -135 106.5 -227c0 -65.333 -18.333 -120.666 -55 -165.999
c-36 -46 -123.333 -96 -262 -150l-129 -51l-64 -26c-76.667 -31.333 -124.667 -57.666 -144 -78.999s-29 -47 -29 -77c0 -45.333 20.667 -83.166 62 -113.499s109 -45.5 203 -45.5c58 0 128.667 9.83301 212 29.5s162.333 53.834 237 102.501v-197v0z" />
    <glyph glyph-name="Esh" unicode="&#x1a9;" 
d="M1123 186v-186h-1032v186l466 639l-443 571v156h970v-156h-716l411 -529l-478 -681h822z" />
    <glyph glyph-name="tpalatalhook" unicode="&#x1ab;" 
d="M1089 209v-164l-2 -1c-6.66699 -140.667 -28.334 -241.667 -65.001 -303c-44.667 -74 -98.667 -127 -162 -159s-150 -48 -260 -48c-79.333 0 -164.666 9.33301 -255.999 28v174c104 -30.667 191.667 -46 263 -46c62 0 114.667 10.833 158 32.5s77 58.167 101 109.5
c16 33.333 26.667 82.666 32 147.999c-38.667 -7.33301 -76.334 -11 -113.001 -11c-78 0 -149.333 15 -214 45s-113.5 74.333 -146.5 133s-49.5 149.334 -49.5 272.001v450h-279v155h279v450h186v-450h497v-155h-497v-447c0 -90 10.667 -153.5 32 -190.5
s49.833 -64.167 85.5 -81.5s77.834 -26 126.501 -26c90 0 184.667 28.333 284 85z" />
    <glyph glyph-name="thook" unicode="&#x1ad;" 
d="M1089 45c-87.333 -36.667 -150.667 -58.501 -190 -65.501s-77.333 -10.5 -114 -10.5c-78 0 -149.333 15 -214 45s-113.5 74.333 -146.5 133s-49.5 149.334 -49.5 272.001v450h-279v155h279v50h1c5.33301 148.667 27.333 254.667 66 318c44.667 74 98.667 127 162 159
s150 48 260 48c79.333 0 164.666 -9.33301 255.999 -28v-174c-104 30.667 -191.667 46 -263 46c-62 0 -114.667 -10.833 -158 -32.5s-77.333 -58.167 -102 -109.5c-22.667 -47.333 -34.667 -127.333 -36 -240v-37h497v-155h-497v-447c0 -90 10.667 -153.5 32 -190.5
s49.833 -64.167 85.5 -81.5s77.834 -26 126.501 -26c90 0 184.667 28.333 284 85v-164z" />
    <glyph glyph-name="Tretroflexhook" unicode="&#x1ae;" 
d="M513 0v1381h-465v171h1133v-171h-466v-1281c0 -127.333 12.167 -216.666 36.5 -267.999s58.166 -87.833 101.499 -109.5s96 -32.5 158 -32.5c71.333 0 159 15.333 263 46v-174c-91.333 -18.667 -176.666 -28 -255.999 -28c-110 0 -196.667 16 -260 48
s-117.333 85 -162 159c-33.333 54.667 -61 141 -83 259z" />
    <glyph glyph-name="Uhorn" unicode="&#x1af;" 
d="M126 1552l201.998 0.000976562v-1019c0 -134 11.167 -225.5 33.5 -274.5s43.333 -83 63 -102s57.834 -28.5 114.501 -28.5c60 0 101.833 10.5 125.5 31.5s46.667 61 69 120s33.5 169.833 33.5 332.5v940h186v-193c29.333 1.33301 61.333 9 96 23
c-18.667 46 -19.5 85.167 -2.5 117.5s40.5 54.5 70.5 66.5c34 13.333 67.5 12.666 100.5 -2.00098s56.167 -38 69.5 -70c16.667 -42 13.167 -85.167 -10.5 -129.5s-66.5 -79.166 -128.5 -104.499c-54 -22 -110 -31 -168 -27l-27 2v-696
c0 -144.667 -21.5 -257.834 -64.5 -339.501s-87.5 -143.167 -133.5 -184.5s-121.667 -62 -227 -62c-97.333 0 -169.666 18 -216.999 54s-90 90 -128 162s-57 202 -57 390v993z" />
    <glyph glyph-name="uhorn" unicode="&#x1b0;" 
d="M924 1117l-0.000976562 -68.001c28.667 1.33301 60.334 9 95.001 23c-18.667 46 -19.5 85.167 -2.5 117.5s40.5 54.5 70.5 66.5c34 13.333 67.5 12.666 100.5 -2.00098s56.167 -38 69.5 -70c16.667 -42 13.167 -85.167 -10.5 -129.5s-66.5 -79.166 -128.5 -104.499
c-54 -22 -110 -31 -168 -27l-26 2v-925h-186v245c-60 -92 -113.333 -161 -160 -207s-106.667 -69 -180 -69c-65.333 0 -113.5 17.5 -144.5 52.5s-57.167 81 -78.5 138s-32 168.167 -32 333.5v624h186v-647c0 -107.333 5.16699 -178.166 15.5 -212.499s19.333 -62.5 27 -84.5
s27.5 -33 59.5 -33c65.333 0 120.5 30.833 165.5 92.5s92.167 139.5 141.5 233.5v651h186z" />
    <glyph glyph-name="Upsilonafrican" unicode="&#x1b1;" 
d="M701 1598l496.003 0.000976562v-178h-241c83.333 -94.667 137.833 -189.5 163.5 -284.5s38.5 -200.167 38.5 -315.5c0 -249.333 -46.333 -448.333 -139 -597s-227.334 -223 -404.001 -223s-311.334 74.333 -404.001 223s-139 347.667 -139 597
c0 115.333 12.833 220.5 38.5 315.5s80.167 189.833 163.5 284.5h-241v178h497v-178c-59.333 -26.667 -106.333 -64.834 -141 -114.501s-62.5 -115.667 -83.5 -198s-31.5 -177.833 -31.5 -286.5c0 -208 29.667 -371 89 -489s143.333 -177 252 -177
c109.333 0 193.666 59.333 252.999 178s89 281 89 487c0 108.667 -10.5 204.167 -31.5 286.5s-48.833 148.5 -83.5 198.5s-81.667 88.333 -141 115v178z" />
    <glyph glyph-name="Zstroke" unicode="&#x1b5;" 
d="M227 751v155h337l295 490h-714v156h947v-156l-295 -490h206v-155h-299l-348 -580h751v-171h-985v171l349 580h-244z" />
    <glyph glyph-name="zstroke" unicode="&#x1b6;" 
d="M227 511v155h334l257 296h-669v155h915v-155l-258 -296h197v-155h-333l-296 -340h713v-171h-954v171l294 340h-200z" />
    <glyph glyph-name="Ezh" unicode="&#x1b7;" 
d="M703 744h-233.999l390 652h-714v156h947v-156l-304 -509c10 -5.33301 20 -11 30 -17c87.333 -51.333 155.333 -104.5 204 -159.5s73 -138.833 73 -251.5c0 -169.333 -55.167 -293.333 -165.5 -372s-243.5 -118 -399.5 -118c-115.333 0 -237.333 21.667 -366 65v179
c130 -59.333 246.333 -89 349 -89c68 0 132 16.833 192 50.5s106.333 69.5 139 107.5s49 94.667 49 170c0 100.667 -31.667 180 -95 238c-32.667 14 -64.334 32.333 -95.001 55v-1z" />
    <glyph glyph-name="Ezhreversed" unicode="&#x1b8;" 
d="M537 745c-30.667 -22.667 -62.333 -41 -95 -55c-63.333 -58 -95 -137.333 -95 -238c0 -75.333 16.333 -132 49 -170s79 -73.833 139 -107.5s124 -50.5 192 -50.5c102.667 0 219 29.667 349 89v-179c-128.667 -43.333 -250.667 -65 -366 -65
c-156 0 -289.167 39.333 -399.5 118s-165.5 202.667 -165.5 372c0 112.667 24.333 196.5 73 251.5s116.667 108.167 204 159.5c10 6 20 11.667 30 17l-304 509v156h947v-156h-714l390 -652h-234v1z" />
    <glyph glyph-name="ezhreversed" unicode="&#x1b9;" 
d="M537 310c-30.667 -22.667 -62.333 -41 -95 -55c-63.333 -58 -95 -137.333 -95 -238c0 -75.333 16.333 -132 49 -170s79 -73.833 139 -107.5s124 -50.5 192 -50.5c102.667 0 219 29.667 349 89v-179c-128.667 -43.333 -250.667 -65 -366 -65
c-156 0 -289.167 39.333 -399.5 118s-165.5 202.667 -165.5 372c0 112.667 24.333 196.5 73 251.5s116.667 108.167 204 159.5c10 6 20 11.667 30 17l-304 509v156h947v-156h-714l390 -652h-234v1z" />
    <glyph glyph-name="twostroke" unicode="&#x1bb;" 
d="M227 651l-0.00195312 154.997h351l108 118c72 80 119.5 141.333 142.5 184s34.5 84.667 34.5 126c0 66.667 -26.667 118.167 -80 154.5s-113.333 54.5 -180 54.5c-38 0 -80.5 -4.33301 -127.5 -13s-88.167 -18.834 -123.5 -30.501s-92.666 -35.5 -171.999 -71.5v165
c84 40 168.167 67.5 252.5 82.5s153.833 22.5 208.5 22.5c80.667 0 154.834 -13.167 222.501 -39.5s118 -67.166 151 -122.499s49.5 -114.333 49.5 -177c0 -70 -21.333 -141.667 -64 -215c-36.667 -63.333 -101.334 -142.666 -194.001 -237.999h197v-155h-353l-3 -3l-96 -94
c-60.667 -61.333 -109.667 -120.666 -147 -177.999s-58 -125.666 -62 -204.999h746v-171h-939v171c0 44 9 91.167 27 141.5s52.333 106.833 103 169.5c46.667 58 96.334 114.333 149.001 169h-201z" />
    <glyph glyph-name="clickdental" unicode="&#x1c0;" 
d="M533 -47v1645h163v-1645h-163z" />
    <glyph glyph-name="clicklateral" unicode="&#x1c1;" 
d="M753 -47v1645h163v-1645h-163zM313 -47v1645h163v-1645h-163z" />
    <glyph glyph-name="clickalveolar" unicode="&#x1c2;" 
d="M1157 961v-155h-1086v155h1086zM1157 612v-155h-1086v155h1086zM533 -47v1645h163v-1645h-163z" />
    <glyph glyph-name="clickretroflex" unicode="&#x1c3;" 
d="M529 442l-46 1110h248l-47 -1110h-155zM615 -47c-39.333 0 -73.166 14.168 -101.499 42.501s-42.5 62.166 -42.5 101.499s14.167 73 42.5 101s62.166 42 101.499 42c38.667 0 72.167 -13.833 100.5 -41.5s42.5 -61.5 42.5 -101.5s-14.333 -74 -43 -102s-62 -42 -100 -42z
" />
    <glyph glyph-name="DZcaron" unicode="&#x1c4;" 
d="M78 0v1552h184c84.667 0 147.5 -29.5 188.5 -88.5s71.833 -148.167 92.5 -267.5s31 -260.666 31 -423.999c0 -154.667 -10.833 -290.5 -32.5 -407.5s-52.5 -207 -92.5 -270s-102.333 -94.5 -187 -94.5h-184zM179 170.999h67c68.667 0 117.5 24.333 146.5 73
s49.833 116.167 62.5 202.5s19 205.5 19 357.5c0 148.667 -7.33301 263 -22 343s-35.667 141.5 -63 184.5s-72.333 64.5 -135 64.5h-75v-1225zM676 -0.000976562v171l368 1225h-357v156h474v-156l-368 -1225h375v-171h-492zM922 1880l70 168h78l-117 -326h-62l-116 326h77z
" />
    <glyph glyph-name="Dzcaron" unicode="&#x1c5;" 
d="M78 0v1552h184c84.667 0 147.5 -29.5 188.5 -88.5s71.833 -148.167 92.5 -267.5s31 -260.666 31 -423.999c0 -154.667 -10.833 -290.5 -32.5 -407.5s-52.5 -207 -92.5 -270s-102.333 -94.5 -187 -94.5h-184zM179 170.999h67c68.667 0 117.5 24.333 146.5 73
s49.833 116.167 62.5 202.5s19 205.5 19 357.5c0 148.667 -7.33301 263 -22 343s-35.667 141.5 -63 184.5s-72.333 64.5 -135 64.5h-75v-1225zM681 -0.000976562v171l343 791h-335v155h458v-155l-345 -791h356v-171h-477zM922 1446l70 168h78l-117 -326h-62l-116 326h77z
" />
    <glyph glyph-name="dzcaron" unicode="&#x1c6;" 
d="M451 251c-28.667 -93.333 -62.832 -163.667 -102.499 -211s-76.167 -71 -109.5 -71c-46.667 0 -88.667 40.333 -126 121s-56 203 -56 367c0 129.333 12.333 244.833 37 346.5s57.667 182 99 241s92.666 88.5 153.999 88.5c17.333 0 44 -3.66699 80 -11
c5.33301 -1.33301 13.333 -3 24 -5v497h93v-1614h-93v251zM451.002 471.999l-0.000976562 479.001c-33.333 17.333 -64 26 -92 26c-57.333 0 -105.166 -44.333 -143.499 -133s-57.5 -209.334 -57.5 -362.001c0 -110.667 10.5 -194.167 31.5 -250.5s44.833 -84.5 71.5 -84.5
c28.667 0 60.5 29.333 95.5 88s66.5 137.667 94.5 237zM681.001 0v171l343 791h-335v155h458v-155l-345 -791h356v-171h-477zM922.001 1446l70 168h78l-117 -326h-62l-116 326h77z" />
    <glyph glyph-name="LJ" unicode="&#x1c7;" 
d="M529 171v-171h-419v1552h101v-1381h318zM670 34l-0.000976562 190c72.667 -76.667 133.334 -115 182.001 -115c26 0 49.5 10 70.5 30s37.833 53.5 50.5 100.5s19 147.5 19 301.5v855h-175v156h276v-1016c0 -165.333 -9.5 -284.333 -28.5 -357s-45.5 -128.5 -79.5 -167.5
s-77.333 -58.5 -130 -58.5c-59.333 0 -121 27 -185 81z" />
    <glyph glyph-name="Lj" unicode="&#x1c8;" 
d="M529 171v-171h-419v1552h101v-1381h318zM701 -438l0.000976562 174.001c52 -30.667 95.667 -46 131 -46c31.333 0 57.833 10.833 79.5 32.5s38.5 58.167 50.5 109.5s18 140.666 18 267.999v862h-237v155h330v-982c0 -189.333 -11.167 -320.833 -33.5 -394.5
s-49.333 -126.5 -81 -158.5s-74.834 -48 -129.501 -48c-40 0 -82.667 9.33301 -128 28zM965.001 1520c0 42 7 73.333 21 94s27.667 31 41 31c12.667 0 26.167 -10.333 40.5 -31s21.5 -52 21.5 -94c0 -41.333 -7.16699 -72.333 -21.5 -93s-27.833 -31 -40.5 -31
c-13.333 0 -27 10.333 -41 31s-21 51.667 -21 93z" />
    <glyph glyph-name="lj" unicode="&#x1c9;" 
d="M228 0v1458h-167v156h260v-1459h174v-155h-267zM701 -438l0.000976562 174.001c52 -30.667 95.667 -46 131 -46c31.333 0 57.833 10.833 79.5 32.5s38.5 58.167 50.5 109.5s18 140.666 18 267.999v862h-237v155h330v-982c0 -189.333 -11.167 -320.833 -33.5 -394.5
s-49.333 -126.5 -81 -158.5s-74.834 -48 -129.501 -48c-40 0 -82.667 9.33301 -128 28zM965.001 1520c0 42 7 73.333 21 94s27.667 31 41 31c12.667 0 26.167 -10.333 40.5 -31s21.5 -52 21.5 -94c0 -41.333 -7.16699 -72.333 -21.5 -93s-27.833 -31 -40.5 -31
c-13.333 0 -27 10.333 -41 31s-21 51.667 -21 93z" />
    <glyph glyph-name="NJ" unicode="&#x1ca;" 
d="M156 0h-93v1552h91l275 -1033l30 -154h2l-2 154v1033h93v-1552h-93l-267 1016l-38 163l2 -161v-1018zM670 34l-0.000976562 190c72.667 -76.667 133.334 -115 182.001 -115c26 0 49.5 10 70.5 30s37.833 53.5 50.5 100.5s19 147.5 19 301.5v855h-175v156h276v-1016
c0 -165.333 -9.5 -284.333 -28.5 -357s-45.5 -128.5 -79.5 -167.5s-77.333 -58.5 -130 -58.5c-59.333 0 -121 27 -185 81z" />
    <glyph glyph-name="Nj" unicode="&#x1cb;" 
d="M156 0h-93v1552h91l275 -1033l30 -154h2l-2 154v1033h93v-1552h-93l-267 1016l-38 163l2 -161v-1018zM701 -438l0.000976562 174.001c52 -30.667 95.667 -46 131 -46c31.333 0 57.833 10.833 79.5 32.5s38.5 58.167 50.5 109.5s18 140.666 18 267.999v862h-237v155h330
v-982c0 -189.333 -11.167 -320.833 -33.5 -394.5s-49.333 -126.5 -81 -158.5s-74.834 -48 -129.501 -48c-40 0 -82.667 9.33301 -128 28zM965.001 1520c0 42 7 73.333 21 94s27.667 31 41 31c12.667 0 26.167 -10.333 40.5 -31s21.5 -52 21.5 -94
c0 -41.333 -7.16699 -72.333 -21.5 -93s-27.833 -31 -40.5 -31c-13.333 0 -27 10.333 -41 31s-21 51.667 -21 93z" />
    <glyph glyph-name="nj" unicode="&#x1cc;" 
d="M78 0v1117h93v-244c26.667 86 58.834 153.333 96.501 202s75.167 73 112.5 73c33.333 0 63.5 -17.5 90.5 -52.5s45.833 -80.833 56.5 -137.5s16 -168 16 -334v-624h-93v647c0 107.333 -2.5 178.166 -7.5 212.499s-14.5 62.5 -28.5 84.5s-29 33 -45 33
c-32.667 0 -67.834 -31 -105.501 -93s-68.5 -139.667 -92.5 -233v-651h-93zM701 -437.999l0.000976562 174.001c52 -30.667 95.667 -46 131 -46c31.333 0 57.833 10.833 79.5 32.5s38.5 58.167 50.5 109.5s18 140.666 18 267.999v862h-237v155h330v-982
c0 -189.333 -11.167 -320.833 -33.5 -394.5s-49.333 -126.5 -81 -158.5s-74.834 -48 -129.501 -48c-40 0 -82.667 9.33301 -128 28zM965.001 1520c0 42 7 73.333 21 94s27.667 31 41 31c12.667 0 26.167 -10.333 40.5 -31s21.5 -52 21.5 -94
c0 -41.333 -7.16699 -72.333 -21.5 -93s-27.833 -31 -40.5 -31c-13.333 0 -27 10.333 -41 31s-21 51.667 -21 93z" />
    <glyph glyph-name="Acaron" unicode="&#x1cd;" 
d="M227 0h-194l478 1552h205l481 -1552h-213l-106 341h-546zM380 496h453l-187 589l-44 156l-39 -156zM615 1812l139 168h156l-233 -326h-124l-233 326h155z" />
    <glyph glyph-name="acaron" unicode="&#x1ce;" 
d="M889 251c-56.667 -93.333 -124.831 -163.667 -204.498 -211s-152.834 -71 -219.501 -71c-93.333 0 -177.166 40.333 -251.499 121s-111.5 203 -111.5 367c0 129.333 24.667 244.833 74 346.5s115.333 182 198 241s185 88.5 307 88.5
c35.333 0 88.666 -3.66699 159.999 -11c10.667 -1.33301 26.667 -3 48 -5h187v-789c0 -134.667 14 -244 42 -328h-194c-14.667 61.333 -26.334 145 -35.001 251zM889.003 471.999v479.001c-66 17.333 -127.333 26 -184 26c-114.667 0 -210.167 -44.333 -286.5 -133
s-114.5 -209.334 -114.5 -362.001c0 -110.667 20.833 -194.167 62.5 -250.5s89.167 -84.5 142.5 -84.5c58 0 122 29.333 192 88s132.667 137.667 188 237zM615.003 1401l139 168h156l-233 -326h-124l-233 326h155z" />
    <glyph glyph-name="Icaron" unicode="&#x1cf;" 
d="M172 0v155h341v1241h-341v156h884v-156h-341v-1241h341v-155h-884zM615 1812l139 168h156l-233 -326h-124l-233 326h155z" />
    <glyph glyph-name="icaron" unicode="&#x1d0;" 
d="M467 0v962h-310v155h496v-962h311v-155h-497zM568 1385l139 168h156l-233 -326h-124l-233 326h155z" />
    <glyph glyph-name="Ocaron" unicode="&#x1d1;" 
d="M614 -47c-176 0 -310.5 74.167 -403.5 222.5s-139.5 348.5 -139.5 600.5c0 251.333 46.5 451.166 139.5 599.499s227.5 222.5 403.5 222.5c176.667 0 311.334 -74.167 404.001 -222.5s139 -348.166 139 -599.499c0 -252 -46.333 -452.167 -139 -600.5
s-227.334 -222.5 -404.001 -222.5zM614 109c97.333 0 178.5 55.167 243.5 165.5s97.5 277.5 97.5 501.5s-32.5 391.167 -97.5 501.5s-146.167 165.5 -243.5 165.5s-178.5 -55.167 -243.5 -165.5s-97.5 -277.5 -97.5 -501.5s32.5 -391.167 97.5 -501.5
s146.167 -165.5 243.5 -165.5zM615 1858l139 168h156l-233 -326h-124l-233 326h155z" />
    <glyph glyph-name="ocaron" unicode="&#x1d2;" 
d="M615 -31c-160 0 -288 55.833 -384 167.5s-144 252.5 -144 422.5s48 310.667 144 422s224 167 384 167c159.333 0 287 -55.667 383 -167s144 -252 144 -422s-48 -310.833 -144 -422.5s-223.667 -167.5 -383 -167.5zM615 124c99.333 0 178.333 38.667 237 116
s88 183.666 88 318.999c0 134.667 -29.333 240.667 -88 318s-137.667 116 -237 116c-100 0 -179.333 -38.667 -238 -116s-88 -183.333 -88 -318c0 -135.333 29.333 -241.666 88 -318.999s138 -116 238 -116zM615 1416l139 168h156l-233 -326h-124l-233 326h155z" />
    <glyph glyph-name="Ucaron" unicode="&#x1d3;" 
d="M126 1552l202 0.000976562v-1019c0 -134 11.167 -225.5 33.5 -274.5s56.666 -86.333 102.999 -112s97.833 -38.5 154.5 -38.5c60 0 113.5 13.833 160.5 41.5s81.667 71 104 130s33.5 169.833 33.5 332.5v940h186v-1013c0 -144.667 -21.5 -257.834 -64.5 -339.501
s-99.167 -143.167 -168.5 -184.5s-156.666 -62 -261.999 -62c-97.333 0 -183 18 -257 54s-130 90 -168 162s-57 202 -57 390v993zM615 1812l139 168h156l-233 -326h-124l-233 326h155z" />
    <glyph glyph-name="ucaron" unicode="&#x1d4;" 
d="M1074 1117l-0.00292969 -1117h-186v245c-60 -92 -126.667 -161 -200 -207s-146.666 -69 -219.999 -69c-65.333 0 -125.166 17.5 -179.499 52.5s-92.166 81 -113.499 138s-32 168.167 -32 333.5v624h186v-647c0 -107.333 5.16699 -178.166 15.5 -212.499
s29.333 -62.5 57 -84.5s57.5 -33 89.5 -33c65.333 0 135.5 30.833 210.5 92.5s137.167 139.5 186.5 233.5v651h186zM614.997 1385l139 168h156l-233 -326h-124l-233 326h155z" />
    <glyph glyph-name="Udieresismacron" unicode="&#x1d5;" 
d="M126 1552l202 0.000976562v-1019c0 -134 11.167 -225.5 33.5 -274.5s56.666 -86.333 102.999 -112s97.833 -38.5 154.5 -38.5c60 0 113.5 13.833 160.5 41.5s81.667 71 104 130s33.5 169.833 33.5 332.5v940h186v-1013c0 -144.667 -21.5 -257.834 -64.5 -339.501
s-99.167 -143.167 -168.5 -184.5s-156.666 -62 -261.999 -62c-97.333 0 -183 18 -257 54s-130 90 -168 162s-57 202 -57 390v993zM397 1654c-34 0 -63.167 12 -87.5 36s-36.5 53.333 -36.5 88s12.333 64 37 88s53.667 36 87 36s62.333 -12 87 -36s37 -53.333 37 -88
s-12.167 -64 -36.5 -88s-53.5 -36 -87.5 -36zM832 1654c-34 0 -63.333 12 -88 36s-37 53.333 -37 88s12.5 64 37.5 88s54.167 36 87.5 36s62.333 -12 87 -36s37 -53.333 37 -88s-12.333 -64 -37 -88s-53.667 -36 -87 -36zM335 2004v124h559v-124h-559z" />
    <glyph glyph-name="udieresismacron" unicode="&#x1d6;" 
d="M1074 1117l-0.00292969 -1117h-186v245c-60 -92 -126.667 -161 -200 -207s-146.666 -69 -219.999 -69c-65.333 0 -125.166 17.5 -179.499 52.5s-92.166 81 -113.499 138s-32 168.167 -32 333.5v624h186v-647c0 -107.333 5.16699 -178.166 15.5 -212.499
s29.333 -62.5 57 -84.5s57.5 -33 89.5 -33c65.333 0 135.5 30.833 210.5 92.5s137.167 139.5 186.5 233.5v651h186zM396.997 1227c-34 0 -63.167 12 -87.5 36s-36.5 53.333 -36.5 88s12.333 64 37 88s53.667 36 87 36s62.333 -12 87 -36s37 -53.333 37 -88
s-12.167 -64 -36.5 -88s-53.5 -36 -87.5 -36zM831.997 1227c-34 0 -63.333 12 -88 36s-37 53.333 -37 88s12.5 64 37.5 88s54.167 36 87.5 36s62.333 -12 87 -36s37 -53.333 37 -88s-12.333 -64 -37 -88s-53.667 -36 -87 -36zM334.997 1569v124h559v-124h-559z" />
    <glyph glyph-name="Udieresisacute" unicode="&#x1d7;" 
d="M126 1552l202 0.000976562v-1019c0 -134 11.167 -225.5 33.5 -274.5s56.666 -86.333 102.999 -112s97.833 -38.5 154.5 -38.5c60 0 113.5 13.833 160.5 41.5s81.667 71 104 130s33.5 169.833 33.5 332.5v940h186v-1013c0 -144.667 -21.5 -257.834 -64.5 -339.501
s-99.167 -143.167 -168.5 -184.5s-156.666 -62 -261.999 -62c-97.333 0 -183 18 -257 54s-130 90 -168 162s-57 202 -57 390v993zM397 1654c-34 0 -63.167 12 -87.5 36s-36.5 53.333 -36.5 88s12.333 64 37 88s53.667 36 87 36s62.333 -12 87 -36s37 -53.333 37 -88
s-12.167 -64 -36.5 -88s-53.5 -36 -87.5 -36zM832 1654c-34 0 -63.333 12 -88 36s-37 53.333 -37 88s12.5 64 37.5 88s54.167 36 87.5 36s62.333 -12 87 -36s37 -53.333 37 -88s-12.333 -64 -37 -88s-53.667 -36 -87 -36zM358 2004l296 326h216l-342 -326h-170z" />
    <glyph glyph-name="udieresisacute" unicode="&#x1d8;" 
d="M1074 1117l-0.00292969 -1117h-186v245c-60 -92 -126.667 -161 -200 -207s-146.666 -69 -219.999 -69c-65.333 0 -125.166 17.5 -179.499 52.5s-92.166 81 -113.499 138s-32 168.167 -32 333.5v624h186v-647c0 -107.333 5.16699 -178.166 15.5 -212.499
s29.333 -62.5 57 -84.5s57.5 -33 89.5 -33c65.333 0 135.5 30.833 210.5 92.5s137.167 139.5 186.5 233.5v651h186zM396.997 1227c-34 0 -63.167 12 -87.5 36s-36.5 53.333 -36.5 88s12.333 64 37 88s53.667 36 87 36s62.333 -12 87 -36s37 -53.333 37 -88
s-12.167 -64 -36.5 -88s-53.5 -36 -87.5 -36zM831.997 1227c-34 0 -63.333 12 -88 36s-37 53.333 -37 88s12.5 64 37.5 88s54.167 36 87.5 36s62.333 -12 87 -36s37 -53.333 37 -88s-12.333 -64 -37 -88s-53.667 -36 -87 -36zM351.997 1569l296 326h216l-342 -326h-170z" />
    <glyph glyph-name="Udieresiscaron" unicode="&#x1d9;" 
d="M126 1552l202 0.000976562v-1019c0 -134 11.167 -225.5 33.5 -274.5s56.666 -86.333 102.999 -112s97.833 -38.5 154.5 -38.5c60 0 113.5 13.833 160.5 41.5s81.667 71 104 130s33.5 169.833 33.5 332.5v940h186v-1013c0 -144.667 -21.5 -257.834 -64.5 -339.501
s-99.167 -143.167 -168.5 -184.5s-156.666 -62 -261.999 -62c-97.333 0 -183 18 -257 54s-130 90 -168 162s-57 202 -57 390v993zM397 1654c-34 0 -63.167 12 -87.5 36s-36.5 53.333 -36.5 88s12.333 64 37 88s53.667 36 87 36s62.333 -12 87 -36s37 -53.333 37 -88
s-12.167 -64 -36.5 -88s-53.5 -36 -87.5 -36zM832 1654c-34 0 -63.333 12 -88 36s-37 53.333 -37 88s12.5 64 37.5 88s54.167 36 87.5 36s62.333 -12 87 -36s37 -53.333 37 -88s-12.333 -64 -37 -88s-53.667 -36 -87 -36zM615 2162l139 168h156l-233 -326h-124l-233 326h155
z" />
    <glyph glyph-name="udieresiscaron" unicode="&#x1da;" 
d="M1074 1117l-0.00292969 -1117h-186v245c-60 -92 -126.667 -161 -200 -207s-146.666 -69 -219.999 -69c-65.333 0 -125.166 17.5 -179.499 52.5s-92.166 81 -113.499 138s-32 168.167 -32 333.5v624h186v-647c0 -107.333 5.16699 -178.166 15.5 -212.499
s29.333 -62.5 57 -84.5s57.5 -33 89.5 -33c65.333 0 135.5 30.833 210.5 92.5s137.167 139.5 186.5 233.5v651h186zM396.997 1227c-34 0 -63.167 12 -87.5 36s-36.5 53.333 -36.5 88s12.333 64 37 88s53.667 36 87 36s62.333 -12 87 -36s37 -53.333 37 -88
s-12.167 -64 -36.5 -88s-53.5 -36 -87.5 -36zM831.997 1227c-34 0 -63.333 12 -88 36s-37 53.333 -37 88s12.5 64 37.5 88s54.167 36 87.5 36s62.333 -12 87 -36s37 -53.333 37 -88s-12.333 -64 -37 -88s-53.667 -36 -87 -36zM614.997 1727l139 168h156l-233 -326h-124
l-233 326h155z" />
    <glyph glyph-name="Udieresisgrave" unicode="&#x1db;" 
d="M126 1552l202 0.000976562v-1019c0 -134 11.167 -225.5 33.5 -274.5s56.666 -86.333 102.999 -112s97.833 -38.5 154.5 -38.5c60 0 113.5 13.833 160.5 41.5s81.667 71 104 130s33.5 169.833 33.5 332.5v940h186v-1013c0 -144.667 -21.5 -257.834 -64.5 -339.501
s-99.167 -143.167 -168.5 -184.5s-156.666 -62 -261.999 -62c-97.333 0 -183 18 -257 54s-130 90 -168 162s-57 202 -57 390v993zM397 1654c-34 0 -63.167 12 -87.5 36s-36.5 53.333 -36.5 88s12.333 64 37 88s53.667 36 87 36s62.333 -12 87 -36s37 -53.333 37 -88
s-12.167 -64 -36.5 -88s-53.5 -36 -87.5 -36zM832 1654c-34 0 -63.333 12 -88 36s-37 53.333 -37 88s12.5 64 37.5 88s54.167 36 87.5 36s62.333 -12 87 -36s37 -53.333 37 -88s-12.333 -64 -37 -88s-53.667 -36 -87 -36zM870 2004h-170l-342 326h216z" />
    <glyph glyph-name="udieresisgrave" unicode="&#x1dc;" 
d="M1074 1117l-0.00292969 -1117h-186v245c-60 -92 -126.667 -161 -200 -207s-146.666 -69 -219.999 -69c-65.333 0 -125.166 17.5 -179.499 52.5s-92.166 81 -113.499 138s-32 168.167 -32 333.5v624h186v-647c0 -107.333 5.16699 -178.166 15.5 -212.499
s29.333 -62.5 57 -84.5s57.5 -33 89.5 -33c65.333 0 135.5 30.833 210.5 92.5s137.167 139.5 186.5 233.5v651h186zM396.997 1227c-34 0 -63.167 12 -87.5 36s-36.5 53.333 -36.5 88s12.333 64 37 88s53.667 36 87 36s62.333 -12 87 -36s37 -53.333 37 -88
s-12.167 -64 -36.5 -88s-53.5 -36 -87.5 -36zM831.997 1227c-34 0 -63.333 12 -88 36s-37 53.333 -37 88s12.5 64 37.5 88s54.167 36 87.5 36s62.333 -12 87 -36s37 -53.333 37 -88s-12.333 -64 -37 -88s-53.667 -36 -87 -36zM863.997 1569h-170l-342 326h216z" />
    <glyph glyph-name="eturned" unicode="&#x1dd;" 
d="M146 1042c148.667 70.667 289.332 106 421.999 106c100.667 0 190.667 -25 270 -75s142.833 -121.5 190.5 -214.5s71.5 -192.5 71.5 -298.5c0 -102 -22.667 -200 -68 -294s-108.666 -167.167 -189.999 -219.5s-172 -78.5 -272 -78.5
c-132.667 0 -239.167 47.333 -319.5 142s-120.5 240.667 -120.5 438v40h770c0 77.333 -16.167 148 -48.5 212s-74.833 112 -127.5 144s-112.667 48 -180 48c-120 0 -252.667 -40 -398 -120v170zM888.998 449h-557.001v-27c0 -91.333 22.333 -164 67 -218
s104.334 -81 179.001 -81c75.333 0 140.5 27.5 195.5 82.5s93.5 136.167 115.5 243.5z" />
    <glyph glyph-name="Adieresismacron" unicode="&#x1de;" 
d="M227 0h-194l478 1552h205l481 -1552h-213l-106 341h-546zM380 496h453l-187 589l-44 156l-39 -156zM398 1654c-34 0 -63.167 12 -87.5 36s-36.5 53.333 -36.5 88s12.333 64 37 88s53.667 36 87 36s62.333 -12 87 -36s37 -53.333 37 -88s-12.167 -64 -36.5 -88
s-53.5 -36 -87.5 -36zM833 1654c-34 0 -63.333 12 -88 36s-37 53.333 -37 88s12.5 64 37.5 88s54.167 36 87.5 36s62.333 -12 87 -36s37 -53.333 37 -88s-12.333 -64 -37 -88s-53.667 -36 -87 -36zM336 2004v124h559v-124h-559z" />
    <glyph glyph-name="adieresismacron" unicode="&#x1df;" 
d="M889 251c-56.667 -93.333 -124.831 -163.667 -204.498 -211s-152.834 -71 -219.501 -71c-93.333 0 -177.166 40.333 -251.499 121s-111.5 203 -111.5 367c0 129.333 24.667 244.833 74 346.5s115.333 182 198 241s185 88.5 307 88.5
c35.333 0 88.666 -3.66699 159.999 -11c10.667 -1.33301 26.667 -3 48 -5h187v-789c0 -134.667 14 -244 42 -328h-194c-14.667 61.333 -26.334 145 -35.001 251zM889.003 471.999v479.001c-66 17.333 -127.333 26 -184 26c-114.667 0 -210.167 -44.333 -286.5 -133
s-114.5 -209.334 -114.5 -362.001c0 -110.667 20.833 -194.167 62.5 -250.5s89.167 -84.5 142.5 -84.5c58 0 122 29.333 192 88s132.667 137.667 188 237zM397.003 1243c-34 0 -63.167 12 -87.5 36s-36.5 53.333 -36.5 88s12.333 64 37 88s53.667 36 87 36
s62.333 -12 87 -36s37 -53.333 37 -88s-12.167 -64 -36.5 -88s-53.5 -36 -87.5 -36zM832.003 1243c-34 0 -63.333 12 -88 36s-37 53.333 -37 88s12.5 64 37.5 88s54.167 36 87.5 36s62.333 -12 87 -36s37 -53.333 37 -88s-12.333 -64 -37 -88s-53.667 -36 -87 -36z
M335.003 1585v124h559v-124h-559z" />
    <glyph glyph-name="Adotmacron" unicode="&#x1e0;" 
d="M227 0h-194l478 1552h205l481 -1552h-213l-106 341h-546zM380 496h453l-187 589l-44 156l-39 -156zM616 1732c-34 0 -62.999 11.833 -86.999 35.5s-36 52.5 -36 86.5s12.167 63 36.5 87s53.166 36 86.499 36c32.667 0 61.167 -12 85.5 -36s36.5 -53 36.5 -87
s-12 -62.833 -36 -86.5s-52.667 -35.5 -86 -35.5zM336.001 2082v124h559v-124h-559z" />
    <glyph glyph-name="adotmacron" unicode="&#x1e1;" 
d="M889 251c-56.667 -93.333 -124.831 -163.667 -204.498 -211s-152.834 -71 -219.501 -71c-93.333 0 -177.166 40.333 -251.499 121s-111.5 203 -111.5 367c0 129.333 24.667 244.833 74 346.5s115.333 182 198 241s185 88.5 307 88.5
c35.333 0 88.666 -3.66699 159.999 -11c10.667 -1.33301 26.667 -3 48 -5h187v-789c0 -134.667 14 -244 42 -328h-194c-14.667 61.333 -26.334 145 -35.001 251zM889.003 471.999v479.001c-66 17.333 -127.333 26 -184 26c-114.667 0 -210.167 -44.333 -286.5 -133
s-114.5 -209.334 -114.5 -362.001c0 -110.667 20.833 -194.167 62.5 -250.5s89.167 -84.5 142.5 -84.5c58 0 122 29.333 192 88s132.667 137.667 188 237zM615.003 1321c-34 0 -62.999 11.833 -86.999 35.5s-36 52.5 -36 86.5s12.167 63 36.5 87s53.166 36 86.499 36
c32.667 0 61.167 -12 85.5 -36s36.5 -53 36.5 -87s-12 -62.833 -36 -86.5s-52.667 -35.5 -86 -35.5zM335.004 1663v124h559v-124h-559z" />
    <glyph glyph-name="AEmacron" unicode="&#x1e2;" 
d="M638 0v372h-314l-152 -372h-170l636 1552h543v-156h-357v-535h342v-155h-342v-535h357v-171h-543zM381 512h257v622zM320 1654v124h559v-124h-559z" />
    <glyph glyph-name="aemacron" unicode="&#x1e3;" 
d="M592 226c-34.667 -86.667 -74.6699 -151.167 -120.003 -193.5s-89.333 -63.5 -132 -63.5c-74.667 0 -139.334 48 -194.001 144s-82 219.333 -82 370c0 133.333 18.5 249.833 55.5 349.5s86.333 177.167 148 232.5s127.834 83 198.501 83
c23.333 0 48.166 -2.5 74.499 -7.5s50 -11.333 71 -19s47.5 -22.5 79.5 -44.5c48.667 36 86.334 56.833 113.001 62.5s50.334 8.5 71.001 8.5c84.667 0 154.334 -37.833 209.001 -113.5s82 -225.5 82 -449.5v-50h-404v-83c0 -98.667 7.5 -168.167 22.5 -208.5
s36.5 -70.333 64.5 -90s59.333 -29.5 94 -29.5c67.333 0 141.666 26.333 222.999 79v-170c-94 -42.667 -178.667 -64 -254 -64c-49.333 0 -94.666 8.5 -135.999 25.5s-77.166 42.5 -107.499 76.5s-55.833 85.667 -76.5 155zM575.997 470v489.001
c-16 11.333 -31.667 19.833 -47 25.5s-30.333 8.5 -45 8.5c-78 0 -136.5 -55 -175.5 -165s-58.5 -231.667 -58.5 -365c0 -78.667 11 -146.334 33 -203.001s50 -84 84 -82c70 4.66699 139.667 102 209 292zM761.997 667.001l217.001 0.000976562v32
c0 117.333 -9 195.666 -27 234.999s-44.333 59 -79 59c-36.667 0 -64.334 -24.5 -83.001 -73.5s-28 -122.5 -28 -220.5v-32zM335.998 1258v124h559v-124h-559z" />
    </font>
</defs>
</svg>
